<svg xmlns="http://www.w3.org/2000/svg" version="1.1" xmlns:xlink="http://www.w3.org/1999/xlink" width="1000.3" height="1000.3"><svg xmlns="http://www.w3.org/2000/svg" viewBox="0 0 1000.3 1000.3">
  <g>
    <path d="M498.5 11.3a488.8 488.8 0 0 1 488.2 487.8 488.8 488.8 0 0 1-486.5 488A488.4 488.4 0 0 1 11 499.8 488.4 488.4 0 0 1 498.5 11.3Zm.1 964.6c265.8-.5 476.3-216.4 476.8-475.7S766.2 23.6 500.4 22.7c-267-.8-478 216.6-478 476.3S232.7 975.2 498.5 976Z" fill="black"></path>
    <path d="M498.6 975.9C232.8 975.2 22.2 758.8 22.3 499S233.5 21.9 500.4 22.7c265.8.9 475.5 218.1 475 477.5s-211 475.2-476.8 475.7Zm254.7-497a10.8 10.8 0 0 1 .7-1.5l4.1-4.6a112 112 0 0 0 26.2-100.2 116 116 0 0 0-113.2-92c-46.6-.3-93.2 0-139.9 0h-2.7c-4.5.3-5.8 1.5-6 5.8V318c.3 3.8 1.6 5.1 5.6 5.4h136.5l11 .3a66 66 0 0 1 24.5 6 73.2 73.2 0 0 1 4.4 132 76.6 76.6 0 0 1-37.7 9h-55.1c-1.9 0-3.7 0-5.5.2-3.6.3-5.3 1.6-5.4 5v32.4a4 4 0 0 0 0 .7c.5 3 2 4.4 5 4.7 2 .2 4.2.2 6.2.2h96.5a85.6 85.6 0 0 1 18.5 1.7 73.3 73.3 0 0 1 56.7 65 247.9 247.9 0 0 1 .2 27.5 73 73 0 0 1-51 65.3 80.7 80.7 0 0 1-25.2 3.5h-208c-4.3.2-5.5 1.6-5.8 6v28.3c0 8 .5 8.5 8.6 8.5H712a105.3 105.3 0 0 0 20.5-1.9 116.6 116.6 0 0 0 91.3-86.6c4-16.8 3.7-33.7 3.1-50.7a77.2 77.2 0 0 0-1-11q-11-61.4-67.3-88.4l-5.3-2.4Zm-418 43.5-3.1 7.3-46.9 99.7-39 82.9c-3 6.5-1.5 8.8 5.8 8.9h29.6c7.5 0 7.6.8 11.4-7.2q17.4-37.4 35.1-74.8l64.4-137 2.9-6.3c3.3-8.5-3.6-16.6-10.5-16.3h-64.1a91.5 91.5 0 0 1-27.9-4 78.7 78.7 0 0 1-55.7-69 78.4 78.4 0 0 1 81.7-83h129.6a58.3 58.3 0 0 0 6.8-.3 4.3 4.3 0 0 0 4-4 42.9 42.9 0 0 0 .2-4.9v-24c0-9.3-.5-9.8-9.8-9.8H315.5a119.4 119.4 0 0 0-25.3 2.5c-56 12.1-91.4 59-95.5 107-2.3 26.6 3 51.4 17.3 73.8 24.4 37.6 59.6 56.7 104.2 58.5 6 .2 12 0 19 0Zm159.2-9.4c9.1.6 21-7 21-20.8a20.6 20.6 0 0 0-20.5-20.6 20.7 20.7 0 1 0-.5 41.4Z" fill="white"></path>
    <path d="m753.3 478.8 5.3 2.5q56.1 27 67.2 88.3a77.2 77.2 0 0 1 1.1 11c.6 17 1 34-3.1 50.7a116.6 116.6 0 0 1-91.3 86.7 105.3 105.3 0 0 1-20.5 1.9q-104.7-.1-209.5 0c-8 0-8.5-.5-8.6-8.6V683c.3-4.4 1.5-5.7 5.8-6h208a80.7 80.7 0 0 0 25.2-3.4c32-10.4 50-38.9 51-65.4a247.9 247.9 0 0 0-.2-27.5 73.3 73.3 0 0 0-56.7-65 85.6 85.6 0 0 0-18.5-1.7H612l-6.2-.1c-3-.3-4.5-1.8-5-4.8a4 4 0 0 1 0-.6c0-10.8-.2-21.6 0-32.4 0-3.4 1.8-4.8 5.3-5 1.9-.2 3.7-.2 5.5-.2h55.2c13.3 0 26-2.6 37.7-9.1a73.3 73.3 0 0 0-4.4-132 66 66 0 0 0-24.6-6l-11-.2H528.1c-4-.3-5.3-1.6-5.6-5.5v-31.7c.2-4.3 1.5-5.5 6-5.8h2.7c46.6 0 93.3-.2 139.9 0a116 116 0 0 1 113.2 92A112 112 0 0 1 758 472.9l-4 4.7a10.8 10.8 0 0 0-.8 1.3ZM335.3 522.4c-7.2 0-13.1.2-19 0-44.7-1.8-79.9-20.8-104.2-58.5a114.3 114.3 0 0 1-17.4-73.7c4.2-48 39.5-95 95.5-107a119.4 119.4 0 0 1 25.3-2.6H450c9.2 0 9.7.5 9.7 9.7v24.2a42.9 42.9 0 0 1-.1 4.8 4.3 4.3 0 0 1-4 4 58.3 58.3 0 0 1-6.9.3H319.1a78.4 78.4 0 0 0-81.8 83 78.7 78.7 0 0 0 55.8 69.1 91.5 91.5 0 0 0 27.8 3.9H385c6.9-.3 13.9 7.8 10.5 16.3l-2.9 6.2-64.4 137.1L293 714c-3.8 8-3.8 7.2-11.3 7.2H252c-7.2 0-8.7-2.4-5.7-9l39-82.8 46.8-99.7c1-2 1.8-4.2 3.2-7.3Z" fill="black"></path>
    <path d="M494.5 513a20.7 20.7 0 1 1 21-20.8 20.4 20.4 0 0 1-21 20.8Z" fill="black"></path>
  </g>
</svg><style>@media (prefers-color-scheme: light) { :root { filter: none; } }
@media (prefers-color-scheme: dark) { :root { filter: none; } }
</style></svg>