<svg xmlns="http://www.w3.org/2000/svg" width="900" height="1200" viewBox="0 0 900 1200" role="img" aria-label="Illustration chirurgie orale">
  <defs>
    <linearGradient id="bg" x1="0" y1="0" x2="1" y2="1">
      <stop offset="0" stop-color="#00d4aa"/>
      <stop offset="1" stop-color="#4aa3eb"/>
    </linearGradient>
    <radialGradient id="glow" cx="35%" cy="20%" r="70%">
      <stop offset="0" stop-color="rgba(255,255,255,0.35)"/>
      <stop offset="1" stop-color="rgba(255,255,255,0)"/>
    </radialGradient>
  </defs>
  <rect width="900" height="1200" rx="48" fill="url(#bg)"/>
  <rect width="900" height="1200" rx="48" fill="url(#glow)"/>
  <g fill="none" stroke="rgba(255,255,255,0.92)" stroke-width="18" stroke-linecap="round" stroke-linejoin="round">
    <path d="M450 260c-120 0-217 97-217 217 0 118 62 188 90 248 20 44 34 80 34 120 0 64 33 125 93 125s93-61 93-125c0-40 14-76 34-120 28-60 90-130 90-248 0-120-97-217-217-217z"/>
    <path d="M260 520c-96 0-176 58-208 144 106-32 188-16 258 28"/>
    <path d="M640 520c96 0 176 58 208 144-106-32-188-16-258 28"/>
  </g>
  <text x="450" y="1060" text-anchor="middle" font-family="Inter, system-ui, -apple-system, Segoe UI, Roboto, Arial" font-size="40" font-weight="800" fill="rgba(255,255,255,0.95)">Chirurgie orale</text>
</svg>
