<svg xmlns="http://www.w3.org/2000/svg" width="900" height="1200" viewBox="0 0 900 1200" role="img" aria-label="Illustration implantologie">
  <defs>
    <linearGradient id="bg" x1="0" y1="0" x2="1" y2="1">
      <stop offset="0" stop-color="#00d4aa"/>
      <stop offset="1" stop-color="#2b6cb0"/>
    </linearGradient>
    <radialGradient id="glow" cx="40%" cy="20%" r="80%">
      <stop offset="0" stop-color="rgba(255,255,255,0.35)"/>
      <stop offset="1" stop-color="rgba(255,255,255,0)"/>
    </radialGradient>
  </defs>
  <rect width="900" height="1200" rx="48" fill="url(#bg)"/>
  <rect width="900" height="1200" rx="48" fill="url(#glow)"/>
  <g fill="none" stroke="rgba(255,255,255,0.92)" stroke-width="18" stroke-linecap="round" stroke-linejoin="round">
    <!-- dent -->
    <path d="M380 280c-110 0-200 90-200 200 0 110 58 176 84 232 19 41 32 74 32 112 0 60 30 118 84 118s84-58 84-118c0-38 13-71 32-112 26-56 84-122 84-232 0-110-90-200-200-200z" opacity=".65"/>
    <!-- vis -->
    <path d="M600 340c-44 0-80 36-80 80v20h160v-20c0-44-36-80-80-80z"/>
    <path d="M520 440h160v320H520z"/>
    <path d="M520 540h160M520 610h160M520 680h160"/>
  </g>
  <text x="450" y="1060" text-anchor="middle" font-family="Inter, system-ui, -apple-system, Segoe UI, Roboto, Arial" font-size="40" font-weight="800" fill="rgba(255,255,255,0.95)">Implantologie</text>
</svg>
