<?xml version="1.1" encoding="UTF-8"?>

<svg xmlns="http://www.w3.org/2000/svg" viewBox="0 0 1254 1254">

<g transform="translate(0,1254) scale(1,-1)" fill="#ffffff" stroke="#ffffff" stroke-width="12" stroke-linejoin="round" stroke-linecap="round">
<path fill="none" stroke="none" d="M607 1199 c-13 0 -25 -1 -38 -3 -17 -2 -24 -3 -39 -5 -16 -3 -27 -6
-51 -12 -3 -1 -16 -4 -23 -7 -16 -5 -41 -14 -53 -20 -2 -1 -5 -2 -7 -3 -7 -3
-27 -13 -34 -17 -14 -7 -25 -14 -37 -22 -8 -4 -25 -16 -30 -20 -2 -2 -5 -4 -7
-6 -3 -2 -5 -4 -5 -4 -1 0 -2 -1 -3 -2 -1 -1 -2 -1 -2 -1 0 -1 -3 -3 -5 -5 -3
-2 -6 -4 -6 -5 0 0 -3 -2 -6 -5 -3 -2 -7 -6 -9 -7 -1 -2 -3 -4 -5 -5 -4 -4
-19 -18 -25 -25 -7 -7 -11 -11 -15 -16 -2 -2 -3 -4 -4 -4 0 0 -1 -2 -3 -3 -1
-2 -2 -4 -3 -4 0 -1 -14 -18 -17 -22 -15 -20 -25 -35 -39 -59 -7 -12 -16 -28
-22 -43 -21 -44 -35 -92 -43 -139 -4 -24 -6 -44 -7 -72 -1 -22 0 -46 3 -76 1
-11 4 -30 7 -45 1 -8 6 -27 7 -33 9 -32 19 -61 32 -90 4 -8 12 -26 17 -34 3
-7 10 -19 15 -26 6 -10 21 -32 27 -40 14 -19 32 -39 49 -56 6 -7 13 -13 15
-16 7 -6 14 -12 16 -14 1 -1 2 -2 3 -2 1 -1 7 -6 13 -12 3 -2 7 -5 10 -7 3 -2
7 -5 9 -7 2 -2 5 -4 7 -5 1 -1 4 -3 5 -4 12 -9 34 -23 49 -31 8 -4 12 -7 16
-9 5 -3 30 -15 30 -15 0 0 2 -1 4 -2 47 -21 103 -37 159 -44 30 -4 63 -5 95
-3 12 0 28 2 36 3 13 1 37 5 43 6 1 1 6 2 10 3 32 6 67 18 98 31 9 3 12 5 16
7 5 2 31 15 32 15 0 1 2 2 4 3 6 3 7 4 11 6 2 1 6 4 9 5 6 4 31 20 37 25 3 2
7 5 9 7 5 4 7 5 10 8 2 1 3 2 4 2 2 2 16 14 24 21 12 12 29 29 39 39 15 17 32
39 44 57 9 13 8 11 18 27 6 10 6 9 10 17 6 11 7 13 11 21 3 7 10 21 10 22 0 0
2 4 3 8 10 22 21 55 28 80 4 17 8 39 11 56 1 10 3 27 4 35 1 9 2 38 2 48 0 12
-2 45 -3 55 -3 33 -8 60 -15 88 -8 28 -18 57 -29 82 0 1 -2 5 -4 9 -3 7 -14
28 -16 33 -2 2 -3 4 -4 6 0 1 -2 3 -2 4 -9 15 -22 37 -33 51 -1 2 -3 4 -4 6
-5 7 -12 16 -18 23 -6 7 -12 15 -13 16 -1 0 -3 2 -5 5 -5 6 -32 32 -38 39 -3
2 -8 7 -12 10 -3 2 -6 5 -7 6 -7 6 -23 18 -35 26 -12 9 -20 14 -39 25 -9 5
-30 16 -43 22 -22 10 -47 19 -74 27 -10 3 -35 9 -43 11 -3 1 -7 1 -10 2 -5 1
-8 2 -14 2 -1 1 -4 1 -6 1 -7 2 -16 3 -23 3 -4 1 -8 1 -23 3 -6 0 -52 1 -60 0z
m60 -14 c13 -1 30 -3 39 -4 7 -1 24 -4 30 -5 36 -7 71 -19 104 -33 13 -5 14
-5 29 -13 33 -16 66 -37 95 -60 5 -5 20 -18 27 -24 9 -8 25 -25 34 -34 9 -10
9 -10 13 -16 3 -2 5 -5 6 -7 5 -6 18 -22 23 -30 2 -3 6 -8 7 -10 5 -8 19 -30
25 -40 6 -11 16 -32 20 -41 2 -4 4 -7 4 -9 2 -4 9 -22 12 -28 8 -23 13 -40 19
-67 5 -21 9 -46 11 -74 0 -1 1 -8 1 -15 1 -15 1 -51 0 -62 -1 -18 -1 -22 -3
-34 -1 -15 -5 -39 -8 -51 -2 -11 -6 -27 -8 -33 -5 -17 -12 -37 -19 -54 -4 -11
-5 -13 -8 -20 -1 -2 -2 -4 -2 -4 0 0 -13 -27 -16 -31 -3 -6 -10 -18 -12 -21
-2 -4 -11 -18 -14 -23 -3 -4 -16 -23 -18 -24 -1 -1 -6 -8 -10 -14 -5 -6 -20
-23 -27 -31 -8 -8 -21 -21 -27 -26 -4 -4 -11 -10 -16 -15 -5 -4 -20 -16 -26
-21 -11 -7 -13 -9 -21 -14 -17 -12 -32 -21 -47 -29 -9 -5 -27 -14 -35 -17 -5
-2 -9 -4 -10 -5 -5 -2 -23 -8 -31 -11 -25 -9 -48 -15 -73 -20 -26 -6 -50 -9
-77 -11 -10 0 -48 0 -59 1 -26 1 -49 4 -74 9 -19 4 -36 8 -51 13 -17 5 -41 13
-51 18 -1 0 -3 1 -3 1 0 0 -1 1 -3 2 -4 1 -9 4 -13 5 -9 4 -31 16 -43 23 -24
13 -40 24 -61 39 -23 18 -40 32 -59 51 -22 22 -43 47 -61 71 -5 8 -14 21 -18
27 -1 3 -4 7 -6 10 -1 3 -4 6 -4 8 -1 1 -2 3 -3 4 -6 10 -18 35 -24 49 -9 21
-16 41 -23 65 -7 24 -13 52 -16 78 -1 6 -3 22 -3 33 -1 4 -1 14 -2 22 0 12 0
19 0 30 1 16 2 24 3 36 2 22 6 44 10 62 5 23 15 54 23 75 10 27 18 44 32 68 3
6 7 12 7 13 0 0 3 4 5 7 7 12 18 29 27 41 12 15 21 26 33 40 13 14 31 31 44
43 2 2 4 3 4 4 1 1 22 18 29 23 14 11 34 24 43 29 0 1 2 2 3 2 0 1 3 2 5 4 10
5 17 9 17 9 0 0 2 1 4 2 5 3 23 12 28 15 17 7 35 15 53 21 9 3 25 8 31 9 16 4
29 7 43 10 7 2 25 5 31 5 10 2 12 2 17 2 12 2 27 3 36 3 11 1 49 0 58 -1z"/>
<path d="M175 861 c-3 -1 -6 -4 -7 -7 -2 -3 -2 -5 -3 -10 -1 -4 -1 -20 0 -25
1 -10 1 -10 4 -21 1 -3 4 -12 7 -17 3 -8 9 -17 15 -24 4 -6 11 -14 13 -16 1 0
2 -1 2 -2 0 0 -1 0 -2 0 -3 -1 -7 -2 -9 -4 -1 0 -2 -2 -2 -3 -2 -3 -3 -9 -3
-13 0 -3 1 -9 2 -12 0 -1 1 -3 1 -4 1 -5 4 -11 8 -17 8 -14 27 -32 42 -39 1
-1 2 -1 2 -2 0 0 -1 0 -2 -1 -1 0 -3 -1 -4 -2 -3 -4 -5 -9 -4 -17 0 -6 2 -12
7 -20 1 -2 3 -5 6 -9 9 -10 25 -20 42 -26 4 -1 12 -3 14 -3 0 0 1 0 1 -1 0 0
0 -1 0 -2 -1 -2 -1 -3 -1 -7 0 -4 1 -5 2 -8 3 -7 9 -13 17 -19 11 -7 24 -12
38 -16 16 -4 30 -5 47 -5 24 1 46 6 70 15 2 1 4 1 4 1 0 0 0 -4 1 -9 1 -19 2
-30 6 -53 1 -8 4 -22 6 -32 1 -2 2 -8 4 -13 4 -16 8 -26 13 -35 7 -14 16 -24
24 -28 4 -2 7 -3 12 -3 3 0 5 0 7 1 6 3 12 8 16 16 3 5 6 13 8 19 1 2 2 6 2 8
1 3 4 17 6 28 3 17 3 19 6 32 2 9 3 15 4 17 1 1 1 3 2 5 2 9 6 18 10 25 2 4 8
9 11 11 3 1 4 1 7 1 4 0 5 0 7 -1 4 -2 8 -6 11 -10 4 -6 8 -15 11 -25 1 -2 1
-4 1 -4 1 -2 2 -5 3 -9 1 -4 4 -22 5 -26 0 -2 1 -4 1 -6 0 -1 1 -5 1 -8 3 -12
3 -17 4 -21 3 -10 5 -18 6 -23 2 -5 6 -14 8 -17 3 -4 5 -6 8 -8 5 -4 8 -5 14
-5 4 0 8 1 13 4 4 2 11 9 15 15 4 6 4 7 8 15 3 6 7 17 10 25 5 18 11 48 14 70
1 3 1 7 2 10 0 5 1 13 2 24 0 5 1 10 1 10 0 0 1 0 1 0 1 -1 3 -1 4 -2 1 0 5
-1 7 -2 9 -4 22 -7 33 -9 3 -1 14 -2 21 -2 16 -2 39 0 55 4 15 4 28 10 39 17
2 1 5 4 8 7 4 4 5 6 7 9 3 7 4 12 2 16 -1 3 -1 4 1 4 2 0 10 2 15 4 8 2 16 6
23 10 3 3 10 8 13 10 3 3 8 9 9 12 3 3 7 12 8 16 0 1 1 5 1 8 0 5 0 8 -2 11
-2 3 -5 5 -7 6 -1 1 -1 1 -1 1 0 1 0 1 1 1 2 1 9 6 14 9 10 7 21 18 27 27 5 8
8 15 10 24 1 1 1 3 2 4 0 1 0 5 0 10 0 6 0 7 -1 10 -1 1 -2 3 -3 5 -2 2 -6 4
-9 4 -1 0 -2 0 -2 0 0 1 2 3 5 6 6 6 10 11 14 18 9 12 15 25 18 36 3 9 3 12 4
20 1 6 1 19 0 23 0 4 -1 7 -2 9 0 2 -2 6 -3 7 -1 1 -4 3 -7 4 -2 0 -3 0 -6 0
-3 -1 -6 -3 -10 -5 -2 -2 -8 -7 -9 -7 0 -1 -2 -2 -4 -5 -3 -2 -5 -3 -5 -4 0 0
-2 -2 -5 -4 -3 -2 -6 -5 -6 -5 -4 -3 -18 -13 -22 -15 -1 0 -3 -2 -5 -3 -4 -2
-19 -10 -25 -13 -6 -3 -11 -5 -18 -7 -14 -4 -23 -7 -59 -15 -10 -2 -16 -3 -23
-6 -19 -6 -34 -16 -48 -30 -3 -3 -7 -7 -8 -8 -4 -5 -5 -7 -8 -11 -1 -2 -3 -4
-3 -4 0 0 -1 1 -1 3 0 3 -2 12 -2 14 -3 8 -5 15 -6 16 0 0 0 0 0 1 0 1 -4 10
-8 16 -6 12 -13 20 -22 28 -9 6 -21 13 -31 15 -1 1 -3 1 -3 2 -7 2 -25 3 -32
1 -9 -1 -15 -2 -20 -4 -5 -1 -12 -4 -15 -6 -19 -10 -23 -12 -31 -13 -6 -1 -13
-2 -18 -1 -5 0 -10 1 -15 2 -3 1 -12 6 -17 9 -5 2 -14 7 -18 8 -5 2 -10 4 -14
4 -2 1 -5 1 -6 2 -2 0 -8 0 -14 0 -9 0 -12 0 -16 -1 -6 -1 -12 -2 -15 -4 -2 0
-4 -1 -5 -1 -1 -1 -4 -2 -6 -3 -16 -8 -30 -20 -40 -37 -4 -7 -6 -13 -9 -19 -3
-9 -7 -22 -7 -28 -1 -3 -1 -5 -2 -4 0 0 -1 2 -2 4 -5 8 -10 13 -16 19 -4 4 -8
8 -10 10 -7 5 -16 11 -24 15 -10 5 -19 8 -37 12 -7 1 -14 2 -16 3 -2 1 -8 2
-11 3 -7 1 -14 3 -19 4 -1 0 -2 1 -3 1 -9 2 -17 5 -23 8 -1 1 -3 1 -3 1 0 0
-17 8 -23 11 -7 4 -13 8 -20 13 -3 2 -6 4 -7 5 -2 1 -15 12 -25 22 -4 2 -8 5
-9 7 -4 2 -10 4 -12 4 -1 0 -3 0 -5 -1z m9 -13 c2 0 3 -2 4 -2 1 -1 3 -3 6 -6
3 -2 6 -4 7 -5 12 -11 20 -18 32 -25 10 -7 13 -9 25 -14 4 -3 9 -5 10 -5 8 -4
23 -9 31 -12 13 -3 19 -4 27 -6 0 0 4 -1 6 -1 3 -1 7 -2 10 -2 7 -2 22 -6 26
-7 22 -7 40 -20 54 -38 7 -8 11 -14 16 -24 2 -4 2 -4 2 -8 0 -5 1 -13 1 -18 2
-10 3 -13 4 -19 2 -8 5 -18 7 -25 1 -4 2 -5 3 -6 0 -1 0 -2 1 -3 1 -3 4 -10 7
-17 9 -18 9 -19 11 -22 4 -13 6 -21 7 -35 1 -6 1 -9 0 -9 -1 -1 -10 -5 -18 -8
-13 -4 -29 -8 -43 -10 -7 0 -27 0 -34 0 -23 3 -42 9 -56 18 -4 3 -12 11 -13
14 -2 3 -2 6 -1 8 0 0 1 1 2 2 2 1 3 1 14 1 10 0 23 1 29 2 1 0 3 1 4 2 1 1 1
2 1 3 0 2 0 3 -2 4 -1 2 -2 2 -3 2 -2 0 -4 0 -6 0 -2 -1 -7 -1 -12 -1 -13 -1
-30 0 -40 3 -4 1 -14 4 -15 4 -1 1 -3 2 -4 2 -5 2 -9 5 -15 9 -14 9 -23 22
-23 35 0 2 0 3 1 4 2 2 6 3 13 3 6 0 7 0 13 -2 11 -3 17 -4 25 -5 2 -1 5 -1 6
-1 3 -1 18 -2 22 -2 4 0 6 1 7 2 1 2 2 5 1 7 -2 2 -3 2 -12 3 -10 0 -17 1 -27
3 -4 0 -11 2 -13 2 -1 1 -3 1 -5 2 -9 2 -26 10 -30 13 -1 1 -2 1 -2 1 0 0 -7
5 -11 8 -3 1 -7 5 -10 8 -11 11 -16 19 -20 31 -2 6 -3 12 -3 16 1 5 2 6 8 6 2
-1 5 -2 8 -2 4 -2 14 -5 15 -6 4 -3 22 -10 31 -13 13 -5 25 -7 35 -8 5 -1 7 0
8 2 1 3 1 6 -2 8 0 0 -4 1 -8 2 -7 1 -18 3 -25 5 -11 3 -27 11 -37 17 -7 4
-15 11 -22 17 -4 4 -8 9 -9 10 -6 7 -13 18 -17 26 -2 5 -4 11 -7 20 -2 6 -4
19 -4 26 0 7 2 16 3 18 1 1 3 1 6 -2z m891 1 c2 -1 3 -5 4 -12 0 -4 0 -7 0
-11 -2 -11 -3 -19 -6 -27 -2 -7 -5 -14 -9 -20 -1 -1 -1 -2 -2 -3 -2 -4 -8 -13
-9 -14 -1 0 -2 -2 -3 -3 -5 -6 -8 -9 -13 -14 -6 -5 -8 -6 -14 -10 -6 -4 -11
-7 -18 -10 -6 -3 -8 -4 -17 -7 -7 -3 -13 -4 -22 -6 -3 -1 -7 -1 -8 -2 -1 0 -3
0 -4 0 -4 0 -7 -3 -7 -6 0 -2 2 -4 3 -5 3 -1 16 1 30 4 4 1 16 5 21 7 2 1 7 4
12 6 14 7 24 10 32 11 3 1 4 1 5 0 1 0 2 -1 2 -2 0 -2 0 -9 0 -12 -1 -5 -4
-12 -6 -15 -1 -4 -6 -12 -9 -15 -6 -7 -14 -14 -21 -19 -7 -5 -17 -10 -25 -14
-2 -1 -4 -1 -4 -2 -3 -1 -13 -4 -19 -5 -7 -2 -10 -3 -16 -3 -10 -2 -13 -2 -19
-2 -4 0 -8 -1 -9 -1 -2 0 -4 -2 -4 -4 -1 -3 1 -5 2 -6 2 -1 7 -1 18 0 12 1 17
1 24 3 4 1 15 4 20 5 2 1 5 1 10 1 7 0 11 -1 13 -3 1 -1 1 -2 1 -4 0 -9 -6
-20 -14 -28 -6 -5 -7 -7 -13 -10 -9 -6 -18 -9 -30 -12 -9 -2 -15 -3 -27 -3
-11 -1 -16 0 -28 1 -2 0 -3 0 -4 0 -1 0 -2 -1 -3 -2 -1 -1 -1 -2 -1 -3 0 -3 1
-5 4 -6 4 -1 18 -2 29 -2 13 0 14 0 16 -3 2 -2 2 -4 0 -8 -1 -2 -3 -4 -5 -7
-3 -2 -6 -5 -8 -6 -7 -5 -17 -10 -28 -13 -6 -2 -8 -2 -15 -4 -11 -2 -17 -2
-30 -2 -10 0 -14 0 -21 1 -13 2 -27 5 -36 8 -8 2 -21 7 -21 8 -1 1 -1 2 -1 8
1 9 2 13 3 19 3 10 5 17 13 32 5 11 6 12 8 17 0 1 1 3 2 4 2 6 5 13 7 21 1 2
1 5 2 6 0 1 1 3 1 5 0 1 1 3 1 4 1 7 3 13 3 20 2 10 2 13 2 18 0 5 0 5 3 11 4
7 6 11 9 15 14 19 29 32 47 40 7 3 11 4 18 6 5 2 7 2 17 5 1 0 3 0 5 1 2 0 6
1 9 2 2 0 6 1 7 1 0 0 2 1 4 1 7 1 23 6 32 9 5 1 18 6 23 9 5 2 17 8 21 10 3
2 5 4 6 4 3 2 11 7 16 11 6 4 17 13 20 16 1 1 4 3 6 5 2 2 4 4 5 4 5 5 10 8
12 8 0 0 1 0 1 -1z m-526 -44 c3 0 6 -1 7 -1 4 -1 6 -1 9 -2 8 -3 14 -6 23
-11 7 -4 17 -8 25 -9 7 -2 9 -2 16 -2 7 0 14 1 19 2 3 1 10 3 13 5 3 1 11 5
12 6 1 1 13 6 16 7 11 4 18 5 29 5 7 0 9 0 14 -1 8 -2 12 -3 20 -7 8 -4 16
-10 22 -17 10 -10 17 -22 22 -38 1 -5 3 -10 4 -18 1 -3 2 -10 3 -18 0 -5 0 -9
0 -16 -1 -9 -2 -20 -4 -27 -2 -8 -2 -11 -3 -15 -3 -9 -7 -21 -11 -30 -1 -2 -4
-8 -7 -14 -6 -12 -9 -19 -11 -25 -1 -5 -3 -10 -3 -12 -2 -11 -3 -17 -4 -32 -1
-25 -3 -46 -7 -70 -4 -22 -7 -37 -12 -53 -3 -10 -8 -21 -13 -29 -7 -12 -12
-17 -18 -19 -3 -1 -4 -1 -6 0 -4 1 -8 5 -12 12 -2 5 -5 12 -7 22 -3 9 -3 10
-4 21 -1 5 -2 8 -3 12 0 2 -1 6 -1 7 -1 4 -1 7 -2 11 0 1 -1 4 -1 5 -4 19 -9
36 -14 47 -4 8 -7 13 -11 17 -4 3 -8 6 -12 7 -3 2 -5 2 -9 2 -5 0 -7 0 -9 -1
-4 -2 -10 -5 -13 -8 -3 -3 -8 -11 -11 -16 -4 -9 -6 -15 -10 -32 -2 -5 -4 -15
-5 -20 0 -2 -1 -5 -1 -8 -1 -3 -2 -7 -2 -8 0 -2 -1 -4 -1 -6 0 -1 -1 -4 -1 -5
0 -2 -1 -5 -1 -7 -1 -2 -1 -5 -2 -7 0 -1 -1 -6 -2 -9 -3 -15 -6 -21 -10 -28
-5 -8 -11 -10 -18 -7 -3 1 -8 6 -12 11 -2 3 -6 9 -9 15 -2 3 -7 17 -8 20 0 0
-2 6 -3 11 -2 5 -3 11 -4 13 -3 13 -7 34 -9 47 -2 18 -4 41 -4 54 0 7 -1 15
-2 23 -1 14 -5 26 -14 43 -7 15 -11 23 -13 31 -7 18 -11 36 -12 56 -1 8 -1 14
0 23 1 9 1 12 3 18 3 16 12 34 22 47 4 4 10 11 15 14 5 3 15 8 20 10 9 3 19 5
28 5 2 0 6 0 9 -1z"/>
</g>
</svg>