<?xml version="1.1" encoding="UTF-8"?>

<svg xmlns="http://www.w3.org/2000/svg" viewBox="0 0 1254 1254">

<g transform="translate(0,1254) scale(1,-1)" fill="#ffffff" stroke="#ffffff" stroke-width="12" stroke-linejoin="round" stroke-linecap="round">
<path fill="none" stroke="none" d="M606 1225 c-15 0 -35 -2 -57 -5 -22 -3 -60 -11 -81 -17 -3 -1 -5 -2
-6 -2 -6 -2 -26 -8 -36 -12 -8 -3 -27 -11 -34 -14 -2 -1 -5 -2 -5 -2 -4 -2
-27 -14 -32 -16 -9 -5 -27 -15 -33 -19 -16 -11 -26 -17 -38 -26 -12 -9 -13
-10 -30 -25 -3 -2 -4 -3 -10 -8 -8 -7 -17 -16 -22 -22 -9 -8 -22 -22 -28 -29
-2 -2 -4 -4 -4 -4 -1 -2 -11 -14 -16 -20 -4 -5 -10 -13 -17 -23 -6 -7 -19 -28
-26 -39 -12 -20 -29 -53 -38 -72 -14 -34 -24 -63 -32 -96 -5 -19 -10 -45 -12
-59 -3 -22 -4 -36 -6 -53 0 -12 0 -59 0 -72 2 -21 4 -43 8 -64 3 -19 10 -51
15 -70 8 -28 17 -52 28 -77 7 -16 20 -41 27 -54 2 -2 4 -6 5 -8 4 -7 8 -13 16
-25 10 -15 14 -21 21 -30 2 -2 5 -6 6 -8 2 -2 3 -4 4 -4 0 -1 2 -2 2 -3 1 -2
2 -3 3 -3 0 0 2 -3 4 -5 3 -3 5 -7 6 -8 1 0 4 -3 6 -6 7 -8 22 -23 33 -33 13
-14 32 -29 49 -42 3 -2 6 -5 7 -6 9 -7 25 -17 35 -24 10 -6 25 -15 35 -20 8
-5 31 -17 38 -20 2 -1 5 -2 8 -3 5 -3 23 -10 34 -14 10 -4 29 -10 38 -13 21
-6 42 -11 61 -14 3 -1 7 -1 10 -2 2 0 6 -1 8 -1 2 0 6 -1 10 -1 5 -1 9 -1 21
-2 13 -2 25 -2 48 -2 23 0 29 0 46 2 23 1 45 5 71 10 41 9 84 23 121 40 32 16
66 35 93 54 7 5 19 14 23 17 3 3 17 14 17 14 0 1 1 2 2 2 3 3 10 9 14 13 6 5
30 30 34 33 1 2 4 5 5 7 2 1 3 3 4 4 1 1 3 3 4 4 1 1 4 4 6 7 2 3 4 5 5 6 7 8
19 25 26 35 16 22 27 40 40 65 3 4 14 27 14 27 0 0 1 2 2 5 8 17 12 26 20 49
9 25 18 57 23 85 5 26 8 49 11 82 0 12 0 61 0 72 -2 26 -5 47 -8 68 -2 13 -6
32 -10 44 -7 27 -11 42 -21 69 -2 5 -8 21 -10 25 -17 39 -32 66 -53 98 -5 7
-11 15 -12 17 -1 1 -3 4 -4 5 -5 8 -10 13 -14 19 -3 4 -6 7 -6 8 -1 0 -5 5 -6
7 -1 1 -11 12 -13 15 -8 9 -28 29 -40 40 -8 8 -18 16 -29 25 -13 10 -14 11
-25 19 -18 13 -37 25 -55 35 -2 1 -5 2 -7 3 -3 2 -23 12 -27 14 -17 7 -35 15
-50 20 -10 4 -28 9 -35 11 -1 1 -4 1 -6 2 -10 3 -31 8 -45 10 -7 2 -19 4 -24
4 -2 1 -6 1 -9 2 -10 1 -18 2 -35 3 -9 1 -48 2 -60 1z m58 -15 c20 -2 33 -4
49 -6 2 0 4 -1 5 -1 1 0 3 0 4 0 1 -1 3 -1 5 -1 13 -3 32 -7 43 -10 1 0 5 -1
7 -2 15 -4 38 -12 54 -18 31 -12 58 -26 88 -44 26 -16 54 -37 76 -56 0 -1 3
-3 6 -5 13 -11 38 -38 51 -53 1 -1 2 -3 3 -3 0 0 1 -1 2 -2 0 -2 1 -3 2 -3 1
-1 19 -24 24 -32 1 -1 4 -5 6 -8 14 -21 32 -50 44 -75 7 -14 11 -22 16 -34 5
-12 5 -13 10 -26 9 -23 16 -47 21 -69 1 -3 1 -6 2 -8 0 -3 3 -18 5 -24 0 -1 0
-4 1 -5 0 -4 2 -14 2 -19 1 -4 1 -7 2 -16 1 -3 1 -7 1 -10 1 -4 1 -7 1 -9 1
-12 2 -30 2 -47 0 -21 -1 -35 -3 -55 0 -7 -3 -29 -4 -33 0 -2 0 -4 -1 -6 0 -2
0 -5 0 -6 -1 -1 -1 -4 -1 -5 -5 -25 -12 -51 -19 -75 -4 -11 -10 -29 -13 -36
-8 -20 -11 -27 -20 -45 -10 -19 -14 -28 -25 -45 -5 -8 -19 -30 -24 -36 -2 -3
-4 -6 -6 -8 -1 -3 -4 -7 -6 -9 -2 -3 -5 -6 -5 -7 -8 -9 -23 -28 -35 -40 -24
-25 -52 -50 -78 -68 -2 -2 -5 -3 -6 -4 -3 -3 -17 -12 -25 -17 -7 -4 -20 -13
-27 -16 -10 -5 -12 -7 -22 -12 -14 -7 -19 -9 -30 -14 -13 -5 -15 -6 -28 -11
-30 -11 -60 -19 -95 -25 -23 -5 -45 -7 -73 -9 -25 -1 -54 0 -82 4 -10 1 -13 1
-25 3 -9 2 -16 3 -28 5 -7 2 -19 5 -26 6 -2 1 -7 2 -9 3 -19 5 -47 15 -67 24
-10 4 -22 10 -35 16 -16 8 -27 15 -42 24 -20 12 -36 23 -57 40 -9 6 -20 16
-32 27 -8 6 -33 31 -38 37 -4 4 -9 10 -13 15 -8 8 -23 28 -31 39 -2 3 -6 8 -7
10 -2 3 -5 7 -7 10 -1 2 -4 6 -5 8 -2 3 -10 16 -12 20 -5 9 -10 18 -16 30 -7
13 -8 15 -13 27 -10 25 -21 54 -28 80 -4 15 -4 19 -8 34 -3 14 -5 29 -7 40 0
2 0 5 0 7 -1 3 -1 7 -2 19 -3 23 -4 59 -3 81 1 13 2 25 3 30 1 14 2 21 3 26 0
1 0 5 1 7 0 6 5 31 7 40 0 0 1 2 1 4 0 2 5 19 6 25 4 13 11 36 16 50 3 8 9 22
12 28 1 2 2 6 4 9 3 6 13 27 16 33 9 17 18 32 23 40 10 14 20 30 27 39 10 13
12 15 19 24 6 8 7 9 10 12 1 1 4 4 5 6 10 11 35 35 48 47 2 2 5 4 5 5 8 6 28
22 42 32 9 6 21 15 32 21 3 2 7 4 8 5 4 2 25 14 34 18 16 8 22 11 36 17 13 5
23 8 36 13 13 4 23 7 38 11 19 5 36 8 64 12 12 2 39 5 52 5 10 1 52 0 59 0z"/>
<path d="M616 1072 c-11 0 -27 -1 -38 -3 -9 -1 -12 -1 -14 -2 -2 0 -5 0 -7 -1
-8 -1 -19 -3 -26 -5 -13 -3 -19 -5 -27 -8 -2 -1 -5 -2 -5 -2 -4 -2 -14 -7 -21
-11 -4 -2 -12 -8 -16 -13 -8 -8 -12 -15 -14 -23 -1 -2 -1 -11 -1 -44 0 -42 0
-42 1 -46 2 -5 4 -10 7 -13 2 -3 8 -8 11 -12 2 -1 2 -1 2 -12 0 -11 0 -11 -5
-18 -3 -4 -6 -8 -7 -9 -4 -6 -6 -14 -5 -20 0 -4 2 -8 4 -12 2 -4 9 -11 15 -14
4 -3 4 -3 4 -8 0 -5 0 -5 -6 -11 -6 -7 -10 -13 -13 -17 -2 -4 -2 -7 -2 -12 0
-5 0 -6 1 -9 2 -5 6 -10 12 -15 1 -1 5 -3 7 -5 5 -4 5 -4 6 -6 0 -1 0 -3 -1
-4 0 0 -2 -3 -5 -5 -7 -9 -12 -14 -14 -18 -3 -5 -3 -7 -3 -13 0 -4 0 -5 1 -8
2 -4 4 -7 8 -11 3 -4 8 -7 14 -10 4 -3 4 -3 4 -6 0 -3 0 -3 -2 -5 -1 -1 -4 -4
-6 -7 -3 -3 -7 -7 -8 -8 -3 -4 -5 -9 -6 -12 -1 -3 -2 -8 -1 -11 1 -4 3 -10 7
-13 3 -4 10 -9 12 -11 1 0 3 -1 5 -2 4 -3 4 -3 4 -5 0 -3 0 -3 -8 -11 -8 -9
-12 -14 -14 -19 -2 -6 -2 -13 1 -19 3 -7 11 -14 19 -19 2 -1 4 -2 5 -2 1 -2 1
-6 -1 -8 -1 0 -3 -3 -5 -5 -3 -3 -6 -6 -7 -7 -2 -3 -5 -7 -6 -10 -2 -4 -3 -8
-3 -12 0 -6 3 -13 10 -19 3 -4 6 -6 11 -9 4 -2 6 -4 6 -4 0 -3 -2 -5 -5 -9 -9
-9 -13 -14 -16 -19 0 -1 -1 -4 -1 -7 -1 -4 -1 -4 0 -8 0 -2 1 -4 1 -5 3 -6 10
-13 19 -19 7 -5 7 -5 -1 -14 -9 -9 -11 -13 -13 -19 0 -2 -1 -4 0 -7 0 -3 0 -5
1 -8 1 -1 3 -4 3 -5 3 -4 7 -8 11 -11 4 -3 4 -3 3 -8 0 -3 0 -11 0 -17 1 -10
1 -12 2 -16 2 -7 6 -14 10 -19 1 -2 3 -5 5 -8 4 -10 7 -14 13 -21 8 -10 17
-18 28 -25 7 -4 15 -8 22 -10 7 -2 10 -3 17 -5 12 -2 19 -3 34 -3 10 0 18 1
26 2 1 0 4 1 6 1 3 1 13 3 17 4 14 5 29 13 40 23 8 6 15 15 20 23 1 3 4 8 6
11 2 5 4 8 7 11 6 7 11 16 13 25 0 2 0 11 0 27 1 24 1 24 5 28 7 8 14 17 17
24 1 3 2 9 2 13 0 9 -4 19 -12 28 -1 2 -2 4 -3 5 0 1 0 1 3 5 7 9 10 14 12 20
2 4 2 6 2 10 0 6 -1 11 -4 17 -2 4 -4 6 -9 13 -1 2 -3 5 -3 5 0 1 2 3 4 6 7 7
11 13 13 20 1 3 1 4 1 9 0 5 0 7 -1 10 -2 6 -4 9 -12 21 -2 2 -3 4 -3 4 0 1 2
3 5 6 5 5 9 11 12 16 2 5 3 10 3 16 0 5 -1 9 -4 14 -2 4 -4 6 -8 13 -2 2 -4 5
-4 6 -1 1 -1 1 4 6 3 3 6 6 7 8 4 4 6 10 8 15 1 4 1 8 1 11 -2 7 -5 14 -11 22
-6 8 -6 10 -6 11 0 1 0 2 1 3 4 4 9 9 12 13 4 7 6 12 6 19 0 9 -2 14 -14 31
-4 5 -3 6 2 11 7 8 12 16 14 22 0 2 0 5 0 8 0 4 0 6 -1 9 -2 5 -5 12 -10 19
-3 4 -5 8 -5 9 0 1 1 3 3 5 7 7 11 14 13 20 1 6 1 12 0 17 -2 5 -5 11 -9 17
-3 5 -3 5 -3 10 0 5 0 5 4 9 6 7 8 10 11 16 2 6 2 5 2 49 0 42 0 42 -1 45 -4
13 -13 23 -28 33 -7 4 -16 9 -26 13 -17 7 -35 12 -60 15 -3 1 -6 1 -15 2 -17
2 -42 4 -63 3z m42 -12 c15 -2 25 -3 35 -4 2 -1 5 -1 6 -2 7 -1 18 -3 28 -6
11 -2 24 -7 33 -12 11 -5 17 -9 23 -15 8 -7 11 -14 11 -22 0 -7 -3 -14 -11
-21 -4 -5 -12 -10 -20 -14 -12 -7 -34 -14 -52 -18 -5 -1 -19 -4 -24 -4 -4 -1
-21 -3 -30 -4 -10 0 -43 0 -54 0 -11 1 -27 3 -34 4 -11 1 -24 4 -33 6 -22 6
-38 13 -52 22 -12 8 -20 17 -21 26 -1 9 2 17 11 26 2 2 6 5 9 6 11 8 24 14 42
19 22 6 45 10 74 12 4 1 10 1 12 1 7 1 41 0 47 0z m-186 -97 c6 -4 14 -9 22
-13 6 -3 21 -8 28 -10 25 -7 49 -11 79 -13 12 -1 44 -1 55 0 18 1 30 3 46 5
12 2 20 4 32 8 22 6 40 15 52 25 3 2 7 5 8 7 3 3 3 3 3 -1 0 -3 0 -15 0 -28 0
-23 0 -23 -1 -26 -5 -11 -15 -20 -32 -28 -8 -4 -11 -5 -20 -9 -11 -4 -23 -7
-38 -10 -17 -3 -27 -5 -51 -7 -9 0 -51 0 -60 0 -18 2 -23 3 -28 4 -11 1 -10 1
-19 3 -17 3 -31 7 -45 13 -12 4 -24 11 -31 17 -5 4 -9 9 -11 13 -3 6 -3 9 -3
38 0 13 0 24 0 25 0 0 3 -2 5 -5 3 -2 7 -6 9 -8z m308 -80 c0 -1 1 -3 1 -4 0
0 2 -4 5 -8 3 -4 5 -9 6 -10 3 -7 3 -13 -2 -20 -4 -7 -14 -17 -25 -24 -10 -6
-25 -13 -40 -18 -20 -6 -44 -11 -66 -13 -16 -2 -20 -2 -42 -2 -24 0 -30 0 -48
2 -18 2 -33 5 -51 10 -7 1 -16 4 -18 6 -1 0 -1 0 -1 0 -2 0 -17 7 -21 10 -5 3
-10 7 -12 10 -5 8 -5 14 0 22 1 2 4 6 6 9 3 3 5 7 6 8 1 2 1 3 1 10 0 5 0 9 0
9 1 0 4 -1 8 -3 19 -9 45 -17 71 -21 22 -3 42 -5 67 -5 10 0 21 0 25 1 17 1
26 2 33 3 5 0 16 2 19 2 1 1 3 1 5 1 1 1 4 1 5 1 1 1 5 2 9 3 6 1 9 2 19 5 9
2 22 8 29 11 6 3 9 5 10 6 1 0 1 0 1 -1z m4 -81 c3 -5 6 -10 7 -11 2 -5 2 -6
2 -10 0 -5 -1 -8 -4 -13 -4 -6 -7 -9 -13 -14 -13 -11 -31 -21 -54 -28 -24 -8
-49 -13 -79 -15 -13 -1 -45 -1 -59 0 -26 2 -43 4 -64 10 -13 3 -25 7 -34 12
-10 5 -18 12 -21 17 -1 2 -1 3 -1 6 0 3 0 4 1 6 1 3 5 8 10 13 1 2 4 5 5 7 2
1 4 4 4 5 1 1 1 3 1 4 0 2 1 3 1 3 0 1 2 0 4 -1 10 -4 17 -6 25 -8 1 -1 3 -1
5 -2 6 -2 23 -5 31 -6 1 0 4 -1 5 -1 3 0 8 -1 17 -2 11 -1 29 -2 44 -2 18 0
36 1 51 3 15 2 38 7 51 11 7 2 21 6 23 7 1 1 3 1 4 2 4 2 6 2 13 6 4 2 10 5
13 7 2 2 5 3 5 3 0 0 3 -4 7 -9z m-4 -71 c9 -12 11 -16 11 -22 0 -4 -1 -8 -5
-13 -2 -4 -11 -12 -16 -16 -8 -6 -17 -12 -27 -17 -3 -1 -5 -2 -5 -2 0 0 -2 -1
-4 -1 -2 -1 -3 -2 -4 -2 0 0 0 0 -1 0 -1 -1 -20 -7 -28 -9 -8 -3 -14 -4 -17
-4 -2 -1 -4 -1 -4 -1 -10 -2 -27 -4 -42 -6 -10 0 -47 0 -56 0 -21 2 -33 4 -45
6 -8 2 -10 2 -12 3 -1 0 -4 1 -6 1 -5 2 -10 3 -13 4 -9 4 -11 5 -15 6 -6 3
-10 5 -14 9 -4 3 -7 6 -9 9 -1 1 -1 3 -1 5 0 2 0 4 1 5 0 2 4 7 6 9 2 3 6 8
10 12 4 4 6 7 6 10 0 1 1 1 3 0 6 -2 20 -7 30 -9 22 -5 42 -8 71 -9 16 -1 20
-1 33 -1 16 1 24 2 33 3 17 2 32 5 47 8 9 2 26 8 35 12 12 5 26 13 31 16 1 1
1 1 2 1 0 0 3 -3 5 -7z m-3 -70 c6 -8 7 -10 9 -14 2 -4 2 -4 2 -9 0 -5 0 -6
-1 -8 -4 -9 -15 -19 -28 -28 -4 -3 -14 -9 -19 -11 -9 -5 -27 -11 -38 -14 -28
-8 -55 -12 -87 -12 -32 -1 -60 2 -84 7 -4 1 -6 2 -13 4 -8 2 -19 6 -26 9 -9 5
-18 12 -20 17 -1 2 -1 3 -1 6 0 5 3 9 12 19 5 5 10 10 10 11 1 1 1 2 1 3 0 2
0 3 1 3 0 0 4 -1 9 -3 4 -1 9 -3 10 -3 1 0 4 -1 7 -2 14 -4 31 -6 48 -8 10 -1
31 -2 41 -2 13 0 33 1 46 3 12 1 30 4 43 7 12 3 30 9 38 13 2 0 4 1 5 1 10 5
23 12 28 16 1 0 2 1 2 1 1 0 3 -3 5 -6z m-2 -73 c7 -10 10 -16 10 -22 0 -2 -2
-8 -3 -10 -4 -7 -13 -16 -22 -23 -9 -7 -26 -16 -38 -21 -18 -7 -42 -13 -63
-16 -21 -4 -31 -4 -54 -4 -20 0 -24 0 -42 2 -2 0 -8 1 -12 2 -20 3 -38 8 -50
14 -12 5 -20 12 -24 17 -1 2 -1 3 -1 7 0 3 0 4 1 6 2 3 6 8 14 16 6 6 8 9 8
12 0 1 0 2 0 2 1 0 2 -1 3 -1 10 -4 31 -9 44 -11 7 -2 13 -2 20 -3 15 -1 27
-2 40 -2 14 0 19 0 35 2 13 1 29 3 37 4 1 1 3 1 4 1 7 2 17 4 24 6 5 1 19 6
24 8 14 6 26 12 35 18 2 1 4 3 4 3 1 0 3 -4 6 -7z m-8 -66 c0 0 2 -3 5 -6 3
-5 7 -10 9 -15 0 -1 0 -4 0 -6 0 -3 0 -5 -1 -7 -1 -2 -3 -6 -5 -8 -7 -10 -18
-19 -33 -28 -4 -3 -16 -9 -20 -10 -2 -1 -4 -2 -4 -2 -6 -3 -17 -7 -24 -9 -1 0
-3 0 -3 -1 -2 0 -15 -3 -21 -4 -6 -2 -20 -4 -28 -4 -2 -1 -7 -1 -9 -2 -3 0
-11 0 -18 -1 -9 0 -16 0 -24 0 -17 1 -25 2 -41 5 -8 1 -10 1 -16 3 -8 2 -8 2
-13 4 -16 5 -28 12 -35 19 -4 4 -6 7 -6 11 0 5 4 10 14 21 7 7 9 11 9 13 0 1
0 1 1 1 0 0 3 -1 7 -2 16 -6 38 -10 55 -12 21 -2 40 -2 58 -2 10 1 15 2 29 3
12 2 20 3 34 7 11 2 16 4 28 8 9 3 12 4 17 6 2 1 4 2 4 2 0 0 3 1 6 3 7 4 16
9 20 12 3 2 5 3 5 1z m0 -72 c8 -10 12 -18 12 -25 0 -3 0 -5 -3 -9 -2 -6 -5
-9 -11 -16 -10 -9 -22 -18 -36 -25 -11 -6 -23 -11 -37 -15 -7 -2 -21 -6 -29
-7 -9 -2 -23 -4 -34 -5 -10 0 -37 0 -46 0 -23 2 -42 6 -59 12 -11 3 -20 7 -27
12 -3 3 -9 8 -11 10 0 1 -1 3 -1 5 -1 2 -1 3 0 5 1 5 3 8 11 17 7 8 9 10 10
12 1 1 1 2 2 2 0 0 1 0 1 0 3 -1 10 -4 12 -4 2 -1 3 -1 9 -2 7 -3 18 -5 27 -6
16 -2 28 -3 47 -3 20 0 33 1 54 4 20 3 45 10 64 17 12 5 27 13 37 20 2 2 5 4
5 4 1 0 2 -1 3 -3z m-2 -69 c0 -1 1 -2 2 -2 1 -2 6 -8 7 -10 1 -4 3 -10 3 -13
0 -4 -3 -12 -8 -18 -3 -5 -14 -15 -21 -20 -13 -10 -28 -18 -42 -24 -3 -1 -8
-3 -9 -3 -7 -3 -24 -7 -36 -9 -2 -1 -4 -1 -10 -2 -6 -1 -17 -2 -28 -3 -9 0
-14 0 -23 0 -12 1 -18 2 -25 3 -18 2 -35 6 -49 12 -8 4 -13 6 -17 9 -9 6 -15
12 -17 16 -1 2 -1 3 -1 6 0 2 1 4 1 5 1 2 5 7 9 11 5 6 9 11 9 12 0 0 1 1 1 1
1 0 2 0 3 -1 6 -2 20 -7 29 -8 11 -3 16 -3 20 -4 12 -1 19 -2 32 -3 11 0 17 0
24 0 17 1 24 2 36 4 23 4 50 11 68 19 8 4 15 8 19 10 6 4 16 10 19 12 0 1 2 2
2 2 0 0 1 -1 2 -2z m-12 -94 c0 -20 0 -20 -3 -28 -2 -5 -5 -8 -9 -13 -8 -8
-16 -14 -28 -20 -7 -3 -18 -7 -25 -9 -13 -4 -24 -6 -41 -8 -7 0 -35 0 -42 0
-3 1 -8 1 -10 2 -3 0 -6 0 -7 0 -1 1 -4 1 -5 1 -4 1 -5 1 -13 3 -7 2 -12 4
-17 6 -15 6 -22 10 -29 18 -4 4 -8 9 -10 13 -1 2 -2 6 -3 8 -1 5 -1 6 -1 16 0
5 0 10 0 10 0 0 2 0 3 -1 16 -8 36 -13 57 -16 14 -3 23 -3 41 -3 18 0 25 0 45
3 5 1 17 3 26 6 8 2 22 6 30 9 12 5 27 13 36 19 2 2 4 3 4 3 1 0 1 -7 1 -19z
m-30 -69 c0 0 -2 -2 -4 -5 -6 -7 -14 -14 -22 -19 -8 -4 -15 -8 -22 -10 -9 -3
-15 -4 -29 -7 -6 -1 -29 0 -37 1 -7 1 -12 2 -18 3 -11 3 -17 6 -26 11 -6 3
-11 7 -16 11 -5 4 -11 10 -10 11 0 0 1 0 3 -1 3 -2 14 -6 18 -7 9 -2 13 -3 22
-5 2 0 4 -1 6 -1 3 -1 9 -1 21 -2 10 -1 23 -1 32 -1 16 2 22 3 33 5 2 0 5 1 6
1 5 1 23 6 29 9 1 1 3 1 4 2 1 0 4 1 5 2 4 2 5 2 5 2z"/>
<path d="M609 1051 c-7 0 -24 -2 -30 -3 -25 -3 -38 -7 -53 -12 -13 -6 -25 -14
-29 -21 -3 -4 -4 -7 -4 -12 -1 -4 0 -5 0 -8 2 -4 5 -8 8 -12 4 -4 9 -7 16 -10
6 -4 10 -6 20 -9 11 -4 27 -7 41 -9 23 -3 29 -3 51 -3 21 0 27 0 45 3 16 1 33
5 46 9 8 3 13 5 20 9 8 4 11 6 16 11 4 4 5 6 6 8 1 2 2 5 2 7 1 3 1 4 0 7 0 2
-1 5 -2 6 -1 4 -7 10 -12 14 -3 2 -16 9 -21 11 -14 4 -20 6 -33 8 -13 3 -16 3
-26 4 -3 1 -8 1 -11 2 -5 0 -42 1 -50 0z m39 -12 c14 -1 25 -2 34 -3 2 0 4 -1
6 -1 5 -1 17 -3 21 -5 1 0 3 -1 6 -1 5 -2 15 -6 20 -8 9 -5 16 -11 18 -16 0
-1 0 -3 0 -3 0 -3 -1 -6 -4 -9 -5 -5 -14 -10 -23 -14 -6 -3 -18 -6 -25 -8 -5
-1 -19 -4 -26 -5 -17 -2 -40 -3 -58 -3 -15 1 -22 2 -33 3 -25 3 -44 8 -59 16
-7 3 -12 6 -16 9 -5 5 -6 9 -5 13 0 2 2 4 3 6 5 6 14 11 30 17 2 1 5 2 6 2 6
2 15 4 18 4 1 1 4 1 5 2 9 2 24 3 42 4 15 1 25 1 40 0z"/>
</g>
</svg>