<?xml version="1.1" encoding="UTF-8"?>

<svg xmlns="http://www.w3.org/2000/svg" viewBox="90 90 1074 1074">

<g transform="translate(0,1254) scale(1,-1)" fill="none" stroke="#ffffff" stroke-width="12" stroke-linejoin="round" stroke-linecap="round">
<path d="M601 1183 c-27 -1 -51 -4 -76 -9 -25 -5 -48 -12 -71 -19 -16 -6 -33 -12 -45 -18 -1 0 -5 -2 -7 -3 -9 -4 -36 -18 -42 -22 -2 -1 -5 -3 -8 -4 -12 -8 -25 -16 -41 -28 -5 -3 -18 -13 -23 -17 -16 -13 -33 -29 -50 -46 -7 -8 -13 -15 -18 -20 -8 -10 -14 -16 -18 -22 -10 -13 -13 -17 -23 -31 -11 -18 -18 -29 -27 -46 -14 -26 -25 -52 -36 -81 -4 -12 -10 -34 -14 -48 -8 -31 -13 -64 -16 -96 0 -12 0 -57 0 -68 2 -20 5 -45 7 -57 1 -2 1 -6 2 -9 5 -27 13 -58 23 -85 4 -9 6 -14 7 -17 2 -5 5 -12 5 -12 0 0 1 -3 2 -5 1 -3 3 -6 4 -8 1 -4 10 -22 14 -28 5 -9 15 -26 18 -31 1 -2 2 -3 2 -3 0 -1 13 -20 15 -22 0 -1 3 -5 6 -9 3 -4 6 -7 6 -8 5 -6 18 -22 26 -31 9 -10 34 -35 43 -43 14 -13 35 -29 49 -39 3 -2 8 -5 10 -7 3 -2 7 -5 10 -7 2 -1 5 -3 7 -4 8 -5 11 -7 11 -7 0 0 2 -1 5 -3 5 -3 7 -4 14 -8 3 -1 5 -2 5 -3 1 0 23 -11 26 -12 1 -1 4 -2 7 -3 2 -1 7 -4 10 -5 3 -1 7 -3 8 -3 2 -1 5 -2 10 -4 3 -1 7 -3 10 -4 7 -3 23 -8 33 -11 21 -6 41 -10 63 -14 19 -3 31 -5 56 -7 11 0 46 0 58 0 9 1 22 2 28 3 2 0 5 1 7 1 5 0 12 1 24 4 20 3 36 7 56 12 17 5 44 15 54 19 1 1 5 2 8 4 3 1 8 3 11 4 3 2 5 3 5 3 1 0 27 13 30 15 2 1 4 2 6 3 2 1 5 3 6 4 1 0 3 1 3 1 0 0 3 2 7 4 3 2 7 5 8 5 8 4 29 19 39 27 21 15 31 24 48 41 14 12 36 36 45 47 8 10 10 12 13 16 0 1 2 2 2 2 2 3 5 8 9 12 2 3 4 6 5 8 4 5 21 31 21 32 0 0 1 2 3 5 1 2 2 4 2 4 0 0 1 1 2 3 3 6 6 11 11 21 8 17 10 20 17 37 5 12 10 26 14 38 3 10 6 21 7 24 0 1 1 3 1 5 1 1 1 4 2 5 1 5 4 21 6 28 1 3 2 9 2 12 3 14 6 38 7 59 1 16 1 52 0 66 -2 29 -5 54 -11 81 -7 32 -18 67 -30 95 -8 18 -13 31 -23 49 -7 13 -18 33 -24 42 -1 1 -3 3 -4 5 -1 2 -4 6 -6 9 -1 2 -5 7 -7 10 -4 6 -18 24 -21 28 -1 1 -4 5 -8 9 -10 11 -20 23 -30 33 -10 9 -15 14 -20 18 -2 2 -4 4 -4 4 -5 4 -20 17 -31 25 -13 10 -36 24 -49 33 -6 3 -7 4 -12 6 -3 2 -7 4 -9 5 -4 2 -20 10 -29 14 -29 14 -64 26 -97 33 -33 8 -61 12 -95 14 -10 1 -47 1 -56 0z m57 -13 c6 0 12 -1 14 -1 1 0 4 0 8 -1 10 0 23 -2 34 -4 8 -1 18 -3 22 -4 1 -1 4 -1 5 -2 5 -1 22 -5 30 -7 11 -3 28 -9 39 -13 9 -3 25 -10 35 -14 4 -2 24 -12 27 -14 2 -1 4 -2 6 -3 1 -1 3 -2 4 -2 1 -1 3 -2 4 -3 9 -5 26 -15 37 -22 7 -5 26 -19 29 -22 2 -1 5 -4 7 -6 5 -3 13 -11 17 -14 2 -2 4 -4 6 -5 6 -7 29 -29 35 -36 9 -11 24 -29 32 -40 5 -7 18 -25 22 -32 22 -35 35 -63 49 -97 3 -10 12 -37 15 -45 5 -20 8 -32 10 -43 1 -3 2 -7 2 -11 2 -7 4 -23 5 -33 2 -14 3 -29 4 -44 0 -12 0 -19 0 -30 -2 -33 -4 -53 -10 -85 -4 -21 -11 -47 -18 -69 -4 -11 -16 -39 -21 -50 -3 -8 -8 -18 -8 -18 -1 0 -2 1 -9 9 -2 2 -6 6 -9 10 -4 3 -9 9 -11 12 -3 3 -7 7 -8 9 -2 1 -5 5 -7 8 -3 2 -6 5 -6 6 0 0 -2 1 -3 3 -1 1 -4 4 -7 8 -5 5 -10 10 -20 22 -3 3 -7 8 -11 11 -3 4 -8 9 -11 13 -3 3 -6 6 -6 7 0 0 -4 4 -9 10 -5 5 -8 9 -8 9 -1 0 -4 4 -8 8 -4 5 -8 9 -9 10 -3 3 -10 12 -11 12 0 1 -1 2 -3 4 -2 1 -5 5 -7 7 -2 3 -7 8 -10 12 -7 7 -16 17 -25 27 -3 3 -5 6 -5 6 -1 0 -2 1 -3 3 -2 2 -4 4 -5 6 -2 1 -4 3 -4 4 -1 1 -3 3 -4 5 -2 1 -6 6 -11 12 -5 5 -9 9 -9 10 -2 1 -7 4 -12 7 -2 1 -4 2 -5 3 -5 2 -11 6 -13 7 -2 1 -4 2 -5 3 -1 0 -3 1 -5 2 -1 1 -3 2 -4 3 -1 0 -4 2 -10 5 -2 1 -4 2 -4 3 -1 0 -2 1 -4 2 -2 1 -4 2 -5 3 -1 1 -3 3 -13 7 -5 3 -10 6 -12 7 -2 1 -8 4 -14 7 -5 3 -11 6 -13 7 -5 3 -14 8 -17 9 -2 1 -7 4 -11 6 -4 2 -7 4 -8 4 0 1 -4 3 -12 7 -3 2 -6 3 -6 4 -1 0 -3 1 -6 2 -4 3 -5 3 -8 3 -4 0 -7 -1 -13 -5 -5 -3 -3 -4 -14 8 -2 2 -7 7 -11 11 -3 4 -7 8 -8 10 -3 3 -6 9 -8 20 -2 7 -3 13 -4 16 -2 5 -4 12 -4 14 0 1 -1 4 -1 6 -1 2 -2 6 -3 8 0 3 -1 6 -2 8 -1 3 -2 7 -5 21 -1 3 -3 9 -3 12 -1 3 -3 12 -5 19 -4 16 -7 27 -9 33 -1 3 -3 14 -6 24 -3 11 -6 22 -6 26 -4 12 -8 20 -16 27 -4 3 -6 5 -10 7 -11 6 -22 6 -34 3 -5 -2 -9 -4 -17 -8 -1 0 -4 -1 -7 -2 -5 -3 -7 -3 -12 -6 -2 0 -3 -1 -3 -1 0 0 -2 -1 -3 -1 -5 -2 -13 -6 -20 -9 -2 -1 -5 -2 -7 -3 -2 -1 -6 -3 -11 -5 -5 -2 -9 -4 -11 -5 -2 -1 -9 -4 -16 -7 -7 -3 -15 -7 -17 -7 -2 -1 -6 -3 -9 -5 -3 -1 -9 -4 -14 -6 -5 -2 -12 -5 -15 -7 -3 -1 -7 -3 -9 -4 -2 -1 -5 -2 -7 -3 -2 -1 -4 -2 -5 -2 0 -1 0 -1 -1 -1 0 0 -3 -1 -6 -3 -4 -2 -7 -3 -7 -3 0 0 -5 -2 -11 -5 -11 -5 -22 -10 -35 -16 -4 -2 -9 -4 -10 -5 -2 -1 -5 -2 -6 -3 -2 0 -6 -2 -9 -3 -3 -2 -7 -4 -8 -4 -2 -1 -4 -2 -5 -3 -2 0 -4 -1 -6 -2 -4 -2 -5 -4 -5 -7 0 -5 2 -8 6 -8 2 0 8 2 22 8 11 4 23 9 27 11 4 2 13 5 19 8 6 2 18 7 26 10 8 3 16 6 17 7 0 0 3 1 5 2 4 1 50 20 55 22 2 1 5 2 8 3 3 1 6 3 8 3 1 1 4 2 6 3 2 1 5 2 6 2 2 1 16 7 16 7 0 0 1 1 3 1 1 1 6 3 10 4 7 3 15 7 19 9 1 0 5 2 9 3 3 1 7 3 8 4 1 0 4 1 5 2 1 0 4 1 5 1 3 2 17 8 20 8 1 1 3 1 5 1 5 0 8 -1 12 -5 1 -1 3 -3 4 -4 1 -2 3 -7 4 -11 1 -2 2 -7 4 -13 1 -6 3 -12 3 -14 2 -4 4 -16 5 -18 0 -1 1 -4 1 -6 1 -2 3 -9 4 -15 2 -7 5 -17 6 -22 1 -5 3 -11 3 -13 1 -2 1 -4 2 -6 0 -2 1 -4 1 -5 0 -1 2 -6 3 -12 1 -5 3 -11 3 -11 0 -1 2 -9 4 -16 3 -13 5 -19 6 -24 0 -1 1 -3 1 -4 1 -3 1 -3 2 -10 1 -4 2 -8 2 -8 1 -1 1 -3 2 -5 1 -4 1 -7 3 -10 2 -3 6 -8 19 -21 2 -3 5 -6 6 -7 1 -1 4 -5 6 -7 5 -5 5 -5 4 -8 -1 -1 -2 -3 -3 -4 -1 -4 -1 -8 2 -12 1 -4 3 -6 5 -11 0 -1 1 -4 3 -6 1 -3 2 -6 3 -7 1 -5 3 -7 5 -12 1 -2 2 -5 2 -5 0 0 2 -5 5 -10 1 -3 2 -5 2 -5 0 0 1 -2 2 -4 1 -3 2 -5 3 -7 0 -1 5 -12 11 -24 11 -21 18 -35 23 -46 1 -3 4 -10 7 -14 2 -5 5 -11 6 -14 6 -12 6 -12 13 -20 4 -5 10 -11 12 -14 3 -2 9 -9 14 -15 9 -10 15 -17 19 -21 1 -1 3 -3 4 -4 1 -2 3 -5 6 -7 2 -2 4 -5 5 -6 1 -1 1 -2 1 -2 1 0 2 -1 3 -2 1 -2 3 -5 5 -7 2 -2 5 -5 6 -6 0 -1 1 -2 1 -2 1 0 2 -1 3 -3 1 -1 4 -4 6 -7 6 -6 13 -14 16 -17 1 -2 3 -4 5 -6 1 -1 2 -3 3 -4 1 -1 3 -3 4 -4 1 -2 7 -8 13 -15 6 -7 11 -13 11 -13 1 0 2 -2 4 -4 4 -4 4 -5 13 -14 3 -4 7 -8 8 -10 1 -1 3 -4 5 -6 2 -2 5 -5 7 -8 3 -3 5 -6 6 -6 1 -1 3 -4 5 -6 2 -2 7 -8 12 -13 4 -5 9 -11 11 -13 6 -7 17 -19 20 -22 1 -2 3 -4 4 -5 1 -1 3 -4 6 -7 2 -2 3 -4 4 -4 0 0 1 -2 3 -4 2 -2 3 -4 4 -4 1 -2 5 -7 5 -7 -1 -1 -24 -20 -37 -30 -9 -6 -25 -17 -32 -22 -2 -1 -5 -3 -8 -5 -5 -3 -16 -9 -24 -14 -7 -3 -26 -13 -27 -13 0 0 -3 -1 -6 -3 -4 -2 -9 -4 -11 -5 -3 -1 -7 -3 -10 -4 -12 -5 -39 -15 -52 -18 -19 -6 -36 -10 -54 -13 -18 -3 -29 -5 -50 -6 -19 -2 -41 -2 -60 -1 -26 1 -47 4 -77 10 -22 4 -53 12 -72 19 -21 8 -38 15 -58 25 -7 3 -20 10 -24 12 -1 1 -3 2 -3 2 0 0 -3 2 -6 3 -24 15 -36 23 -57 38 -6 5 -22 18 -24 20 -1 0 -4 3 -7 6 -7 6 -13 11 -24 22 -12 12 -15 16 -24 26 -12 14 -19 23 -28 34 -6 9 -9 13 -17 24 -6 9 -8 13 -11 17 0 1 -2 4 -3 6 -2 3 -4 6 -5 8 -1 2 -3 5 -4 8 -3 4 -11 21 -15 29 -7 15 -17 41 -23 60 -7 20 -12 40 -16 59 -2 13 -4 25 -6 42 -1 9 -3 28 -4 44 -1 23 1 57 5 85 1 8 3 17 4 23 4 23 7 32 11 50 3 10 11 34 14 41 0 1 2 5 3 9 2 6 8 20 11 26 1 2 2 4 2 5 1 1 4 7 7 13 20 42 46 80 77 116 3 3 7 7 8 9 7 8 28 28 35 34 4 3 7 7 8 7 0 1 2 2 4 4 2 2 6 4 7 6 2 2 6 5 10 7 5 4 7 6 19 15 7 5 24 16 36 23 6 4 11 7 11 7 0 0 2 1 5 3 5 3 22 11 30 15 18 8 35 15 55 22 20 7 39 12 60 16 4 1 9 2 11 2 14 3 41 7 59 9 16 1 20 1 38 1 11 0 22 0 30 -1z m-122 -144 c4 -1 9 -4 11 -5 4 -3 7 -7 10 -10 4 -8 6 -11 9 -23 5 -19 9 -34 10 -37 1 -6 2 -11 3 -16 1 -2 2 -5 2 -7 3 -11 6 -22 7 -26 0 -2 1 -4 3 -11 1 -4 3 -11 5 -21 1 -4 3 -9 3 -11 2 -8 3 -12 6 -21 1 -6 3 -12 3 -14 1 -1 2 -7 3 -11 5 -19 6 -20 8 -24 2 -4 5 -8 15 -19 5 -5 10 -10 12 -12 1 -1 3 -3 3 -4 1 -1 1 -1 1 -1 0 -1 -2 -4 -6 -7 -5 -6 -5 -6 -8 -3 -2 1 -4 4 -6 6 -1 2 -4 5 -6 6 -1 2 -4 6 -7 8 -8 8 -9 9 -11 12 -3 4 -4 7 -8 24 -1 6 -1 7 -3 14 -1 3 -2 7 -2 8 0 2 -8 30 -11 42 -1 4 -4 15 -14 55 -2 9 -5 20 -6 27 -5 18 -11 40 -12 45 -1 3 -2 6 -3 9 -2 2 -3 4 -6 7 -6 6 -12 8 -19 7 -4 0 -11 -2 -15 -4 -2 -1 -5 -2 -8 -4 -3 -1 -6 -2 -7 -2 -2 -1 -6 -3 -17 -7 -3 -2 -6 -3 -7 -3 -2 -1 -7 -3 -17 -7 -3 -2 -6 -3 -7 -3 -1 -1 -14 -6 -21 -9 -2 -1 -8 -4 -13 -6 -6 -2 -10 -3 -10 -3 0 0 -1 1 -1 3 -1 2 -2 4 -3 5 0 0 0 1 0 1 0 1 4 3 14 7 4 1 7 3 9 4 2 1 5 2 8 3 3 1 6 3 8 4 7 3 9 4 14 6 3 1 7 3 9 4 1 1 5 2 8 4 3 1 7 3 10 4 6 3 6 3 9 4 0 0 4 2 7 3 4 1 7 3 8 3 4 2 5 2 7 3 4 2 9 4 13 4 1 0 4 0 7 0 4 0 7 0 9 -1z m-144 -57 c1 -1 1 -3 2 -4 0 -1 0 -2 0 -2 1 -1 -4 -3 -36 -16 -5 -2 -11 -4 -14 -6 -3 -1 -6 -2 -6 -2 0 0 -1 2 -2 4 -1 2 -1 3 -1 4 0 0 2 1 4 2 2 1 6 3 10 4 6 3 19 9 22 10 1 1 4 2 6 3 1 1 5 2 8 4 2 1 5 2 5 2 1 0 1 -1 2 -3z m-61 -28 c0 -2 1 -3 1 -4 0 0 -5 -3 -13 -6 -7 -3 -18 -7 -24 -9 -6 -3 -11 -5 -11 -5 -1 1 -1 2 -2 3 -1 2 -1 2 0 3 0 0 3 1 5 3 5 1 19 8 35 15 3 2 6 3 6 3 1 0 2 -2 3 -3z m-54 -23 c1 -1 1 -2 1 -3 0 0 -1 -1 -1 -1 -1 0 -2 -1 -3 -1 -1 -1 -4 -2 -6 -3 -3 -1 -6 -2 -7 -2 -1 -1 -4 -2 -7 -3 -3 -2 -6 -3 -8 -4 -2 0 -4 -1 -6 -2 -2 -1 -4 -2 -6 -2 -5 -3 -7 -3 -8 -3 -1 0 -1 1 -1 2 0 1 1 2 2 2 2 1 4 2 5 3 23 10 32 14 34 15 1 0 3 1 6 2 2 1 3 2 4 2 0 0 0 -1 1 -2z m402 -162 c2 -1 6 -3 9 -5 3 -1 10 -5 16 -9 15 -7 17 -8 24 -12 14 -8 15 -9 15 -9 0 0 -1 -1 -2 -2 -4 -1 -15 -9 -22 -14 -7 -6 -15 -13 -23 -20 -9 -10 -16 -18 -23 -29 -2 -3 -4 -5 -4 -5 -1 0 -1 0 -1 0 0 1 -1 2 -1 4 -1 2 -2 3 -2 3 0 0 -1 3 -2 5 -4 7 -5 11 -5 11 0 0 -2 4 -4 9 -2 4 -4 8 -6 13 -1 2 -3 6 -3 8 -1 2 -3 4 -3 6 -1 2 -2 4 -3 6 -3 6 -3 7 -2 10 1 3 6 10 11 16 9 9 20 17 25 17 1 0 3 -1 6 -3z m71 -39 c1 -1 2 -4 3 -8 0 -1 1 -3 1 -3 0 -1 0 -1 -3 -1 -2 0 -6 1 -9 1 -3 1 -5 1 -6 2 -1 1 -1 2 -1 2 0 1 13 8 14 8 0 0 1 0 1 -1z m8 -3 c1 -1 3 -2 4 -3 1 0 2 -1 2 -1 0 -1 -4 -3 -6 -3 -1 0 -1 0 -2 2 -1 3 -1 6 -1 6 0 0 2 -1 3 -1z m-26 -9 c0 -1 1 -2 1 -3 1 0 1 -3 1 -5 1 -2 1 -4 2 -5 0 -1 0 -1 0 -2 -1 -1 -9 -8 -10 -9 -1 0 -2 0 -2 -1 -1 0 -1 -1 -1 0 -1 0 -3 7 -4 12 0 2 -1 5 -1 5 0 1 1 2 1 2 2 2 6 4 7 4 0 0 1 1 2 2 1 1 3 2 3 2 0 0 1 -1 1 -2z m39 1 c0 0 1 -3 1 -5 0 -2 1 -5 1 -6 1 -1 1 -2 1 -3 0 0 -1 -1 -2 -2 -3 -2 -3 -2 -5 -1 -1 0 -3 1 -4 1 -1 0 -2 1 -2 1 0 0 0 1 -1 3 0 2 -1 5 -1 6 -1 2 -1 3 -1 3 1 1 10 4 11 4 1 0 2 0 2 -1z m-28 -3 c1 0 4 -1 5 -2 2 0 2 -1 4 0 2 1 3 0 3 -1 0 0 1 -2 1 -3 1 -2 1 -4 1 -4 0 -1 -4 -1 -7 0 -4 0 -4 0 -4 2 0 0 -1 1 -1 1 0 0 -1 -1 -2 -1 -1 -1 -3 -1 -3 -1 -1 0 -2 4 -3 7 0 1 0 3 0 3 0 0 0 0 1 0 1 0 3 -1 5 -1z m38 -1 c2 -1 4 -3 4 -3 0 -1 -6 -4 -7 -4 -1 0 -1 1 -2 4 -1 2 -1 4 -1 4 0 1 0 1 1 1 0 0 2 -1 5 -2z m10 -7 c1 -1 5 -3 10 -6 5 -2 11 -6 15 -8 3 -2 7 -4 9 -5 2 -1 6 -3 8 -5 2 -1 5 -3 7 -3 2 -1 4 -2 5 -3 1 -1 3 -2 6 -3 3 -2 7 -5 7 -6 0 -1 -2 -1 -4 -2 -4 -1 -15 -7 -19 -9 -1 -1 -3 -2 -3 -2 0 0 -3 -2 -7 -5 -10 -6 -22 -15 -29 -21 -1 -1 -3 -3 -5 -4 -21 -18 -43 -41 -55 -59 -3 -6 -8 -14 -8 -16 0 -1 -1 -1 -1 -1 -2 0 -7 6 -8 10 -1 2 -3 6 -5 10 -2 3 -4 8 -5 11 -2 2 -6 11 -9 18 -7 14 -7 14 -5 17 1 2 2 4 2 4 0 0 3 5 6 9 8 11 13 17 20 25 15 18 33 33 53 46 7 4 13 8 14 8 0 0 1 0 1 0z m-75 -3 c1 -5 3 -16 3 -17 -1 -1 0 -1 -6 0 -2 1 -6 1 -8 1 -2 0 -4 1 -4 1 -1 0 -1 2 -1 3 -1 2 -1 2 5 6 6 7 9 9 10 9 0 0 0 -2 1 -3z m35 -3 c3 0 6 -1 7 -1 1 0 1 0 1 -1 0 0 1 -1 1 -2 1 0 1 -1 1 -1 0 -1 -3 -3 -9 -9 -5 -4 -7 -5 -7 -3 0 1 0 3 -1 4 -1 3 -3 11 -3 13 0 1 1 1 3 1 1 0 4 0 7 -1z m-13 -5 c0 -1 1 -3 1 -3 0 -1 0 -2 0 -3 0 0 -1 0 -2 0 -1 1 -3 1 -4 2 -2 0 -3 1 -1 2 0 0 2 1 3 2 2 3 3 3 3 0z m-4 -8 c6 -1 6 -1 7 -6 1 -3 1 -3 -4 -7 -2 -2 -5 -5 -7 -7 -1 -1 -2 -2 -3 -2 0 0 -1 1 -1 3 -1 4 -2 10 -3 14 0 3 0 4 2 5 1 1 1 1 9 0z m-39 -2 c2 -1 2 -2 3 -4 0 -1 1 -5 1 -8 1 -4 1 -6 1 -7 0 0 -1 0 -3 0 -4 1 -10 3 -12 3 -1 0 -2 0 -3 1 0 1 0 1 1 4 2 3 8 9 9 11 1 0 1 0 1 0 1 0 2 0 2 0z m14 -2 c3 0 5 -1 5 -2 0 0 -1 -1 -2 -3 -2 -2 -3 -4 -3 -5 0 0 1 1 3 3 4 4 6 6 7 5 0 -1 1 -2 1 -3 0 -1 1 -4 1 -7 1 -2 1 -4 1 -4 -1 -1 -10 0 -12 1 -1 0 -2 1 -2 2 0 2 0 2 -1 0 -2 -1 -3 -1 -3 0 -1 0 -3 12 -3 13 0 1 0 1 2 1 1 0 4 -1 6 -1z m-28 -23 c1 -3 2 -7 3 -9 1 -2 1 -4 1 -5 0 -2 0 -2 -3 -3 -2 -1 -3 -1 -4 0 -1 1 -6 12 -6 13 0 0 1 3 3 6 2 3 3 5 4 4 0 0 1 -1 2 -6z m12 4 c3 -1 5 -1 5 -1 0 0 1 0 1 -1 0 0 -10 -11 -11 -11 0 0 -1 1 -1 2 0 1 -2 6 -3 10 0 1 0 2 0 2 0 0 1 0 2 0 1 0 4 -1 7 -1z m19 0 c2 -1 5 -1 7 -1 2 0 5 -1 4 -2 0 0 -1 -3 -3 -5 -2 -2 -6 -6 -7 -8 -2 -2 -4 -3 -4 -3 0 0 -1 0 -1 1 0 0 0 3 -1 5 0 2 -1 5 -1 6 -1 6 -1 8 0 7 1 0 3 0 6 0z m151 -3 c0 0 3 -3 5 -6 3 -3 5 -6 6 -6 1 -1 4 -5 4 -6 0 0 -1 0 -3 -1 -5 -2 -17 -9 -25 -15 -9 -6 -13 -10 -19 -14 -5 -4 -14 -12 -15 -12 0 -1 -2 -2 -3 -3 -2 -2 -5 -4 -7 -6 -1 -2 -4 -4 -6 -6 -5 -4 -19 -18 -23 -23 -5 -6 -9 -10 -15 -17 -6 -8 -11 -15 -13 -19 0 -2 -1 -3 -1 -3 -1 0 -3 2 -6 5 -2 3 -5 7 -6 8 -4 4 -4 4 -4 6 2 9 16 29 34 49 6 7 14 14 22 21 2 2 4 3 4 4 0 0 6 5 7 6 10 8 17 13 23 17 2 2 5 4 6 4 5 4 17 11 21 13 7 3 12 5 14 4z m-159 -10 c0 -4 1 -8 2 -9 0 -1 0 -1 0 -2 -1 -1 -1 -1 -5 0 -2 1 -4 1 -5 1 -2 0 -4 1 -4 1 -1 0 -2 2 -2 3 0 1 5 9 9 13 1 1 2 2 2 2 1 -1 2 -4 3 -9z m-15 -15 c0 -1 1 -4 2 -7 0 -3 1 -6 2 -6 0 -1 0 -2 -1 -3 0 -1 -1 -2 -1 -2 -1 0 -3 4 -5 9 -4 7 -5 9 -4 10 0 0 1 1 2 2 2 1 2 1 3 0 0 0 1 -2 2 -3z m9 1 c3 -1 5 -1 5 -2 0 0 -7 -9 -7 -9 -1 0 -1 1 -1 2 -1 2 -2 4 -2 6 -1 2 -1 3 -1 4 0 0 1 0 1 0 1 0 3 -1 5 -1z m188 -2 c4 -4 7 -7 9 -10 2 -3 3 -4 2 -4 0 -1 0 -1 -1 -1 0 0 -5 -2 -9 -4 -6 -4 -16 -11 -28 -20 -20 -16 -40 -34 -57 -50 -7 -8 -14 -15 -20 -24 -7 -8 -11 -13 -12 -17 -1 -2 -2 -3 -2 -3 -1 0 -3 3 -6 6 -9 10 -9 9 -9 12 0 1 1 4 2 5 2 6 11 18 21 29 7 8 29 29 38 37 0 1 2 2 4 4 2 2 4 3 4 4 0 0 1 1 3 2 2 1 3 2 3 3 0 0 1 1 3 1 1 1 3 3 5 5 7 5 24 18 30 21 4 2 9 5 12 6 0 0 1 0 3 0 3 0 3 0 5 -2z m20 -22 c8 -8 9 -10 11 -12 0 -1 1 -2 1 -2 0 0 -2 -1 -4 -2 -4 -2 -14 -9 -22 -14 -2 -2 -5 -4 -8 -6 -9 -7 -27 -22 -37 -31 -11 -10 -31 -30 -40 -40 -7 -8 -14 -17 -17 -23 -1 -2 -2 -3 -3 -3 -1 0 -13 14 -14 16 -2 4 6 16 22 33 10 12 23 24 34 34 8 8 10 9 17 16 5 3 10 7 11 8 3 2 11 8 20 15 7 5 17 11 22 13 0 0 1 0 3 0 2 0 3 0 4 -2z m21 -23 c4 -4 11 -12 12 -13 0 -1 0 -1 -1 -2 -8 -2 -15 -7 -26 -16 -23 -17 -49 -39 -70 -60 -16 -16 -29 -32 -33 -40 -1 -1 -1 -2 -1 -2 -1 0 -6 5 -11 11 -4 4 -4 5 -4 7 0 3 2 7 7 14 11 15 29 33 55 56 11 10 24 21 38 32 8 5 10 7 15 10 7 4 10 6 13 6 3 0 3 0 6 -3z m17 -20 c1 0 4 -3 8 -8 4 -4 7 -7 7 -7 0 -1 -2 -2 -4 -3 -2 -1 -6 -3 -8 -4 -7 -5 -24 -18 -35 -28 -12 -10 -24 -20 -24 -21 -1 0 -3 -2 -5 -5 -3 -2 -5 -4 -6 -4 -14 -14 -21 -21 -28 -28 -4 -5 -9 -10 -11 -12 -3 -4 -8 -11 -9 -14 0 -1 -1 -1 -1 -1 -1 0 -5 3 -8 8 -1 1 -3 3 -5 4 -2 3 -2 3 -2 5 0 3 2 7 6 12 1 2 3 5 4 6 7 9 32 34 48 49 2 1 4 3 5 4 5 4 25 21 27 22 0 1 1 2 2 2 1 1 10 8 18 14 6 4 12 8 15 9 2 1 3 1 4 1 0 0 1 0 2 -1z m22 -24 c3 -2 13 -13 13 -14 0 0 -1 -1 -1 -1 -3 0 -7 -3 -12 -7 -5 -3 -9 -6 -22 -17 -4 -3 -21 -18 -22 -18 0 -1 -1 -2 -2 -3 -2 -1 -4 -3 -6 -4 -1 -2 -4 -4 -7 -6 -2 -3 -5 -6 -7 -7 -2 -2 -6 -6 -9 -9 -9 -8 -21 -20 -28 -27 -6 -6 -11 -14 -14 -18 0 -2 -1 -3 -1 -3 -1 0 -7 7 -12 12 -3 3 -3 4 -2 7 0 4 2 6 8 15 8 9 26 28 43 43 1 1 4 4 6 6 2 1 8 6 13 11 11 9 11 9 14 12 2 1 3 3 4 3 1 2 18 15 22 18 4 3 11 7 13 8 2 1 3 1 5 1 2 0 3 0 4 -2z m21 -23 c5 -4 11 -13 11 -13 0 -1 -1 -1 -2 -2 -2 -1 -4 -2 -6 -3 -4 -3 -14 -11 -17 -14 -2 -1 -5 -4 -8 -6 -2 -2 -5 -5 -7 -6 -5 -4 -17 -16 -20 -18 -14 -12 -47 -43 -57 -54 -6 -7 -11 -13 -12 -16 -1 -1 -1 -1 -2 -1 0 0 -3 3 -7 7 -7 8 -7 8 -7 10 0 3 2 6 5 12 5 5 10 11 20 21 10 10 14 14 23 22 3 3 6 6 7 6 1 1 5 5 10 9 2 2 6 5 8 8 5 4 10 8 21 17 6 5 7 6 14 12 13 10 18 13 22 12 1 0 2 -1 4 -3z m18 -20 c1 0 14 -14 14 -16 0 0 0 0 0 0 -2 0 -5 -2 -8 -5 -3 -1 -20 -16 -21 -17 0 -1 -2 -2 -4 -4 -3 -3 -6 -5 -7 -7 -2 -1 -6 -4 -8 -7 -9 -7 -10 -8 -13 -11 -1 -1 -4 -4 -6 -5 -4 -4 -8 -8 -10 -9 0 0 -1 -2 -3 -3 -18 -17 -34 -32 -41 -40 -4 -5 -7 -9 -8 -12 -1 -1 -1 -1 -2 -1 0 0 -2 1 -3 3 -8 8 -11 12 -12 14 -1 1 0 5 3 9 1 2 4 5 5 7 4 5 25 26 37 36 5 5 11 11 14 13 3 3 8 7 11 10 4 4 8 7 9 8 3 3 8 7 13 11 2 2 5 5 6 6 2 2 8 7 13 11 9 7 15 10 18 10 1 0 2 0 3 -1z m20 -22 c1 0 10 -10 13 -14 1 -1 1 -3 0 -3 0 0 -5 -3 -9 -6 -4 -4 -12 -11 -18 -16 -4 -4 -5 -5 -17 -16 -6 -5 -10 -8 -10 -9 0 0 -4 -3 -8 -7 -5 -4 -10 -8 -11 -10 -2 -1 -4 -3 -5 -4 -1 0 -2 -1 -2 -1 0 -1 -1 -2 -3 -3 -27 -25 -43 -41 -45 -47 -1 -2 -1 -2 -2 -2 0 -1 -11 11 -13 14 -1 2 -2 3 -1 4 0 3 1 6 5 10 2 4 22 24 33 34 3 3 6 6 7 6 0 1 2 2 4 4 4 3 5 4 12 11 2 2 5 4 7 7 6 4 5 3 12 10 37 33 40 35 44 38 3 1 5 1 7 0z m21 -23 c1 0 3 -3 6 -6 2 -2 5 -5 5 -5 1 -2 3 -4 3 -5 0 0 0 -1 -1 -1 -1 0 -5 -3 -8 -5 -4 -3 -5 -5 -31 -28 -6 -5 -12 -11 -14 -12 -2 -2 -18 -16 -24 -22 -8 -7 -15 -13 -22 -20 -3 -3 -6 -6 -8 -7 -6 -6 -17 -18 -20 -23 -2 -2 -3 -4 -3 -4 -1 0 -4 3 -8 8 -8 8 -8 8 -7 11 0 4 4 10 17 23 6 5 13 12 15 15 3 2 7 6 9 7 4 4 24 22 33 30 4 3 8 7 10 8 1 2 4 4 7 6 4 5 12 12 16 16 16 14 22 18 25 14z m22 -24 c1 -1 3 -2 4 -4 1 -1 4 -4 6 -6 2 -3 4 -5 4 -5 0 0 -1 -1 -1 -1 -5 -2 -11 -7 -21 -17 -3 -2 -7 -6 -8 -7 -1 -1 -3 -2 -3 -3 -1 -1 -5 -4 -9 -7 -4 -4 -9 -8 -11 -10 -3 -4 -11 -10 -13 -13 -3 -2 -21 -19 -32 -29 -5 -4 -19 -19 -23 -23 -4 -4 -9 -10 -10 -12 0 -1 0 -1 -1 -1 0 0 -4 3 -10 10 -6 7 -6 7 -6 9 0 3 3 7 7 12 5 6 22 22 33 33 2 1 4 3 6 5 2 2 6 5 16 14 2 3 7 6 9 9 2 2 7 5 10 8 2 3 6 6 8 7 1 2 4 4 6 6 2 2 4 3 4 3 0 1 1 2 3 3 1 1 3 3 5 4 6 6 15 14 17 15 4 3 8 3 10 0z m24 -25 c2 -2 4 -4 4 -4 0 -1 -12 -22 -17 -30 -1 -1 -4 -4 -8 -8 -4 -3 -9 -7 -10 -8 -5 -5 -10 -9 -12 -11 -2 -2 -32 -28 -35 -31 -1 -1 -4 -3 -7 -6 -9 -8 -25 -24 -29 -29 -2 -3 -5 -6 -6 -7 0 -2 -1 -3 -1 -3 -1 0 -7 6 -13 14 -3 2 -3 3 -3 5 0 1 1 2 2 4 2 4 14 18 34 36 8 7 10 10 18 16 4 4 9 9 11 10 1 2 7 7 12 12 5 4 10 8 10 8 0 1 2 3 5 5 3 2 6 5 6 6 1 1 4 4 7 6 3 2 6 6 8 7 9 9 14 12 18 12 2 0 2 0 6 -4z m-27 -55 c0 -1 -25 -35 -28 -37 0 0 -2 -2 -4 -5 -5 -7 -8 -10 -12 -14 -1 -2 -4 -5 -5 -6 -5 -6 -20 -21 -27 -27 -7 -7 -7 -7 -10 -3 -3 3 -4 3 -3 5 0 5 5 11 18 24 9 9 23 22 28 26 1 1 5 4 8 8 4 3 9 7 11 8 1 2 3 3 3 3 0 1 2 2 4 3 1 2 4 4 5 5 4 4 11 10 12 10 0 0 0 0 0 0z"/>
</g>
</svg>
