<svg xmlns="http://www.w3.org/2000/svg" viewBox="58 35 208 208">
<g
      fill="none"
      stroke="#000000"
      stroke-linecap="round"
      stroke-linejoin="round"
      stroke-width="8"
    >
      <path d="M164 173.5C178.453552 172.270493 189.312851 165.447937 195.94101 152.469864C198.431625 147.59317 200.649307 142.478149 201.452194 136.992996C202.339752 130.92952 198.993546 125.629471 196.725479 120.624405C192.124527 110.47123 184.422394 103.004753 173.016251 99.939529C155.594772 95.257767 139.571869 101.341942 130.609894 116.066879C118.892471 135.319107 125.579872 157.038818 143.049362 167.920746C148.109451 171.072739 153.735672 173.324905 160.00148 173.03154C161.157806 172.977402 162.333328 173.333344 163.5 173.500015"/>
      <path d="M108 79C103.5 75 99.103767 70.874237 94.462799 67.045082C91.46669 64.573051 87.779549 63.047333 84.411736 61.157269C79.658203 58.489529 73.432541 62.658661 72.525444 68.503952C72.348656 69.643181 72.5 70.833336 72.5 72C72.5 114.666664 72.560829 157.333542 72.415398 199.99971C72.39904 204.79834 74.211533 208.741516 78.107277 210.216705C81.221191 211.395859 84.989761 210.447632 88.64164 208.233627C95.281487 204.208115 100.567604 198.75119 106.457016 193.947296C107.343575 193.224136 107.94223 193.183548 109.000282 193.18837C143.499939 193.346359 177.999985 193.423294 212.500015 193.496231C223.833282 193.520187 235.166702 193.513672 246.499985 193.493698C251.473618 193.48494 252.121948 193.049347 251.94101 188.002121C251.666122 180.334625 252.893646 172.639465 251.133011 164.969467C250.604416 162.666794 252.062347 160.099091 252.052689 157.499802C251.963379 133.500137 252.001892 109.5 251.998734 85.5C251.997864 78.846626 251.584763 78.043495 245.000641 78.090279C236.001495 78.154198 226.961517 77.145088 217.983383 78.915764C215.929474 79.320839 213.666809 78.523666 211.499985 78.5215C180.166687 78.490112 148.833328 78.499992 117.5 78.5C107.499992 78.5 107.5 78.500008 107.5 88.5C107.5 121.5 107.488274 154.500015 107.534454 187.499954C107.536766 189.156647 106.941299 190.922531 108 192.5"/>
      <path d="M88.5 65C87.282631 67.356529 86.965187 69.850334 86.968193 72.500038C87.013947 112.833321 86.965675 153.166748 87.047935 193.499908C87.057144 198.015762 86.095909 202.711563 88.5 207"/>
      <path d="M217.5 80C217.5 106 217.5 132 217.5 158C217.5 167.666672 217.51268 177.333359 217.487915 186.999969C217.483612 188.674561 217.80127 190.39679 217 192"/>
      <path d="M184.5 136C170.33728 135.244446 156.169617 135.331192 142 135.75"/>
      <path d="M183.5 124.5C169.666672 124.416664 155.833328 124.333336 142 124.25"/>
      <path d="M183 147.25C169.333328 147.662796 155.666672 147.662796 142 147.25"/>
      <path d="M219 164.5C229.333328 164.5 239.666672 164.5 250 164.5"/>
      <path d="M242.5 107C237.546188 105.447838 232.45401 108.046463 227.5 106.5"/>
      <path d="M241.5 95.5C236.833328 95.5 232.166672 95.5 227.5 95.5"/>
    </g>
</svg>
