<?xml version="1.1" encoding="UTF-8"?>
<svg xmlns="http://www.w3.org/2000/svg" viewBox="0 0 1254 1254">
<g transform="translate(0,1254) scale(0.100000,-0.100000)" fill="#ffffff" stroke="#ffffff" stroke-width="120" stroke-linejoin="round" stroke-linecap="round">
<path fill="none" stroke="none" d="M6055 12333 c-255 -14 -611 -59 -856 -107 -354 -69 -809 -206 -1141
-342 -546 -224 -1018 -511 -1500 -910 -137 -114 -405 -371 -536 -513 -240
-263 -465 -550 -649 -826 -146 -219 -250 -400 -382 -665 -290 -582 -479 -1187
-585 -1865 -38 -243 -55 -407 -68 -663 -24 -475 23 -1050 129 -1557 153 -737
463 -1480 876 -2100 228 -342 494 -664 787 -954 502 -496 1049 -880 1665
-1168 488 -229 979 -380 1530 -472 283 -48 506 -69 815 -77 433 -12 834 25
1325 122 352 69 674 164 1004 296 213 84 565 256 756 368 469 276 798 531
1185 919 302 303 526 578 765 941 181 275 296 481 426 760 301 650 480 1323
556 2085 13 140 17 272 17 595 0 327 -3 449 -17 575 -49 450 -136 882 -258
1280 -89 289 -227 637 -369 930 -471 966 -1229 1841 -2070 2390 -479 313 -915
523 -1430 690 -80 25 -244 71 -365 100 -365 89 -724 144 -1079 165 -163 9
-405 11 -531 3z m528 -143 c402 -25 840 -98 1202 -200 156 -44 413 -129 550
-183 348 -135 745 -343 1085 -570 517 -346 1009 -819 1415 -1362 175 -235 314
-452 462 -720 152 -277 301 -610 413 -930 149 -421 262 -922 315 -1395 8 -74
20 -251 27 -392 21 -470 -17 -978 -108 -1453 -59 -303 -150 -643 -238 -885
-236 -647 -577 -1247 -1002 -1766 -336 -410 -749 -792 -1174 -1086 -295 -204
-654 -403 -962 -534 -575 -245 -1195 -396 -1868 -455 -205 -18 -701 -16 -910
4 -641 63 -1174 193 -1735 427 -140 58 -457 216 -604 300 -272 156 -515 322
-757 516 -188 150 -328 277 -504 453 -365 367 -664 755 -931 1209 -85 145
-258 490 -328 655 -259 613 -415 1274 -461 1955 -21 311 -10 764 26 1082 30
270 112 690 189 970 35 127 132 422 178 540 104 268 280 632 428 885 153 261
320 503 523 755 167 208 410 474 558 611 752 696 1551 1140 2488 1383 399 104
807 166 1240 189 136 8 326 6 483 -3z"/>
<path d="M6214 10801 c-17 -11 -36 -34 -43 -52 -7 -20 -11 -120 -11 -275 0
-244 0 -244 -48 -244 -26 0 -124 -9 -217 -20 -447 -51 -823 -158 -1184 -338
-288 -144 -520 -298 -756 -501 -316 -273 -616 -642 -826 -1016 -276 -494 -443
-1053 -489 -1634 -5 -74 -10 -141 -10 -148 0 -10 -52 -13 -250 -13 -285 0
-305 -4 -334 -65 -25 -51 -16 -102 24 -137 30 -28 30 -28 294 -28 263 0 263 0
275 -162 29 -381 97 -711 226 -1087 121 -353 321 -725 548 -1021 110 -143 190
-235 316 -364 318 -325 633 -557 1026 -754 163 -81 288 -132 468 -191 268 -86
563 -143 820 -157 117 -7 117 -7 117 -254 0 -240 1 -248 23 -281 41 -60 128
-63 171 -6 20 27 21 40 21 275 0 210 2 248 15 254 8 4 42 7 75 7 80 1 294 27
430 51 351 64 693 182 996 346 339 183 577 360 850 633 214 214 320 343 477
577 141 211 265 445 369 699 154 373 262 839 293 1260 6 83 13 156 16 164 3
11 53 12 267 10 237 -4 264 -2 288 14 48 32 63 101 34 157 -29 57 -48 60 -334
60 -259 0 -259 0 -266 108 -29 451 -141 941 -305 1328 -139 327 -328 647 -542
915 -99 124 -347 380 -473 489 -410 353 -873 592 -1403 725 -237 59 -547 105
-714 105 -68 0 -68 0 -68 245 0 272 -5 302 -59 329 -40 21 -69 20 -107 -3z
m441 -867 c423 -48 863 -192 1230 -404 240 -138 452 -299 664 -505 542 -527
898 -1214 1026 -1980 21 -129 45 -349 45 -422 0 -63 0 -63 -564 -63 -564 0
-564 0 -570 78 -15 160 -50 342 -97 497 -114 373 -331 736 -600 1004 -179 179
-379 322 -594 427 -71 35 -185 82 -253 104 -150 49 -340 88 -467 97 -95 6 -95
6 -95 597 0 592 0 592 73 588 39 -1 131 -9 202 -18z m-495 -572 c0 -588 0
-588 -122 -600 -248 -24 -463 -85 -694 -196 -236 -114 -434 -257 -620 -448
-66 -68 -155 -170 -198 -228 -86 -116 -181 -271 -252 -412 -114 -227 -200
-515 -231 -772 -17 -146 -17 -146 -580 -146 -563 0 -563 0 -563 33 1 48 27
312 39 389 48 297 145 634 261 904 59 138 165 342 239 462 126 202 283 402
456 581 455 469 995 784 1596 931 207 50 445 85 602 89 67 1 67 1 67 -587z
m509 -868 c62 -14 159 -41 214 -60 115 -40 290 -126 392 -191 309 -200 557
-474 734 -813 66 -128 125 -271 164 -400 31 -100 73 -307 82 -402 6 -67 6 -67
-255 -70 -262 -3 -262 -3 -291 -36 -22 -25 -29 -42 -29 -75 0 -50 30 -104 62
-112 13 -3 132 -6 265 -7 133 -2 245 -6 249 -10 10 -11 -13 -202 -41 -341 -63
-309 -230 -675 -413 -902 -139 -172 -328 -347 -494 -455 -100 -67 -270 -155
-380 -199 -113 -45 -286 -88 -421 -106 -65 -8 -120 -15 -123 -15 -2 0 -4 113
-4 250 0 269 -5 301 -51 334 -13 9 -40 16 -61 16 -27 0 -47 -8 -70 -29 -33
-29 -33 -29 -36 -300 -3 -270 -3 -270 -50 -265 -250 29 -447 85 -658 188 -425
206 -754 537 -965 971 -86 176 -151 368 -184 538 -25 131 -45 313 -36 323 3 2
118 4 257 4 165 -1 260 3 274 10 48 26 67 96 41 159 -24 58 -43 61 -322 61
-252 0 -252 0 -246 76 11 122 54 319 103 464 80 238 218 491 371 680 133 164
309 325 484 442 245 164 580 284 850 305 79 6 79 6 79 -251 0 -291 4 -314 65
-343 32 -15 40 -16 78 -3 31 11 47 24 60 50 15 31 17 66 17 290 0 140 0 257 0
260 0 11 177 -11 289 -36z m-2637 -2244 c30 -308 93 -562 203 -817 59 -134
110 -230 192 -355 86 -131 168 -235 277 -346 116 -119 214 -201 352 -294 136
-93 251 -155 388 -213 198 -83 388 -131 609 -156 107 -12 107 -12 107 -612 0
-600 0 -600 -97 -593 -517 35 -1058 221 -1523 521 -108 70 -283 200 -380 283
-163 140 -372 360 -511 537 -352 449 -600 1029 -703 1642 -27 162 -52 442 -43
467 6 15 59 16 564 14 558 -3 558 -3 565 -78z m5581 -43 c-5 -352 -121 -857
-284 -1240 -33 -76 -78 -175 -100 -220 -60 -121 -209 -368 -291 -482 -215
-301 -466 -557 -764 -780 -132 -99 -272 -185 -449 -276 -250 -129 -491 -217
-755 -277 -172 -39 -317 -60 -469 -69 -121 -6 -121 -6 -121 594 0 600 0 600
111 612 421 45 806 208 1129 477 101 84 291 280 372 385 275 354 448 796 489
1253 6 66 13 127 15 134 3 11 105 13 561 10 558 -3 558 -3 556 -121z"/>
</g>
<g transform="translate(0,1254) scale(0.100000,-0.100000)" fill="#cc0000" stroke="none">
<path d="M6105 7605 c-116 -18 -194 -41 -295 -84 -182 -79 -344 -208 -466
-370 -127 -170 -210 -377 -238 -598 -12 -98 -14 -147 -6 -250 15 -190 58 -343
143 -506 61 -117 172 -260 264 -341 248 -215 565 -321 871 -288 136 14 260 50
387 112 124 60 240 145 337 249 126 134 213 282 273 465 18 56 39 135 46 176
8 42 14 142 13 230 0 121 -5 176 -22 252 -42 192 -133 389 -244 529 -139 176
-342 315 -558 383 -105 33 -251 56 -350 55 -41 -1 -111 -7 -155 -14z m426
-108 c105 -27 229 -83 326 -145 125 -82 270 -240 350 -382 84 -149 138 -337
149 -523 12 -183 -38 -417 -124 -589 -82 -161 -229 -331 -372 -428 -89 -60
-215 -117 -328 -147 -86 -24 -115 -27 -262 -26 -146 0 -177 3 -265 26 -111 30
-247 93 -343 160 -95 66 -227 201 -289 296 -68 102 -113 198 -146 311 -40 134
-50 223 -44 392 4 120 11 175 31 252 14 54 50 149 79 210 61 127 147 246 241
333 114 107 292 210 431 250 115 32 200 42 335 38 101 -3 159 -10 231 -28z"/>
<path d="M6204 6750 c-60 -12 -139 -55 -183 -99 -78 -78 -118 -207 -99 -325
18 -115 94 -221 198 -272 41 -21 74 -29 130 -32 60 -3 87 0 131 17 79 30 134
72 174 135 97 151 83 342 -34 468 -51 56 -119 93 -195 107 -66 12 -64 12 -122
1z"/>
</g>
</svg>