<?xml version="1.1" encoding="UTF-8"?>

<svg xmlns="http://www.w3.org/2000/svg" viewBox="90 90 1074 1074">
<g transform="translate(0,1254) scale(1,-1)" fill="#ffffff" stroke="#ffffff" stroke-width="12" stroke-linejoin="round" stroke-linecap="round">
<path fill="none" stroke="none" d="M607 1198 c-12 0 -22 -1 -29 -2 -11 -1 -13 -2 -16 -2 -2 0 -5 -1 -7
-1 -4 0 -11 -2 -19 -3 -18 -3 -44 -10 -64 -16 -7 -2 -23 -7 -31 -10 -8 -3 -21
-8 -26 -11 -3 -1 -8 -3 -11 -4 -6 -3 -29 -14 -35 -18 -11 -6 -16 -9 -33 -19
-6 -4 -15 -10 -23 -16 -2 -1 -4 -3 -6 -4 -6 -4 -9 -7 -17 -13 -5 -4 -9 -8 -10
-8 -14 -12 -23 -20 -33 -30 -11 -12 -21 -23 -29 -31 -2 -3 -4 -5 -5 -6 -1 -1
-5 -6 -6 -7 0 -1 -2 -3 -4 -5 -3 -4 -12 -16 -17 -23 -3 -4 -15 -22 -19 -29 -3
-5 -5 -7 -8 -13 0 -1 -2 -4 -3 -6 -2 -3 -4 -6 -5 -8 -1 -2 -3 -5 -4 -7 -2 -4
-11 -22 -14 -29 -13 -28 -26 -64 -35 -95 -2 -9 -3 -13 -6 -25 -1 -7 -6 -30 -7
-39 -1 -9 -3 -18 -3 -25 -1 -5 -1 -10 -1 -13 -2 -13 -2 -23 -2 -46 0 -14 0
-28 0 -33 1 -8 1 -11 3 -25 0 -6 2 -22 4 -33 1 -6 4 -23 6 -32 1 -6 6 -23 8
-32 5 -16 14 -43 20 -59 4 -10 7 -16 8 -19 1 -2 3 -5 4 -8 2 -6 12 -24 14 -29
6 -12 10 -17 14 -25 6 -9 19 -29 22 -33 1 -2 3 -5 5 -7 7 -9 14 -18 20 -26 3
-4 6 -8 6 -8 1 0 2 -2 10 -11 19 -22 47 -48 71 -66 15 -12 28 -21 45 -33 21
-13 49 -28 74 -39 34 -16 78 -29 115 -36 23 -4 40 -6 67 -9 10 0 53 0 64 0 17
2 24 2 33 4 2 0 6 0 8 1 22 2 52 9 77 16 9 3 24 8 36 12 9 3 10 4 22 8 9 4 21
10 31 15 8 4 30 16 31 17 1 0 3 1 5 2 15 9 36 23 51 34 2 3 6 5 7 6 3 2 17 14
20 16 14 13 18 16 32 31 9 9 18 18 25 26 0 1 3 4 5 7 17 19 37 47 53 73 8 12
22 39 27 51 1 2 2 5 3 7 7 14 17 42 23 59 5 15 8 26 12 43 6 27 10 49 13 81 1
7 2 24 3 39 0 13 0 20 0 32 -2 38 -5 64 -13 102 -2 9 -6 27 -9 36 -2 11 -8 27
-12 39 -4 13 -13 35 -17 44 -2 4 -3 7 -3 7 0 0 -15 31 -18 36 -2 3 -4 7 -5 9
-3 5 -7 12 -14 24 -7 11 -23 34 -32 45 0 0 -2 2 -4 5 -2 2 -3 4 -4 4 0 0 -1 1
-2 3 -2 2 -12 15 -16 19 -2 1 -4 4 -6 6 -6 7 -27 27 -33 33 -10 8 -17 14 -22
19 -3 2 -6 4 -6 4 0 1 -12 10 -18 14 -18 13 -39 26 -59 36 -11 6 -35 18 -43
21 -2 0 -4 1 -5 2 -2 1 -9 4 -18 7 -34 13 -71 22 -109 28 -2 0 -5 0 -6 1 -2 0
-6 0 -8 0 -3 1 -8 1 -10 1 -2 1 -8 1 -12 1 -23 2 -45 2 -65 1z m61 -12 c24 -2
37 -3 67 -9 4 -1 20 -4 27 -6 19 -5 42 -13 60 -19 4 -2 21 -9 24 -11 2 0 3 -1
3 -1 1 0 24 -11 29 -14 10 -6 11 -6 23 -13 12 -8 31 -20 39 -26 34 -26 56 -46
84 -77 2 -3 14 -17 16 -20 1 -1 3 -3 4 -5 6 -8 15 -19 22 -30 4 -6 8 -12 8
-12 0 0 1 -1 1 -2 2 -2 10 -15 12 -19 7 -12 11 -20 18 -34 3 -7 6 -13 7 -14 1
-3 6 -15 6 -15 0 0 1 -1 1 -3 1 -1 2 -4 3 -7 1 -3 2 -5 3 -6 2 -5 7 -21 10
-30 5 -14 7 -21 11 -34 11 -46 18 -90 19 -136 0 -24 -2 -57 -6 -86 -4 -34 -11
-64 -21 -95 -5 -16 -11 -31 -16 -44 -2 -3 -3 -7 -3 -7 0 0 -1 -1 -1 -3 -1 -1
-3 -6 -5 -10 -2 -4 -5 -11 -7 -15 -4 -7 -5 -10 -11 -20 -2 -5 -11 -19 -14 -25
-3 -5 -18 -28 -18 -28 -1 0 -1 -1 -2 -2 -4 -6 -21 -28 -27 -34 0 -1 -3 -5 -7
-8 -3 -4 -7 -8 -8 -10 -11 -12 -28 -29 -36 -36 -2 -2 -5 -4 -7 -6 -4 -3 -17
-14 -20 -17 -15 -11 -24 -18 -35 -25 -37 -25 -80 -47 -120 -60 -29 -10 -49
-16 -76 -21 -25 -4 -44 -7 -72 -8 -40 -3 -85 1 -127 9 -35 7 -69 18 -104 32
-16 7 -34 16 -49 25 -17 9 -37 22 -50 31 -13 9 -22 17 -30 23 -7 6 -18 15 -24
21 -6 5 -27 26 -31 31 -1 1 -4 4 -6 7 -6 6 -8 8 -14 15 -4 6 -4 6 -6 9 -1 1
-2 2 -3 2 0 1 -17 23 -22 30 -9 14 -21 33 -28 47 -2 2 -3 5 -4 7 -2 3 -11 21
-13 25 0 1 -1 3 -2 5 0 1 -2 4 -2 5 -4 8 -9 21 -15 37 -2 5 -9 27 -11 34 -3
12 -8 33 -11 44 -2 11 -5 30 -6 40 -1 5 -3 22 -4 33 -1 13 -1 55 0 66 3 46 7
75 18 115 4 18 9 33 16 51 6 17 9 25 17 42 1 2 1 3 1 3 0 0 10 20 14 27 10 19
24 42 36 59 4 6 9 14 12 17 2 2 4 6 6 8 1 1 2 3 2 3 1 0 2 1 3 3 0 1 1 2 1 2
1 0 3 2 5 5 2 3 5 6 6 7 1 1 3 4 5 7 7 7 10 10 19 19 16 16 24 23 44 40 8 6
26 19 37 27 19 12 34 21 51 30 14 7 24 12 35 16 27 12 59 23 80 28 3 1 6 1 9
2 2 1 5 1 7 2 1 0 5 1 9 2 3 0 7 1 8 1 2 1 6 1 8 2 18 4 49 7 71 8 13 1 44 0
57 -1z"/>
<path d="M774 1097 c-1 -1 -2 -2 -3 -3 -1 -2 -2 -2 -3 -2 -2 0 -3 0 -5 3 -1 1
-2 2 -3 2 -1 0 -3 -1 -3 -3 0 -1 -2 -6 -4 -8 -1 -2 -2 -2 -4 -1 -2 0 -3 0 -4
-1 -1 -2 -2 -2 -1 -4 0 -1 0 -2 -1 -4 -1 -3 -4 -6 -5 -6 -1 0 -1 0 -2 0 -1 -1
-1 -1 -2 -1 -2 1 -4 0 -4 -2 0 0 0 -2 0 -3 1 -3 1 -4 -2 -7 -2 -3 -2 -3 -5 -3
-2 0 -3 0 -4 -1 -1 -1 -1 -2 0 -6 0 -3 0 -3 -2 -6 -2 -3 -3 -4 -6 -3 -2 0 -2
0 -3 -1 -1 -1 -1 -2 -1 -3 0 0 0 -1 0 -2 1 -3 1 -3 0 -5 0 -2 -1 -4 -1 -4 0 0
-1 -1 -2 -1 -2 -1 -3 -1 -3 -1 -2 1 -3 1 -4 -1 -1 -1 -1 -2 0 -4 0 -2 0 -6 -3
-9 -2 -2 -2 -2 -3 -2 -2 1 -5 1 -6 0 -1 -1 -1 -3 0 -6 4 -7 5 -14 5 -19 -1 -4
-3 -10 -6 -16 -4 -9 -11 -21 -13 -26 -3 -5 -5 -7 -8 -14 -1 -2 -2 -3 -2 -4 -1
0 -3 -4 -7 -11 -1 -3 -3 -6 -4 -7 0 -1 -1 -3 -1 -3 0 0 -1 -2 -6 -11 -1 -1 -2
-4 -3 -6 -1 -2 -3 -4 -3 -6 -1 -1 -3 -4 -4 -6 -1 -2 -2 -4 -3 -6 -1 -1 -2 -4
-3 -5 -1 -2 -2 -4 -3 -5 0 -1 -1 -3 -3 -5 -1 -3 -3 -6 -4 -8 -6 -12 -10 -19
-11 -23 -1 -3 -1 -6 -2 -7 0 -2 -1 -4 -1 -5 -3 -10 -8 -23 -12 -31 -1 -3 -6
-13 -11 -19 -2 -3 -17 -30 -19 -33 0 -1 -3 -5 -5 -9 -3 -5 -5 -8 -5 -8 0 0 -1
-3 -3 -6 -8 -12 -22 -40 -27 -53 -10 -23 -15 -41 -19 -63 0 -5 -1 -11 -1 -20
0 -13 0 -18 2 -28 3 -17 10 -37 25 -64 3 -6 11 -23 14 -29 2 -4 4 -8 5 -11 2
-6 5 -16 6 -20 0 -1 0 -4 1 -5 0 -5 1 -14 0 -21 -1 -10 -3 -17 -8 -25 -3 -5
-6 -10 -11 -14 -2 -3 -4 -5 -5 -6 0 -2 0 -6 0 -35 0 -34 0 -34 -3 -37 -2 -4
-2 -4 -2 -61 -1 -57 -1 -57 2 -59 3 -3 8 -5 15 -7 18 -4 50 -5 73 -2 8 1 10 2
16 3 5 2 9 4 11 7 2 2 2 2 2 58 0 43 0 56 -1 57 0 1 -1 3 -2 4 -2 3 -2 3 -2
36 1 18 0 34 0 35 0 1 -1 3 -5 6 -2 3 -5 6 -7 8 -3 4 -6 10 -7 16 -2 4 -2 5
-4 12 0 2 0 5 -2 14 0 6 -1 10 -2 14 -1 9 -2 12 -2 14 -1 1 -1 2 -2 4 -1 4 -4
14 -5 16 -1 2 -2 4 -2 5 -1 1 -3 6 -5 10 -4 8 -6 11 -9 18 -2 3 -4 5 -5 9 -1
1 -3 5 -6 9 -6 12 -14 27 -17 33 -5 14 -6 27 -5 44 1 17 7 38 15 58 2 5 2 5 5
12 1 2 2 5 3 7 1 3 20 40 25 49 1 1 2 5 4 7 3 6 5 10 6 12 2 3 4 8 7 13 1 2 2
4 3 4 0 1 0 2 4 8 4 7 4 8 5 9 1 1 1 2 1 2 0 0 1 2 3 4 2 3 5 7 11 13 5 5 11
11 15 14 5 5 6 6 8 10 1 2 2 4 3 6 1 2 4 7 9 17 1 3 3 5 4 6 0 1 1 3 2 4 6 11
10 19 12 23 1 2 5 9 8 16 4 6 8 13 9 15 1 1 3 5 4 8 2 3 4 8 6 11 2 3 4 7 5 9
1 2 3 5 3 6 2 4 5 8 7 13 2 3 4 7 5 8 3 4 7 8 11 11 3 2 11 6 16 8 3 1 5 2 6
4 0 1 0 2 -1 5 -1 2 -1 3 0 4 0 1 0 2 0 3 0 2 0 2 1 3 1 1 3 1 4 2 2 0 3 1 4
2 1 2 1 3 0 4 -1 1 -1 3 -1 5 -1 2 -1 3 0 4 0 1 4 3 6 3 2 1 3 2 3 3 2 2 2 3
1 5 -1 1 -1 3 -1 4 0 2 0 4 0 4 -1 1 -1 2 0 3 1 0 2 1 2 1 0 0 1 0 2 1 1 1 2
1 2 1 1 0 2 1 3 2 3 2 3 4 1 6 -2 1 -2 2 -2 4 0 1 0 3 1 4 1 2 2 3 4 4 3 2 5
4 5 5 0 1 -1 2 -2 3 -3 2 -3 4 -3 7 0 1 2 2 3 4 1 1 3 2 3 3 0 1 -2 3 -3 4 -1
1 -1 3 0 5 0 1 1 2 2 3 1 1 2 2 2 3 0 0 -1 1 -2 2 -1 1 -2 1 -3 1 -2 0 -3 0
-4 1 -1 2 -2 6 -1 8 0 0 -1 2 -2 3 0 1 -2 1 -3 1 -2 0 -4 0 -4 1 -1 0 -1 1 -2
3 0 1 0 2 -1 2 -1 2 -3 1 -5 -1 -1 -1 -3 -2 -3 -2 -1 0 -5 4 -5 5 0 1 -2 2 -3
2 -2 0 -2 0 -3 -2z m4 -6 c0 0 1 -1 2 -3 3 -3 3 -3 5 -3 1 0 2 0 3 1 1 0 1 0
2 -1 2 -2 3 -2 7 -2 2 0 2 0 2 -4 0 -3 0 -4 1 -5 2 -1 4 -3 5 -3 1 0 2 0 2 -1
0 0 -1 -2 -2 -3 -1 -3 -1 -6 0 -8 2 -2 2 -2 0 -3 -1 -1 -2 -2 -2 -3 -1 -2 -1
-2 0 -5 0 -2 0 -4 1 -4 0 -1 1 -1 1 -2 0 0 -1 0 -2 0 -2 0 -3 0 -4 -2 0 0 -1
-1 -1 -2 0 0 0 -1 1 -1 1 -1 1 -1 0 -4 -1 -2 -2 -3 -2 -6 1 -2 1 -3 1 -4 1 -1
1 -1 -1 -2 -4 -3 -6 -3 -6 -3 -1 0 -2 -1 -3 -2 -1 -1 -1 -2 -1 -4 0 -2 0 -3 1
-3 1 -1 1 -2 1 -4 0 -3 0 -3 -1 -5 -1 0 -2 -1 -2 -1 0 0 -1 -1 -2 -1 -1 -1 -3
-1 -3 -1 -2 0 -3 -2 -3 -4 -1 -2 0 -4 1 -4 1 -1 1 -1 1 -4 0 -4 0 -4 -4 -6 -4
-1 -5 -3 -5 -5 1 -6 1 -7 1 -8 0 -2 -1 -2 -2 -3 -3 -1 -5 -2 -5 -4 0 -1 0 -1
-3 -3 -5 -3 -10 -6 -14 -10 -7 -6 -8 -9 -17 -24 -3 -7 -6 -12 -8 -16 -1 -2 -3
-5 -4 -7 -1 -1 -3 -6 -5 -9 -2 -4 -3 -7 -4 -7 0 -1 -1 -3 -3 -7 -2 -3 -4 -7
-4 -8 -1 -1 -3 -4 -4 -7 -2 -3 -3 -6 -5 -8 -2 -4 -3 -7 -7 -14 -1 -2 -4 -7 -5
-9 -1 -2 -3 -6 -4 -8 -1 -2 -3 -4 -3 -5 -1 -2 -5 -10 -10 -19 -2 -2 -3 -5 -3
-6 -1 0 -5 -4 -10 -9 -15 -13 -20 -19 -25 -29 -2 -2 -3 -4 -3 -4 0 0 -1 -2 -3
-5 -1 -2 -3 -6 -4 -7 -1 -2 -2 -5 -4 -7 -1 -2 -2 -4 -3 -6 -1 -3 -2 -4 -7 -13
-1 -2 -2 -4 -3 -5 0 -1 -2 -5 -4 -8 -2 -3 -3 -7 -4 -8 -3 -5 -21 -40 -23 -45
-1 -4 -3 -8 -4 -9 -1 -4 -6 -16 -7 -21 -4 -13 -7 -24 -8 -35 -2 -10 -2 -22 -1
-30 0 -6 2 -15 3 -18 3 -9 8 -21 17 -37 3 -4 5 -9 6 -11 1 -2 3 -5 4 -7 3 -5
7 -13 12 -23 7 -14 8 -16 11 -26 3 -9 4 -11 5 -19 2 -9 2 -11 2 -16 2 -12 2
-15 4 -22 3 -12 8 -20 14 -26 2 -2 4 -5 5 -6 2 -2 2 -2 2 -36 0 -25 0 -35 1
-35 0 -1 0 -2 -1 -3 -2 -2 -7 -5 -15 -7 -11 -2 -34 -4 -48 -3 -15 2 -26 4 -32
7 -2 1 -3 2 -4 3 -1 1 -1 1 -1 2 1 1 1 17 1 36 0 19 0 34 1 35 0 0 2 3 5 6 3
3 6 7 8 9 3 4 5 10 7 15 3 10 5 27 3 35 -2 15 -5 25 -11 39 -3 7 -5 11 -12 25
-6 11 -14 27 -16 33 -8 16 -12 31 -13 47 -1 8 0 24 1 33 1 11 5 27 8 39 2 6 7
18 10 26 2 5 13 26 16 32 1 2 3 5 4 7 1 2 2 4 3 5 0 0 1 2 2 5 1 2 4 7 7 11 2
4 5 8 5 10 2 3 7 12 13 22 2 3 4 6 4 6 0 0 1 2 2 4 2 3 7 11 10 16 0 1 2 3 2
4 1 2 2 3 2 3 0 0 1 3 3 6 1 3 2 5 2 6 0 0 0 0 0 1 2 2 4 9 6 15 0 1 0 3 1 4
0 0 0 2 1 3 0 1 0 2 1 3 0 0 0 1 0 1 0 1 0 2 1 2 0 0 0 -1 -1 -5 0 -2 -1 -5
-2 -7 0 -2 0 -5 -1 -7 0 -1 0 -3 0 -3 0 0 0 0 0 0 1 0 1 2 3 8 0 1 1 4 2 6 3
11 4 14 2 16 -1 0 -1 0 1 4 1 2 2 5 3 6 0 1 2 4 4 7 1 3 3 7 4 8 1 1 2 4 3 6
2 4 6 11 8 14 1 1 2 4 4 7 1 3 3 6 3 7 1 1 2 3 3 5 3 6 5 9 6 11 2 3 3 6 6 10
1 2 2 5 3 7 2 3 4 6 5 9 1 1 2 3 3 4 0 1 2 4 5 10 1 2 3 5 4 7 1 2 3 5 4 7 8
15 11 21 12 29 1 6 0 14 -2 18 -1 1 -1 3 -1 3 0 1 1 1 2 0 1 -1 2 -1 2 -1 0 0
1 1 2 2 2 1 2 1 2 3 0 2 0 4 1 5 1 2 1 4 1 6 0 1 0 2 1 2 0 0 2 1 3 1 3 1 4 1
5 3 2 1 2 2 2 4 0 2 0 4 0 6 0 2 0 2 2 3 2 0 3 1 6 3 1 1 3 3 3 4 0 1 1 3 1 5
0 4 0 4 2 5 3 1 6 3 7 6 1 1 2 3 2 5 0 1 0 3 0 3 1 0 2 1 3 1 2 0 4 1 6 4 2 2
4 6 4 9 0 1 0 1 1 1 4 0 9 3 10 8 1 2 2 2 2 2 0 -1 2 -1 4 -2 3 -1 3 -1 5 0 1
0 2 1 3 3 2 2 4 3 4 1z m-245 -831 c4 -3 16 -6 25 -7 9 -2 13 -2 20 -2 8 -1
23 0 30 1 8 1 16 3 21 5 3 1 7 3 8 4 0 0 1 1 1 1 1 0 1 -9 1 -54 0 -54 0 -54
-2 -55 -1 -1 -2 -2 -2 -2 -3 -2 -13 -5 -19 -5 -11 -2 -16 -2 -32 -2 -16 0 -24
0 -32 2 -2 0 -4 1 -6 1 -4 1 -10 3 -12 4 -1 0 -2 1 -3 2 -1 1 -1 1 -1 55 0 29
0 53 0 53 1 0 2 0 3 -1z"/>
<path d="M707 949 c-4 -1 -5 -2 -7 -4 -2 -2 -3 -3 -3 -5 -1 -3 -1 -3 0 -6 3
-8 13 -11 19 -6 5 5 5 12 1 17 -1 1 -3 2 -4 3 -2 1 -5 1 -6 1z m5 -6 c4 -3 4
-9 0 -12 -3 -1 -8 0 -10 3 -1 1 -1 4 0 6 1 1 2 2 2 3 2 1 6 1 8 0z"/>
<path d="M685 910 c-4 -1 -8 -5 -8 -9 -1 -5 2 -10 6 -12 2 -1 3 -1 6 -1 2 0 3
0 5 1 3 2 6 7 6 10 0 6 -5 11 -10 12 -1 0 -3 0 -5 -1z m6 -5 c1 0 2 -1 3 -2 1
-1 1 -2 1 -4 0 -2 0 -3 -2 -4 -2 -2 -4 -3 -7 -2 -1 0 -2 1 -2 1 -1 0 -2 2 -2
3 -1 1 -1 2 0 4 0 2 2 3 4 4 2 1 3 1 5 0z"/>
<path d="M662 867 c-1 -1 -3 -2 -3 -2 -2 -2 -4 -6 -4 -9 0 -4 4 -9 9 -10 3 -1
3 -1 6 0 2 0 3 1 5 3 2 1 3 3 3 5 1 3 1 3 0 5 -1 4 -3 7 -6 8 -3 1 -8 1 -10 0z
m9 -5 c1 -1 3 -3 3 -5 0 -2 -1 -4 -3 -6 -3 -2 -7 -1 -10 2 -1 2 -1 6 0 7 1 1
2 2 2 2 2 2 6 2 8 0z"/>
<path d="M621 823 c-1 -1 -1 -1 -1 -2 0 0 2 -2 4 -3 2 -1 4 -2 5 -2 3 -2 27
-14 27 -14 1 0 2 2 2 3 0 1 -2 2 -6 4 -9 4 -10 5 -20 10 -5 3 -10 5 -10 5 0 0
-1 0 -1 -1z"/>
<path d="M626 787 c-1 0 -1 -1 -1 -1 0 -1 -2 -6 -4 -9 -1 -2 -3 -3 -3 -3 -1 0
-1 0 -1 0 0 0 0 2 1 4 0 2 0 4 0 4 0 1 -1 1 -1 1 -2 0 -3 -1 -4 -7 0 -5 0 -6
-2 -9 -1 -3 -10 -19 -11 -21 -1 0 -2 -1 -2 -3 -1 -2 -2 -4 -3 -5 -1 -1 -1 -2
-2 -3 0 -1 -2 -4 -4 -7 -2 -3 -4 -6 -5 -8 0 -2 -2 -3 -2 -4 -1 -2 -11 -20 -18
-32 -1 -2 -3 -5 -4 -7 -2 -3 -13 -27 -16 -33 -3 -7 -9 -22 -11 -28 -4 -13 -7
-26 -8 -35 -1 -9 -1 -26 -1 -34 2 -12 4 -22 9 -35 3 -8 10 -22 15 -32 4 -6 10
-18 14 -26 5 -10 11 -24 13 -32 2 -7 3 -13 4 -21 1 -8 2 -20 2 -27 0 -7 1 -11
2 -14 1 -2 3 -4 5 -5 2 0 5 1 6 3 1 2 1 4 0 5 -1 1 -2 0 -3 -2 -1 -1 -2 -1 -3
0 -2 2 -2 6 -2 18 0 6 0 13 0 14 -1 2 -1 5 -2 8 0 5 -2 14 -3 18 0 2 -1 3 -1
4 -1 3 -4 13 -5 14 0 0 0 1 0 1 0 0 -1 2 -2 4 -3 7 -13 27 -15 30 -2 4 -13 25
-16 32 -3 6 -4 10 -7 17 -2 6 -3 11 -4 19 -1 5 -1 8 -1 21 0 11 0 15 1 20 3
24 9 43 22 71 2 4 14 27 17 32 2 3 5 9 7 13 1 1 2 4 3 6 2 1 3 4 4 5 2 4 3 6
5 9 1 2 2 4 2 4 0 0 1 1 2 3 0 1 2 3 3 5 0 2 4 7 7 13 7 11 9 16 12 21 1 2 3
4 6 6 2 2 4 5 5 6 0 1 1 4 2 7 2 5 2 6 0 6 -1 0 -2 0 -2 -1z"/>
<path d="M537 339 c-1 -1 -1 -2 0 -3 1 -1 6 -3 8 -3 1 0 3 1 2 2 0 1 -7 5 -8
5 0 0 -1 -1 -2 -1z"/>
<path d="M558 333 c-1 -1 -1 -3 0 -4 1 0 13 -2 23 -2 6 -1 15 0 24 1 5 1 6 1
7 2 0 1 0 2 0 2 0 1 -1 2 -2 2 0 0 -4 -1 -8 -1 -9 -1 -27 -1 -35 0 -8 1 -9 1
-9 0z"/>
</g>
</svg>