<svg version="1.1" id="Layer_1" xmlns="http://www.w3.org/2000/svg" xmlns:xlink="http://www.w3.org/1999/xlink" x="0px" y="0px"
	 width="100%" viewBox="0 0 368 352" enable-background="new 0 0 368 352" xml:space="preserve">
<path fill="#000000" opacity="1.000000" stroke="none" 
	d="
M294.531342,1.000000 
	C279.817078,2.188420 264.897675,6.106763 249.494080,5.203094 
	C246.440475,5.023950 245.474426,2.588027 243.215057,1.190625 
	C260.020905,1.000000 277.041779,1.000000 294.531342,1.000000 
z"/>
<path fill="#000000" opacity="1.000000" stroke="none" 
	d="
M132.531342,1.000000 
	C121.344147,5.066184 109.670815,6.983863 97.566467,2.500717 
	C94.558441,1.386624 91.022697,1.697338 87.364761,1.176570 
	C102.020897,1.000000 117.041786,1.000000 132.531342,1.000000 
z"/>
<path fill="#000000" opacity="1.000000" stroke="none" 
	d="
M1.000000,93.458069 
	C3.304662,94.586578 7.768053,92.812111 8.288466,96.789978 
	C8.876106,101.281693 4.037086,101.551842 1.311138,103.860344 
	C1.000000,100.638710 1.000000,97.277428 1.000000,93.458069 
z"/>
<path fill="#000000" opacity="1.000000" stroke="none" 
	d="
M140.356018,321.370667 
	C128.666122,329.938019 118.100197,339.474762 105.620712,346.312958 
	C97.774193,350.612579 88.984947,348.365967 84.401566,340.747253 
	C82.376869,337.381714 79.158356,334.768005 78.457428,330.498596 
	C77.959274,327.464203 77.496529,324.553070 78.764336,321.692780 
	C80.065170,318.757935 78.970917,316.474731 76.973206,314.494690 
	C71.334991,308.906372 63.826431,309.166229 58.126564,314.695038 
	C52.279274,320.366882 46.848354,326.474426 40.263073,331.391022 
	C32.618011,337.098907 23.547606,336.232452 16.925341,329.481842 
	C4.432266,316.746582 8.629139,307.580078 17.657833,298.521637 
	C24.242224,291.915558 30.565786,284.984100 37.657814,278.966339 
	C46.145794,271.764038 55.715591,266.834534 67.425499,271.197205 
	C69.630943,272.018890 70.832474,271.180725 71.821381,269.271851 
	C74.884056,263.360016 77.888756,257.410767 81.188248,251.631531 
	C83.359238,247.828903 81.995392,245.913071 78.461151,244.315216 
	C74.218842,242.397247 70.015038,240.351517 65.963699,238.061829 
	C54.781658,231.742111 49.157532,222.370453 50.339535,209.235489 
	C50.741543,204.768173 50.597481,200.251740 50.704014,195.757782 
	C50.840092,190.017517 50.196831,185.078918 46.813210,179.556000 
	C40.872070,169.858551 42.659447,158.548431 47.988213,148.975418 
	C51.614334,142.461182 53.979107,135.651794 56.352173,128.818909 
	C64.151924,106.360718 76.741478,87.115334 93.537888,70.397461 
	C100.051132,63.914665 106.983849,57.994320 114.247818,52.419727 
	C116.030968,51.051281 117.509888,49.794891 116.858635,47.082779 
	C116.081680,43.847225 119.032982,42.807728 121.024971,41.576435 
	C129.977966,36.042377 139.310013,31.033131 149.579300,28.666510 
	C157.932205,26.741531 162.956543,22.757618 163.417221,13.899047 
	C163.475983,12.768926 163.966003,11.653249 164.321732,10.552032 
	C164.413345,10.268399 164.753891,10.065166 165.086838,9.711624 
	C168.379120,10.330117 171.771423,10.889460 175.126343,11.620437 
	C178.237717,12.298352 181.028229,12.643052 182.612885,8.918979 
	C183.576660,6.654035 185.854141,7.003550 187.842682,6.894760 
	C211.665131,5.591454 234.617615,9.833728 256.884430,18.019699 
	C262.191071,19.970591 266.264832,24.113249 270.620789,27.638250 
	C271.143585,28.061312 271.490143,29.204855 271.336151,29.882097 
	C270.084167,35.388985 272.918488,39.484867 275.844147,43.641575 
	C278.279205,41.436729 280.676178,39.558983 280.649536,45.066795 
	C280.637970,47.460609 282.552826,47.938946 284.023956,48.923481 
	C295.428101,56.555538 306.117249,64.987724 314.384430,76.121384 
	C314.978943,76.922035 316.156708,77.859413 316.029419,78.539787 
	C314.411835,87.186234 321.400757,92.008553 324.996124,98.111267 
	C336.326782,117.343628 343.694031,137.759659 346.055603,159.984131 
	C346.659973,165.671860 349.572754,169.633224 354.595886,172.906326 
	C360.542267,176.781052 364.691833,182.648514 365.273682,190.124985 
	C365.952332,198.846069 364.697662,207.393982 362.113678,215.753525 
	C360.888123,219.718567 358.632568,222.900940 354.325562,223.198257 
	C349.610138,223.523758 346.025330,225.722488 342.356476,228.300812 
	C338.554169,230.972931 334.416809,233.087799 330.097351,234.932678 
	C324.335388,237.393692 319.873352,241.704941 315.899902,246.493515 
	C306.897095,257.343231 295.901581,263.903168 281.358521,264.946991 
	C261.427063,266.377533 241.504593,268.432343 221.531281,267.864899 
	C195.752274,267.132477 169.918716,266.351349 144.504364,261.182007 
	C142.718430,260.818756 141.277237,261.204132 139.728424,261.929810 
	C134.498550,264.380127 129.862320,268.041748 123.815910,268.866333 
	C121.486198,269.184052 120.800705,272.218414 119.672920,274.211334 
	C115.935318,280.816071 113.284233,288.045471 108.265526,294.021576 
	C113.429565,291.777832 117.608780,287.835022 123.069145,286.235565 
	C126.590370,285.204132 130.066254,284.170898 133.731110,283.691284 
	C141.176422,282.717010 145.981216,286.177246 149.862534,292.161560 
	C153.319046,297.490875 152.568726,302.454010 150.041748,307.728912 
	C147.639923,312.742523 144.696548,317.319397 140.356018,321.370667 
M320.312042,140.121994 
	C317.738861,125.856529 310.855865,113.220665 305.528290,99.960052 
	C300.480164,87.394974 288.446625,82.019417 280.358459,72.684174 
	C279.866455,72.116302 278.899109,71.767693 278.112518,71.680115 
	C274.204865,71.245010 271.548065,68.709938 268.704498,66.394936 
	C259.753326,59.107574 250.241318,52.654682 239.213333,48.969032 
	C223.190842,43.614166 206.643799,42.431549 189.957077,44.334797 
	C175.024200,46.038002 160.616028,49.988937 147.330887,57.194229 
	C144.119705,58.935841 141.397324,60.784931 137.698746,58.961037 
	C135.927032,58.087337 134.532013,59.126957 133.124847,60.085308 
	C107.950783,77.230270 89.665184,100.054832 77.460999,127.830803 
	C76.474113,130.076889 74.826149,132.486496 75.917465,135.464615 
	C81.234978,135.946136 85.574142,132.779160 90.639420,132.649109 
	C115.564796,132.009094 140.017532,136.245834 164.577377,139.375519 
	C168.346680,139.855865 171.884552,140.471756 174.551300,136.918427 
	C175.877335,135.151520 177.756165,135.425812 179.584976,135.668457 
	C181.725098,135.952408 183.847076,136.404648 185.993652,136.603241 
	C210.017990,138.825912 233.874573,142.224014 257.652588,146.308441 
	C265.079163,147.584137 272.514801,149.889908 280.307892,147.536682 
	C284.057556,146.404419 288.330994,147.439987 291.332153,149.637115 
	C299.588348,155.681427 309.623047,155.163910 318.716797,158.006042 
	C322.471649,159.179581 323.251312,157.312332 322.788086,154.220108 
	C322.122620,149.777969 321.303558,145.358841 320.312042,140.121994 
M137.196777,181.158157 
	C136.849716,181.315353 136.106430,180.883514 136.266098,181.770462 
	C136.284103,181.870453 136.529602,181.965683 136.683624,181.999771 
	C142.204544,183.221649 147.680450,184.747787 153.259659,185.583832 
	C163.611130,187.135040 172.099258,191.219803 178.280457,200.174271 
	C182.225372,205.889130 187.322342,210.814713 191.961670,216.041885 
	C194.566818,218.977112 197.726334,220.822556 201.721985,221.567871 
	C211.422974,223.377426 221.270157,223.341446 231.043091,223.989609 
	C238.497437,224.484039 242.583618,227.558151 244.239700,234.842529 
	C245.564911,240.671616 248.822601,245.865555 253.906082,248.981873 
	C264.114044,255.239594 275.907898,257.488312 287.469116,258.086578 
	C301.230255,258.798706 309.693054,248.219574 318.603088,239.527237 
	C320.357117,237.816055 320.441498,235.499039 318.881439,233.596329 
	C314.059967,227.715759 314.435150,221.010025 315.361084,214.108002 
	C315.812134,210.745850 315.892120,207.333893 316.165771,203.593689 
	C311.841461,204.982819 310.063721,209.527710 305.030426,208.308304 
	C285.459259,203.566833 265.617523,200.157562 245.679901,197.338547 
	C226.083374,194.567749 206.470398,191.912567 186.879562,189.102631 
	C178.941589,187.964081 170.505524,188.745285 163.593216,183.322205 
	C162.865906,182.751602 161.722672,182.528580 160.754501,182.476410 
	C153.114548,182.064926 145.529739,180.692017 137.196777,181.158157 
M90.649063,195.171249 
	C95.787964,189.932205 100.926865,184.693161 106.390701,179.122849 
	C102.367905,177.358734 98.796402,178.225723 95.422951,177.554504 
	C84.933266,175.467346 75.908768,179.972443 67.057205,184.539230 
	C63.100998,186.580368 63.241470,189.067825 66.912445,191.698303 
	C70.572159,194.320694 74.675117,196.113861 78.742851,198.016388 
	C83.304916,200.150085 87.028854,199.755325 90.649063,195.171249 
M335.438690,180.756775 
	C335.818268,172.744629 334.214874,165.416733 328.246429,159.541748 
	C327.585297,158.890961 327.198029,157.961990 326.422546,156.755768 
	C325.935577,167.595825 326.784668,178.021057 325.355682,188.361984 
	C324.630249,193.611511 323.976959,198.872177 323.381287,204.138016 
	C323.076172,206.835587 324.372955,208.595932 326.999481,209.272949 
	C329.548523,209.930023 329.999664,207.798447 330.795929,206.239502 
	C332.452911,202.995361 333.831177,199.598297 336.437714,196.916870 
	C337.119568,196.215378 337.720612,195.281387 337.166077,194.220184 
	C335.061401,190.192703 335.867188,185.818588 335.438690,180.756775 
M132.608917,208.060974 
	C131.235397,209.880356 129.861862,211.699738 127.522263,214.798813 
	C127.673393,208.097549 123.805908,207.529816 119.692482,207.262772 
	C119.219734,207.232071 118.746773,206.947586 118.306129,206.718704 
	C113.279015,204.107605 112.299324,208.252731 110.958755,211.311905 
	C109.337097,215.012497 111.885490,216.388062 114.846878,217.322815 
	C119.018639,218.639648 123.486786,217.243774 127.674835,218.699127 
	C128.104797,218.848541 129.129547,217.978592 129.546753,217.358551 
	C131.995010,213.720093 135.296295,213.327438 139.210999,214.408844 
	C141.106644,214.932510 143.607605,215.487991 144.440170,213.052673 
	C146.383148,207.369461 146.328873,201.584900 144.647202,195.479065 
	C138.379745,197.860916 136.425461,203.357376 132.608917,208.060974 
M89.326920,291.931213 
	C82.859451,296.249573 76.054993,300.360199 78.616028,310.204651 
	C80.232430,310.754486 82.055298,310.481110 83.576599,308.852417 
	C84.772903,307.571686 86.164803,307.022644 87.977745,307.005157 
	C94.004715,306.947083 100.718643,301.129547 102.247208,294.427643 
	C98.184738,293.336578 94.857971,289.500488 89.326920,291.931213 
M358.498199,186.809570 
	C356.734619,183.290680 354.794739,183.722946 352.535248,186.412186 
	C349.426605,190.111984 350.142822,194.520218 350.060181,198.778107 
	C350.028625,200.403076 349.875671,202.424591 352.188477,202.613235 
	C354.474030,202.799667 355.224426,201.030701 355.673706,199.131058 
	C356.589050,195.260925 357.529236,191.396667 358.498199,186.809570 
M115.437073,314.948181 
	C113.696510,316.477966 110.918877,317.073547 110.565971,320.076996 
	C115.290276,320.103363 136.351669,304.063141 137.656219,299.101471 
	C129.493271,303.486084 123.109467,309.519775 115.437073,314.948181 
M49.845757,294.151093 
	C47.952915,294.639221 45.859161,294.890625 45.733616,297.792053 
	C48.789982,299.882874 52.180786,300.655914 56.101566,300.500793 
	C56.732853,298.223755 57.334126,296.054932 57.936100,293.883606 
	C55.277576,292.107117 52.959240,293.595093 49.845757,294.151093 
M143.480194,250.890213 
	C143.421356,249.476974 143.062531,248.154724 141.421280,248.019852 
	C140.324707,247.929733 139.778671,248.946289 139.282242,249.815948 
	C138.224106,251.669632 137.196426,253.541977 136.088821,255.365707 
	C135.301941,256.661346 135.227325,257.875092 136.384995,258.919769 
	C137.570633,259.989685 138.814682,259.488495 140.036194,258.856812 
	C143.041916,257.302490 142.846512,254.271622 143.480194,250.890213 
M216.904144,150.310791 
	C218.004501,149.745071 219.104858,149.179352 220.841385,148.286560 
	C216.007553,147.064026 212.008163,146.762192 207.979950,148.089615 
	C211.382523,146.666138 213.546524,149.827393 216.904144,150.310791 
z"/>
</svg>