<svg version="1.1" id="Layer_1" xmlns="http://www.w3.org/2000/svg" xmlns:xlink="http://www.w3.org/1999/xlink" x="0px" y="0px"
	 width="100%" viewBox="0 0 864 848" enable-background="new 0 0 864 848" xml:space="preserve">
<path fill="#000000" opacity="1.000000" stroke="none" 
	d="
M66.546257,524.318359 
	C60.333744,493.914948 57.785053,463.583527 59.086403,433.032776 
	C61.989071,364.889038 81.198723,301.739990 118.076416,244.160950 
	C152.071106,191.083282 196.690918,149.158020 251.281052,117.844360 
	C277.228485,102.960556 304.761688,91.584747 333.531433,83.478653 
	C357.412292,76.750031 381.779968,72.394661 406.595276,70.631737 
	C428.410156,69.081970 450.233002,68.939384 471.970490,70.959343 
	C497.191223,73.302971 522.009338,78.049179 546.318970,85.433357 
	C582.762024,96.503136 616.833557,112.489113 648.356567,133.838303 
	C700.222961,168.965271 741.118591,214.113831 770.782166,269.266174 
	C790.002625,305.002167 802.995911,343.013367 809.938721,382.998901 
	C815.897156,417.315521 816.754333,451.860138 813.388855,486.511658 
	C810.300598,518.308289 803.414429,549.298767 792.100098,579.148560 
	C775.058960,624.107239 750.750244,664.692200 718.438293,700.536926 
	C687.395874,734.973145 651.370972,762.735840 610.291809,784.013000 
	C574.078125,802.770142 535.851624,815.442749 495.459442,821.511597 
	C454.793488,827.621643 414.217529,827.530823 373.650269,820.568481 
	C306.129120,808.980286 246.148575,781.229309 193.647720,737.203308 
	C153.780930,703.771912 122.229195,663.769409 98.870110,617.349487 
	C84.443436,588.680420 73.543427,558.708191 67.319031,527.135010 
	C67.158241,526.319458 66.880417,525.526855 66.546257,524.318359 
M736.933228,598.532166 
	C750.280823,572.274170 759.706604,544.659607 765.731140,515.842102 
	C769.554321,497.554382 772.023254,479.097626 772.637268,460.435669 
	C773.251282,441.774597 772.404297,423.194763 769.955872,404.622711 
	C766.985413,382.090088 762.066833,360.080078 754.714905,338.614563 
	C744.177673,307.848907 729.366150,279.283783 710.427124,252.817856 
	C679.025269,208.935959 639.505432,174.423859 591.638550,149.542206 
	C557.508972,131.801315 521.422729,120.258789 483.241882,114.949402 
	C449.966797,110.322212 416.862122,110.770294 383.740326,115.927818 
	C351.239746,120.988602 320.284180,130.976486 290.747437,145.341980 
	C242.414124,168.849365 201.835571,201.939346 169.367554,244.779404 
	C146.247864,275.284729 128.770401,308.786987 116.990669,345.274933 
	C108.560669,371.387024 103.123009,398.118683 101.578636,425.430542 
	C99.787621,457.104340 101.835823,488.582245 108.905609,519.720154 
	C117.053246,555.605408 130.033508,589.516174 149.232086,620.830872 
	C188.134186,684.283875 241.920380,730.589478 310.924042,758.881714 
	C347.317841,773.803467 385.189453,781.739319 424.550934,783.028198 
	C460.626892,784.209412 496.018951,780.223572 530.639526,770.120422 
	C557.433594,762.301147 582.913269,751.327209 606.985046,737.070251 
	C663.504700,703.595459 706.530701,657.501526 736.933228,598.532166 
z"/>
<path fill="#000000" opacity="1.000000" stroke="none" 
	d="
M297.237549,721.862061 
	C285.804291,715.946167 275.129669,709.497437 264.677032,702.637756 
	C261.088196,700.282532 261.026215,698.438721 263.378784,695.109070 
	C283.841064,666.148560 304.143677,637.075378 324.528442,608.060059 
	C345.391785,578.363586 366.305664,548.702637 387.170471,519.007141 
	C391.530090,512.802307 391.440277,512.829163 397.920197,516.378967 
	C424.681671,531.039062 451.340088,530.824890 477.672150,515.378113 
	C481.152283,513.336670 482.986359,513.421509 485.333893,516.782959 
	C505.920654,546.261169 526.641907,575.645386 547.320496,605.059509 
	C567.520203,633.792480 587.766418,662.492981 607.886719,691.281311 
	C614.771057,701.131592 614.594482,698.999512 605.321594,705.191345 
	C580.795471,721.568054 554.334961,733.952148 526.114075,742.467041 
	C505.837372,748.584961 485.112030,752.427246 463.977112,754.235962 
	C413.948853,758.517273 365.759613,751.253113 319.349823,732.016968 
	C311.955048,728.951904 304.759247,725.513123 297.237549,721.862061 
z"/>
<path fill="#000000" opacity="1.000000" stroke="none" 
	d="
M602.567749,191.414978 
	C634.122314,211.510315 660.685181,236.468750 682.850769,266.094086 
	C702.041382,291.743378 716.783875,319.803772 727.014282,350.151733 
	C735.329651,374.818756 740.929504,400.050385 742.425781,426.167999 
	C743.294373,441.330444 743.521179,456.428375 742.433960,471.576965 
	C742.169312,475.263855 740.944336,476.684021 737.320190,476.347473 
	C724.563110,475.162933 711.798279,474.062836 699.037354,472.919098 
	C678.320679,471.062347 657.604553,469.200378 636.888794,467.333496 
	C612.692871,465.153015 588.499451,462.943512 564.301270,460.788086 
	C549.721924,459.489502 535.146606,458.108704 520.545776,457.110779 
	C516.023987,456.801727 514.670532,455.190643 514.701111,450.700623 
	C514.909607,420.082001 501.301910,397.171539 475.332489,381.352264 
	C469.533264,377.819702 469.419098,377.798981 472.386414,371.385834 
	C484.270142,345.701904 496.226166,320.051422 508.144928,294.383667 
	C520.126709,268.580200 532.070007,242.758865 544.080994,216.969009 
	C550.546021,203.087280 557.146667,189.268692 563.617004,175.389359 
	C564.927856,172.577469 566.352234,171.006775 569.705933,172.754257 
	C580.779541,178.524460 591.906860,184.188477 602.567749,191.414978 
z"/>
<path fill="#000000" opacity="1.000000" stroke="none" 
	d="
M385.474976,390.468323 
	C367.891327,406.908936 358.576080,426.636597 359.308868,450.584747 
	C359.458313,455.468903 357.624115,456.726257 353.042542,457.109406 
	C320.200989,459.855896 287.385773,462.915222 254.555786,465.802460 
	C222.724945,468.601837 190.885208,471.300018 159.052277,474.075958 
	C151.756561,474.712128 144.467346,475.434479 137.185638,476.215210 
	C133.439407,476.616821 131.896164,475.330627 131.612961,471.326874 
	C129.532089,441.909027 131.447708,412.778625 137.661652,383.965485 
	C146.661392,342.234985 163.589737,304.021515 188.664886,269.404694 
	C218.683899,227.962753 256.853088,196.309631 302.587250,173.547028 
	C306.869904,171.415482 308.910400,171.913437 310.931793,176.331772 
	C323.050903,202.821121 335.379944,229.214539 347.665771,255.627487 
	C358.053192,277.959137 368.490204,300.267731 378.881134,322.597748 
	C386.816742,339.651398 394.675873,356.740814 402.665619,373.768982 
	C404.068054,376.757996 403.705719,378.632172 400.620178,380.200745 
	C395.263947,382.923492 390.322906,386.330688 385.474976,390.468323 
z"/>
<path fill="#000000" opacity="1.000000" stroke="none" 
	d="
M471.428955,423.656860 
	C491.083069,452.716309 473.342346,489.346039 438.662750,492.039612 
	C416.664948,493.748169 395.637207,473.998047 394.466766,452.015228 
	C393.163452,427.537292 410.618896,407.921417 434.749664,406.272736 
	C449.689026,405.252045 461.856079,411.698578 471.428955,423.656860 
z"/>
</svg>