<svg version="1.1" id="Layer_1" xmlns="http://www.w3.org/2000/svg" xmlns:xlink="http://www.w3.org/1999/xlink" x="0px" y="0px"
	 width="100%" viewBox="0 0 298 240" enable-background="new 0 0 298 240" xml:space="preserve">
<path fill="none" opacity="1.000000" stroke="#000000" stroke-linecap="round" stroke-linejoin="round" stroke-width="5.000000"
	d="
M164.000000,173.500000 
	C178.453552,172.270493 189.312851,165.447937 195.941010,152.469864 
	C198.431625,147.593170 200.649307,142.478149 201.452194,136.992996 
	C202.339752,130.929520 198.993546,125.629471 196.725479,120.624405 
	C192.124527,110.471230 184.422394,103.004753 173.016251,99.939529 
	C155.594772,95.257767 139.571869,101.341942 130.609894,116.066879 
	C118.892471,135.319107 125.579872,157.038818 143.049362,167.920746 
	C148.109451,171.072739 153.735672,173.324905 160.001480,173.031540 
	C161.157806,172.977402 162.333328,173.333344 163.500000,173.500015 
"/>
<path fill="none" opacity="1.000000" stroke="#000000" stroke-linecap="round" stroke-linejoin="round" stroke-width="6.000000"
	d="
M108.000000,79.000000 
	C103.500000,75.000000 99.103767,70.874237 94.462799,67.045082 
	C91.466690,64.573051 87.779549,63.047333 84.411736,61.157269 
	C79.658203,58.489529 73.432541,62.658661 72.525444,68.503952 
	C72.348656,69.643181 72.500000,70.833336 72.500000,72.000000 
	C72.500000,114.666664 72.560829,157.333542 72.415398,199.999710 
	C72.399040,204.798340 74.211533,208.741516 78.107277,210.216705 
	C81.221191,211.395859 84.989761,210.447632 88.641640,208.233627 
	C95.281487,204.208115 100.567604,198.751190 106.457016,193.947296 
	C107.343575,193.224136 107.942230,193.183548 109.000282,193.188370 
	C143.499939,193.346359 177.999985,193.423294 212.500015,193.496231 
	C223.833282,193.520187 235.166702,193.513672 246.499985,193.493698 
	C251.473618,193.484940 252.121948,193.049347 251.941010,188.002121 
	C251.666122,180.334625 252.893646,172.639465 251.133011,164.969467 
	C250.604416,162.666794 252.062347,160.099091 252.052689,157.499802 
	C251.963379,133.500137 252.001892,109.500000 251.998734,85.500000 
	C251.997864,78.846626 251.584763,78.043495 245.000641,78.090279 
	C236.001495,78.154198 226.961517,77.145088 217.983383,78.915764 
	C215.929474,79.320839 213.666809,78.523666 211.499985,78.521500 
	C180.166687,78.490112 148.833328,78.499992 117.500000,78.500000 
	C107.499992,78.500000 107.500000,78.500008 107.500000,88.500000 
	C107.500000,121.500000 107.488274,154.500015 107.534454,187.499954 
	C107.536766,189.156647 106.941299,190.922531 108.000000,192.500000 
"/>
<path fill="none" opacity="1.000000" stroke="#000000" stroke-linecap="round" stroke-linejoin="round" stroke-width="5.000000"
	d="
M88.500000,65.000000 
	C87.282631,67.356529 86.965187,69.850334 86.968193,72.500038 
	C87.013947,112.833321 86.965675,153.166748 87.047935,193.499908 
	C87.057144,198.015762 86.095909,202.711563 88.500000,207.000000 
"/>
<path fill="none" opacity="1.000000" stroke="#000000" stroke-linecap="round" stroke-linejoin="round" stroke-width="6.000000"
	d="
M217.500000,80.000000 
	C217.500000,106.000000 217.500000,132.000000 217.500000,158.000000 
	C217.500000,167.666672 217.512680,177.333359 217.487915,186.999969 
	C217.483612,188.674561 217.801270,190.396790 217.000000,192.000000 
"/>
<path fill="none" opacity="1.000000" stroke="#000000" stroke-linecap="round" stroke-linejoin="round" stroke-width="6.000000"
	d="
M184.500000,136.000000 
	C170.337280,135.244446 156.169617,135.331192 142.000000,135.750000 
"/>
<path fill="none" opacity="1.000000" stroke="#000000" stroke-linecap="round" stroke-linejoin="round" stroke-width="6.000000"
	d="
M183.500000,124.500000 
	C169.666672,124.416664 155.833328,124.333336 142.000000,124.250000 
"/>
<path fill="none" opacity="1.000000" stroke="#000000" stroke-linecap="round" stroke-linejoin="round" stroke-width="6.000000"
	d="
M183.000000,147.250000 
	C169.333328,147.662796 155.666672,147.662796 142.000000,147.250000 
"/>
<path fill="none" opacity="1.000000" stroke="#000000" stroke-linecap="round" stroke-linejoin="round" stroke-width="6.000000"
	d="
M219.000000,164.500000 
	C229.333328,164.500000 239.666672,164.500000 250.000000,164.500000 
"/>
<path fill="none" opacity="1.000000" stroke="#000000" stroke-linecap="round" stroke-linejoin="round" stroke-width="5.000000"
	d="
M242.500000,107.000000 
	C237.546188,105.447838 232.454010,108.046463 227.500000,106.500000 
"/>
<path fill="none" opacity="1.000000" stroke="#000000" stroke-linecap="round" stroke-linejoin="round" stroke-width="6.000000"
	d="
M241.500000,95.500000 
	C236.833328,95.500000 232.166672,95.500000 227.500000,95.500000 
"/>
</svg>