<svg version="1.1" id="Layer_1" xmlns="http://www.w3.org/2000/svg" xmlns:xlink="http://www.w3.org/1999/xlink" x="0px" y="0px"
	 width="100%" viewBox="0 0 520 440" enable-background="new 0 0 520 440" xml:space="preserve">
<path fill="#F6F6F6" opacity="1.000000" stroke="none" 
	d="
M7.000000,1.000000 
	C174.691574,1.000000 342.383148,1.000000 510.547394,1.411853 
	C511.680054,9.055266 512.877319,16.284546 512.908020,23.518776 
	C513.049194,56.782024 512.864807,90.046654 512.465210,123.167908 
	C510.597351,119.802406 509.490143,116.268044 507.425873,113.429688 
	C504.272675,109.094017 502.712982,103.212013 496.718719,101.322990 
	C496.704987,101.292885 496.654114,101.250511 496.741760,100.887207 
	C495.784515,99.836548 494.739563,99.149178 493.654724,98.425644 
	C493.614777,98.389481 493.537598,98.314255 493.644409,97.960938 
	C491.091705,95.820953 488.432251,94.034279 485.483673,92.046257 
	C479.157196,89.486832 473.119781,87.128754 467.071625,84.402176 
	C465.217743,80.057281 462.263947,80.423958 458.538361,81.972778 
	C442.150604,81.946770 426.231018,82.010933 410.313904,81.842308 
	C405.631439,81.792709 400.636536,82.125412 396.946411,77.579491 
	C392.427216,70.975082 388.112274,64.643387 383.777100,58.325573 
	C375.673706,46.516308 369.177399,33.445190 357.156525,24.723055 
	C348.114471,18.162279 338.316040,13.618774 326.934357,12.563419 
	C324.888824,11.448523 322.901154,10.099257 320.906891,10.089415 
	C292.342377,9.948450 263.776978,9.985842 235.211777,9.985432 
	C222.257797,9.985246 209.303818,10.007967 196.349869,9.992018 
	C193.897705,9.988998 191.440170,9.845761 191.511963,13.474083 
	C189.047058,13.603788 187.017456,13.757333 184.806000,13.627828 
	C183.504837,13.323350 182.385498,13.301923 180.875885,13.193623 
	C179.661041,14.087927 178.836487,15.069105 177.882111,16.212587 
	C177.752289,16.374891 177.384689,16.568933 177.002106,16.373798 
	C173.344437,17.448971 169.853577,18.341513 166.837067,20.064518 
	C159.490784,24.260662 153.090759,29.653494 148.292175,36.738987 
	C143.036987,44.498711 137.681534,52.196152 132.641861,60.094353 
	C128.902985,65.953949 125.598755,72.090866 122.013809,78.287842 
	C121.926697,78.471420 121.695953,78.805977 121.340248,78.846085 
	C117.934654,79.876114 114.899170,81.668686 111.832489,81.723763 
	C93.892532,82.045959 75.945274,81.961571 57.776279,81.744431 
	C55.671448,82.275673 53.790821,83.076874 51.592323,83.944252 
	C50.853043,84.437912 50.431637,84.865402 49.737839,85.349243 
	C49.096497,85.442688 48.727554,85.479767 47.981735,85.353409 
	C42.546604,87.379539 37.118473,88.981445 32.508385,91.883072 
	C23.387587,97.623787 15.648630,104.933876 11.062040,115.367203 
	C10.996449,116.114319 10.980648,116.543312 10.647387,117.012672 
	C9.910632,118.037056 9.491338,119.021072 8.990046,120.338425 
	C8.590930,121.769554 8.273813,122.867340 7.608062,123.973969 
	C6.574650,124.088730 5.889873,124.194641 5.145831,123.816360 
	C5.960503,82.558479 2.758141,41.721020 7.000000,1.000000 
z"/>
<path fill="#F3F3F3" opacity="1.000000" stroke="none" 
	d="
M507.000000,441.000000 
	C342.308411,441.000000 177.616852,441.000000 12.457924,440.620605 
	C7.328138,430.305298 5.177087,419.955750 5.908872,408.898651 
	C6.391522,401.605896 6.037281,394.255035 5.984351,386.930695 
	C5.953560,382.669891 5.777807,378.410095 5.954477,374.390991 
	C6.801828,375.819794 7.457015,376.972656 7.906957,378.200714 
	C11.182490,387.140900 16.007904,395.093506 22.888556,401.723206 
	C36.212997,414.561523 52.583611,419.477112 70.611977,419.486023 
	C196.440659,419.548035 322.269440,419.555573 448.097992,419.419739 
	C455.029877,419.412262 462.186371,418.813049 468.845001,417.024719 
	C483.589294,413.064758 495.441772,404.475677 503.844177,391.599365 
	C507.041534,386.699524 509.605835,381.386627 512.604248,376.758667 
	C512.832336,386.882141 513.095703,396.511932 512.936035,406.134735 
	C512.823853,412.895325 512.604187,419.720490 511.550934,426.377350 
	C510.761566,431.366699 508.568268,436.133881 507.000000,441.000000 
z"/>
<path fill="#FFFFFF" opacity="1.000000" stroke="none" 
	d="
M507.474121,441.000000 
	C508.568268,436.133881 510.761566,431.366699 511.550934,426.377350 
	C512.604187,419.720490 512.823853,412.895325 512.936035,406.134735 
	C513.095703,396.511932 512.832336,386.882141 512.621216,376.368835 
	C512.689941,370.653687 512.887268,365.825104 513.094849,360.528137 
	C513.121948,288.535034 513.139526,217.010269 513.146606,145.485504 
	C513.146667,144.659897 513.011292,143.834290 513.046265,142.591522 
	C513.092041,140.455048 513.030762,138.735703 513.089172,136.606964 
	C513.103271,134.498291 512.997681,132.799011 512.992004,130.665482 
	C512.993713,127.924408 512.895447,125.617599 512.797241,123.310791 
	C512.864807,90.046654 513.049194,56.782024 512.908020,23.518776 
	C512.877319,16.284546 511.680054,9.055266 511.010040,1.411853 
	C514.330139,1.000000 517.660217,1.000000 520.967834,1.000000 
	C520.967834,147.666672 520.967834,294.333344 520.967834,441.000000 
	C516.606506,441.000000 512.277405,441.000000 507.474121,441.000000 
z"/>
<path fill="#FFFFFF" opacity="1.000000" stroke="none" 
	d="
M5.667280,374.149841 
	C5.777807,378.410095 5.953560,382.669891 5.984351,386.930695 
	C6.037281,394.255035 6.391522,401.605896 5.908872,408.898651 
	C5.177087,419.955750 7.328138,430.305298 11.995285,440.620605 
	C8.337340,441.000000 4.674681,441.000000 1.009016,441.000000 
	C1.006010,294.333344 1.006010,147.666672 1.006307,1.000000 
	C2.671422,1.000000 4.336240,1.000000 6.500528,1.000000 
	C2.758141,41.721020 5.960503,82.558479 5.135336,124.236229 
	C5.326311,126.871132 5.468517,128.601990 5.534946,130.747375 
	C5.501020,132.833450 5.542869,134.505005 5.504605,136.597885 
	C5.547085,138.412567 5.669677,139.805923 5.676977,141.639893 
	C5.523812,143.078506 5.452900,144.076492 5.452778,145.074478 
	C5.444167,215.503403 5.438936,285.932312 5.453290,356.361237 
	C5.453592,357.847046 5.685359,359.332764 5.601203,361.175110 
	C5.451086,362.627258 5.508912,363.722839 5.415811,365.246002 
	C5.399015,368.498993 5.533147,371.324402 5.667280,374.149841 
z"/>
<path fill="#656565" opacity="1.000000" stroke="none" 
	d="
M512.892090,131.099762 
	C512.997681,132.799011 513.103271,134.498291 512.748474,136.536530 
	C511.233368,135.241013 510.178680,133.606522 509.125732,131.574463 
	C508.763702,129.444519 508.399902,127.712143 508.029938,125.610199 
	C507.071533,122.756569 506.119263,120.272499 505.109070,117.448303 
	C503.949768,115.461418 502.874512,113.796448 501.742645,112.170906 
	C495.282928,102.893784 487.302338,94.762802 476.918579,90.675980 
	C468.954834,87.541626 459.845795,86.522835 451.177338,86.146423 
	C435.378967,85.460411 419.528625,86.034782 403.702637,85.851219 
	C401.421448,85.824760 398.236389,85.213753 397.047302,83.663284 
	C392.779541,78.098572 389.325409,71.919701 385.313538,66.146851 
	C377.431244,54.804638 369.871155,43.185757 361.241058,32.433155 
	C354.669647,24.245565 345.088287,19.951841 334.797791,16.870209 
	C332.098267,15.591469 329.579651,14.632272 327.024231,13.494663 
	C326.987396,13.316252 326.989166,12.951910 326.989166,12.951910 
	C338.316040,13.618774 348.114471,18.162279 357.156525,24.723055 
	C369.177399,33.445190 375.673706,46.516308 383.777100,58.325573 
	C388.112274,64.643387 392.427216,70.975082 396.924316,77.967529 
	C397.609192,82.609253 400.849457,83.806145 403.842010,83.832130 
	C422.284241,83.992310 440.729431,83.813721 459.523285,83.804688 
	C460.581970,83.905037 461.290985,83.948479 462.202789,84.242836 
	C463.025909,84.494385 463.646210,84.495026 464.612213,84.585724 
	C465.666046,84.707420 466.374237,84.739052 467.082397,84.770683 
	C473.119781,87.128754 479.157196,89.486832 485.577026,92.369064 
	C488.485535,94.700226 491.011566,96.507233 493.537598,98.314255 
	C493.537598,98.314255 493.614777,98.389481 493.732147,98.717728 
	C494.784393,99.780830 495.719238,100.515671 496.654114,101.250511 
	C496.654114,101.250511 496.704987,101.292885 496.777039,101.650513 
	C503.359100,109.931320 508.902374,118.353607 510.991943,128.644409 
	C511.176605,129.553970 512.237915,130.285522 512.892090,131.099762 
z"/>
<path fill="#D7D7D7" opacity="1.000000" stroke="none" 
	d="
M191.947235,13.497922 
	C191.440170,9.845761 193.897705,9.988998 196.349869,9.992018 
	C209.303818,10.007967 222.257797,9.985246 235.211777,9.985432 
	C263.776978,9.985842 292.342377,9.948450 320.906891,10.089415 
	C322.901154,10.099257 324.888824,11.448523 326.934357,12.563419 
	C326.989166,12.951910 326.987396,13.316252 326.617645,13.399158 
	C281.481018,13.487350 236.714127,13.492636 191.947235,13.497922 
z"/>
<path fill="#404040" opacity="1.000000" stroke="none" 
	d="
M121.695953,78.805977 
	C121.695953,78.805977 121.926697,78.471420 122.363686,78.279114 
	C123.514412,77.413559 124.390724,76.847740 124.917328,76.050827 
	C132.049194,65.258217 138.973343,54.324440 146.284744,43.655762 
	C151.022751,36.742134 155.403122,29.323612 163.727448,26.060221 
	C157.319717,34.182060 150.382919,41.644386 144.428314,49.821911 
	C138.106979,58.503071 132.334869,67.646049 127.039474,76.993286 
	C122.602753,84.824821 116.865746,87.612511 107.777260,87.075836 
	C93.184158,86.214111 78.502777,86.844360 63.858700,86.850029 
	C54.522217,86.853645 45.592171,88.765350 37.619934,93.673233 
	C26.174707,100.719177 16.474897,109.379196 12.826303,123.121368 
	C12.524626,124.257607 10.992368,125.067123 9.974651,125.644821 
	C10.941027,121.838425 11.964625,118.415634 13.158885,114.704254 
	C20.158484,104.589111 27.875126,95.717850 38.923862,90.370651 
	C42.106380,88.830421 45.215721,87.138969 48.358608,85.516853 
	C48.727554,85.479767 49.096497,85.442688 50.008579,85.588455 
	C57.809944,85.214508 65.061699,84.310913 72.327789,84.175377 
	C86.120277,83.918114 99.921082,84.130287 113.718193,84.081108 
	C117.454964,84.067795 121.142868,83.744286 121.695953,78.805977 
z"/>
<path fill="#404040" opacity="1.000000" stroke="none" 
	d="
M191.511963,13.474083 
	C236.714127,13.492636 281.481018,13.487350 326.654480,13.577570 
	C329.579651,14.632272 332.098267,15.591469 334.520935,17.096348 
	C328.365540,17.064703 322.307983,16.012138 316.246246,15.987578 
	C278.353912,15.834049 240.460464,15.854697 202.567917,15.977844 
	C197.644150,15.993846 192.729599,17.013550 187.796875,17.382488 
	C186.538956,17.476572 185.227798,16.859007 183.925354,16.269356 
	C184.269012,15.283823 184.628433,14.597351 184.987839,13.910878 
	C187.017456,13.757333 189.047058,13.603788 191.511963,13.474083 
z"/>
<path fill="#A7A7A7" opacity="1.000000" stroke="none" 
	d="
M163.630478,25.715351 
	C155.403122,29.323612 151.022751,36.742134 146.284744,43.655762 
	C138.973343,54.324440 132.049194,65.258217 124.917328,76.050827 
	C124.390724,76.847740 123.514412,77.413559 122.450790,78.095535 
	C125.598755,72.090866 128.902985,65.953949 132.641861,60.094353 
	C137.681534,52.196152 143.036987,44.498711 148.292175,36.738987 
	C153.090759,29.653494 159.490784,24.260662 166.837067,20.064518 
	C169.853577,18.341513 173.344437,17.448971 176.870178,16.681561 
	C172.991135,19.677299 168.861450,22.170139 164.509003,24.793983 
	C164.067657,25.188440 163.849075,25.451897 163.630478,25.715351 
z"/>
<path fill="#A7A7A7" opacity="1.000000" stroke="none" 
	d="
M121.340248,78.846085 
	C121.142868,83.744286 117.454964,84.067795 113.718193,84.081108 
	C99.921082,84.130287 86.120277,83.918114 72.327789,84.175377 
	C65.061699,84.310913 57.809944,85.214508 50.280975,85.532104 
	C50.431637,84.865402 50.853043,84.437912 51.965767,83.957794 
	C54.438213,83.274902 56.219349,82.644646 58.000481,82.014397 
	C75.945274,81.961571 93.892532,82.045959 111.832489,81.723763 
	C114.899170,81.668686 117.934654,79.876114 121.340248,78.846085 
z"/>
<path fill="#9D9D9D" opacity="1.000000" stroke="none" 
	d="
M459.173615,83.747780 
	C440.729431,83.813721 422.284241,83.992310 403.842010,83.832130 
	C400.849457,83.806145 397.609192,82.609253 397.119415,78.246513 
	C400.636536,82.125412 405.631439,81.792709 410.313904,81.842308 
	C426.231018,82.010933 442.150604,81.946770 458.541016,82.271179 
	C459.066376,82.963158 459.119995,83.355469 459.173615,83.747780 
z"/>
<path fill="#A7A7A7" opacity="1.000000" stroke="none" 
	d="
M47.981735,85.353409 
	C45.215721,87.138969 42.106380,88.830421 38.923862,90.370651 
	C27.875126,95.717850 20.158484,104.589111 12.845881,114.704254 
	C11.945422,115.011581 11.528627,115.030327 11.111833,115.049072 
	C15.648630,104.933876 23.387587,97.623787 32.508385,91.883072 
	C37.118473,88.981445 42.546604,87.379539 47.981735,85.353409 
z"/>
<path fill="#B9B9B9" opacity="1.000000" stroke="none" 
	d="
M512.992004,130.665497 
	C512.237915,130.285522 511.176605,129.553970 510.991943,128.644409 
	C508.902374,118.353607 503.359100,109.931320 496.790771,101.680618 
	C502.712982,103.212013 504.272675,109.094017 507.425873,113.429688 
	C509.490143,116.268044 510.597351,119.802406 512.465210,123.167908 
	C512.895447,125.617599 512.993713,127.924408 512.992004,130.665497 
z"/>
<path fill="#848484" opacity="1.000000" stroke="none" 
	d="
M11.062040,115.367203 
	C11.528627,115.030327 11.945422,115.011581 12.675220,114.992844 
	C11.964625,118.415634 10.941027,121.838425 9.861827,125.905746 
	C9.657265,127.918785 9.508305,129.287277 9.100492,130.822205 
	C7.755999,132.717926 6.670359,134.447235 5.584719,136.176544 
	C5.542869,134.505005 5.501020,132.833450 5.822207,130.577789 
	C6.775728,127.984161 7.366212,125.974648 7.956697,123.965126 
	C8.273813,122.867340 8.590930,121.769554 9.295177,120.222717 
	C10.109820,118.839874 10.537333,117.906090 10.964848,116.972305 
	C10.980648,116.543312 10.996449,116.114319 11.062040,115.367203 
z"/>
<path fill="#404040" opacity="1.000000" stroke="none" 
	d="
M164.731766,24.662981 
	C168.861450,22.170139 172.991135,19.677299 177.252747,16.876696 
	C177.384689,16.568933 177.752289,16.374891 178.026810,16.364651 
	C178.301331,16.354410 178.721237,16.350805 178.809052,16.650251 
	C178.931137,17.154898 178.965378,17.360098 178.950134,17.878883 
	C175.039810,22.237179 170.149948,24.028521 164.731766,24.662981 
z"/>
<path fill="#D1D1D1" opacity="1.000000" stroke="none" 
	d="
M459.523285,83.804688 
	C459.119995,83.355469 459.066376,82.963158 459.010132,82.272446 
	C462.263947,80.423958 465.217743,80.057281 467.071625,84.402176 
	C466.374237,84.739052 465.666046,84.707420 464.499268,84.351578 
	C463.360443,84.015564 462.680206,84.003746 462.000000,83.991928 
	C461.290985,83.948479 460.581970,83.905037 459.523285,83.804688 
z"/>
<path fill="#B9B9B9" opacity="1.000000" stroke="none" 
	d="
M493.644409,97.960938 
	C491.011566,96.507233 488.485535,94.700226 485.866150,92.570419 
	C488.432251,94.034279 491.091705,95.820953 493.644409,97.960938 
z"/>
<path fill="#A7A7A7" opacity="1.000000" stroke="none" 
	d="
M178.999634,17.565296 
	C178.965378,17.360098 178.931137,17.154898 179.110626,16.448303 
	C179.971649,15.058106 180.618912,14.169303 181.266174,13.280499 
	C182.385498,13.301923 183.504837,13.323350 184.806000,13.627829 
	C184.628433,14.597351 184.269012,15.283823 183.516281,16.369894 
	C181.748520,17.034760 180.374084,17.300028 178.999634,17.565296 
z"/>
<path fill="#C2C2C2" opacity="1.000000" stroke="none" 
	d="
M7.608062,123.973969 
	C7.366212,125.974648 6.775728,127.984161 5.897984,130.163269 
	C5.468517,128.601990 5.326311,126.871132 5.194600,124.720413 
	C5.889873,124.194641 6.574650,124.088730 7.608062,123.973969 
z"/>
<path fill="#D1D1D1" opacity="1.000000" stroke="none" 
	d="
M57.776279,81.744431 
	C56.219349,82.644646 54.438213,83.274902 52.283638,83.891617 
	C53.790821,83.076874 55.671448,82.275673 57.776279,81.744431 
z"/>
<path fill="#D7D7D7" opacity="1.000000" stroke="none" 
	d="
M180.875885,13.193624 
	C180.618912,14.169303 179.971649,15.058106 179.022812,16.148857 
	C178.721237,16.350805 178.301331,16.354410 178.156631,16.202347 
	C178.836487,15.069105 179.661041,14.087927 180.875885,13.193624 
z"/>
<path fill="#C2C2C2" opacity="1.000000" stroke="none" 
	d="
M10.647387,117.012672 
	C10.537333,117.906090 10.109820,118.839874 9.377176,119.889374 
	C9.491338,119.021072 9.910632,118.037056 10.647387,117.012672 
z"/>
<path fill="#B9B9B9" opacity="1.000000" stroke="none" 
	d="
M496.741760,100.887207 
	C495.719238,100.515671 494.784393,99.780830 493.772095,98.753899 
	C494.739563,99.149178 495.784515,99.836548 496.741760,100.887207 
z"/>
<path fill="#848484" opacity="1.000000" stroke="none" 
	d="
M5.954477,374.390991 
	C5.533147,371.324402 5.399015,368.498993 5.695530,365.362915 
	C7.076388,366.368622 8.026599,367.684998 9.020302,369.399689 
	C9.391044,371.852203 9.718291,373.906433 10.014616,376.322815 
	C10.956906,378.790283 11.930120,380.895569 12.966976,383.341858 
	C14.264916,385.560974 15.499213,387.439148 16.747921,389.645752 
	C17.681276,391.086090 18.600216,392.197998 19.627377,393.638428 
	C21.381134,395.820374 23.026674,397.673767 24.775965,399.774170 
	C25.432352,400.449982 25.984987,400.878754 26.786383,401.575928 
	C28.777689,402.786438 30.710207,403.491241 32.231853,404.709290 
	C41.838661,412.399689 53.075264,415.584106 65.029495,415.595612 
	C194.680145,415.720337 324.330963,415.683502 453.981720,415.621246 
	C457.437469,415.619598 460.900177,414.887695 464.346924,414.405212 
	C474.104736,413.039246 482.819397,408.690552 490.045715,402.523499 
	C496.038269,397.409302 501.118408,390.800293 505.186462,384.005615 
	C507.927094,379.428101 508.040436,373.325531 509.653107,368.003326 
	C510.397461,365.546692 511.916656,363.324799 513.084595,360.996460 
	C512.887268,365.825104 512.689941,370.653687 512.475647,375.872131 
	C509.605835,381.386627 507.041534,386.699524 503.844177,391.599365 
	C495.441772,404.475677 483.589294,413.064758 468.845001,417.024719 
	C462.186371,418.813049 455.029877,419.412262 448.097992,419.419739 
	C322.269440,419.555573 196.440659,419.548035 70.611977,419.486023 
	C52.583611,419.477112 36.212997,414.561523 22.888556,401.723206 
	C16.007904,395.093506 11.182490,387.140900 7.906957,378.200714 
	C7.457015,376.972656 6.801828,375.819794 5.954477,374.390991 
z"/>
<path fill="#010101" opacity="1.000000" stroke="none" 
	d="
M16.733517,389.317322 
	C15.499213,387.439148 14.264916,385.560974 13.213315,383.127808 
	C12.846266,380.081421 13.976422,376.738770 10.045538,375.960632 
	C9.718291,373.906433 9.391044,371.852203 9.296425,369.175262 
	C9.749113,365.272278 9.979039,361.987305 5.809146,360.818542 
	C5.685359,359.332764 5.453592,357.847046 5.453290,356.361237 
	C5.438936,285.932312 5.444167,215.503403 5.452778,145.074478 
	C5.452900,144.076492 5.523812,143.078506 6.004008,141.601288 
	C9.753209,138.283417 10.578559,134.754120 9.359344,130.655777 
	C9.508305,129.287277 9.657265,127.918785 9.919050,126.289368 
	C10.992368,125.067123 12.524626,124.257607 12.826303,123.121368 
	C16.474897,109.379196 26.174707,100.719177 37.619934,93.673233 
	C45.592171,88.765350 54.522217,86.853645 63.858700,86.850029 
	C78.502777,86.844360 93.184158,86.214111 107.777260,87.075836 
	C116.865746,87.612511 122.602753,84.824821 127.039474,76.993286 
	C132.334869,67.646049 138.106979,58.503071 144.428314,49.821911 
	C150.382919,41.644386 157.319717,34.182060 163.727448,26.060223 
	C163.849075,25.451897 164.067657,25.188440 164.509003,24.793983 
	C170.149948,24.028521 175.039810,22.237179 178.950134,17.878881 
	C180.374084,17.300028 181.748520,17.034760 183.532043,16.668953 
	C185.227798,16.859007 186.538956,17.476572 187.796875,17.382488 
	C192.729599,17.013550 197.644150,15.993846 202.567917,15.977844 
	C240.460464,15.854697 278.353912,15.834049 316.246246,15.987578 
	C322.307983,16.012138 328.365540,17.064703 334.701904,17.415892 
	C345.088287,19.951841 354.669647,24.245565 361.241058,32.433155 
	C369.871155,43.185757 377.431244,54.804638 385.313538,66.146851 
	C389.325409,71.919701 392.779541,78.098572 397.047302,83.663284 
	C398.236389,85.213753 401.421448,85.824760 403.702637,85.851219 
	C419.528625,86.034782 435.378967,85.460411 451.177338,86.146423 
	C459.845795,86.522835 468.954834,87.541626 476.918579,90.675980 
	C487.302338,94.762802 495.282928,102.893784 501.742645,112.170906 
	C502.874512,113.796448 503.949768,115.461418 505.045227,117.889992 
	C505.600372,121.287338 503.260437,125.092537 508.036102,125.979767 
	C508.399902,127.712143 508.763702,129.444519 508.832123,131.801956 
	C509.483398,136.170929 506.966644,141.355759 512.939209,143.008682 
	C513.011292,143.834290 513.146667,144.659897 513.146606,145.485504 
	C513.139526,217.010269 513.121948,288.535034 513.094849,360.528137 
	C511.916656,363.324799 510.397461,365.546692 509.653107,368.003326 
	C508.040436,373.325531 507.927094,379.428101 505.186462,384.005615 
	C501.118408,390.800293 496.038269,397.409302 490.045715,402.523499 
	C482.819397,408.690552 474.104736,413.039246 464.346924,414.405212 
	C460.900177,414.887695 457.437469,415.619598 453.981720,415.621246 
	C324.330963,415.683502 194.680145,415.720337 65.029495,415.595612 
	C53.075264,415.584106 41.838661,412.399689 32.231853,404.709290 
	C30.710207,403.491241 28.777689,402.786438 26.878769,401.227356 
	C26.039000,400.249298 25.355600,399.888214 24.672209,399.527161 
	C23.026674,397.673767 21.381134,395.820374 19.768730,393.269348 
	C18.779083,391.486877 17.756304,390.402100 16.733517,389.317322 
M137.612259,297.175049 
	C138.009460,297.223816 138.406647,297.272583 138.949173,297.961334 
	C139.188156,298.789551 139.427139,299.617737 139.313171,300.934937 
	C140.009750,302.018799 140.706329,303.102661 141.651398,304.916870 
	C145.895325,310.547852 150.134964,316.182068 154.412033,321.787781 
	C154.503555,321.907745 155.025742,321.699127 155.705276,321.968201 
	C155.926285,322.209198 156.092346,322.483459 156.009415,323.513947 
	C158.067886,325.272400 160.126358,327.030884 162.055466,328.961731 
	C162.055466,328.961731 162.211121,328.812622 162.112930,329.492493 
	C162.738235,329.998230 163.363541,330.503937 164.000000,331.000000 
	C164.000000,331.000000 163.990295,331.011047 163.944031,331.714050 
	C165.728226,333.014191 167.512421,334.314331 169.324936,335.676819 
	C169.324936,335.676819 169.387161,335.705414 169.179962,336.406952 
	C174.833115,340.949158 180.236191,345.860138 186.218231,349.917450 
	C191.045074,353.191223 196.424820,355.781281 201.821152,358.052490 
	C209.490234,361.280243 217.375885,364.004669 225.233734,366.759521 
	C226.300827,367.133667 227.742325,366.439850 229.620880,366.275574 
	C230.024872,366.331329 230.428879,366.387085 231.103500,367.072571 
	C235.917633,371.275848 241.474976,370.236572 247.767517,369.296021 
	C249.764313,369.395203 251.761124,369.494385 254.501007,369.981598 
	C257.337646,369.846039 260.174286,369.710449 263.902039,369.486847 
	C266.596588,369.434296 269.291138,369.381744 272.647491,369.809662 
	C278.067993,369.759003 283.860596,371.404297 288.780212,366.311676 
	C289.174103,366.286041 289.567963,366.260376 290.535034,366.702881 
	C299.242615,363.999847 308.223755,361.943481 316.579437,358.408630 
	C324.641235,354.998016 332.264221,350.386017 339.673492,345.663971 
	C343.587982,343.169220 346.636261,339.315247 350.725891,335.925262 
	C352.280945,334.402527 353.835999,332.879822 355.992767,331.043091 
	C359.062469,328.053497 362.294800,325.211792 365.172150,322.047272 
	C374.801056,311.457214 382.365967,299.553772 387.404175,286.109161 
	C388.778290,282.442291 390.178833,278.781586 391.412506,275.066681 
	C393.295563,269.396423 396.229248,263.761078 396.618286,257.969940 
	C397.620422,243.053101 397.960724,228.045898 397.564575,213.101349 
	C397.380280,206.149170 395.482910,199.054260 393.252014,192.395981 
	C390.897064,185.367401 387.344055,178.721436 384.083008,172.020935 
	C381.242310,166.184128 378.864441,159.878647 374.889526,154.889740 
	C367.417603,145.511658 359.346832,136.512589 350.713165,128.199081 
	C346.317780,123.966682 342.470245,117.914604 334.650543,117.544952 
	C334.070953,117.066788 333.491364,116.588623 332.953308,115.416801 
	C331.817322,114.309708 331.667175,111.011177 328.232605,113.305931 
	C327.169006,112.853668 326.105408,112.401405 325.088867,111.220009 
	C322.594177,107.653175 317.554260,105.315651 314.132721,106.264046 
	C313.091309,106.166382 312.049896,106.068726 311.021423,105.572441 
	C311.021423,105.572441 310.817566,105.229652 310.909851,104.488632 
	C305.877411,102.464088 300.848785,100.429695 295.792358,98.466927 
	C295.653870,98.413162 295.216156,99.130234 294.065552,99.374512 
	C292.984558,99.497215 291.903564,99.619919 290.171143,99.395515 
	C289.443481,99.270905 288.715851,99.146294 288.013519,98.283051 
	C286.728027,97.317558 285.498840,95.608932 284.147980,95.506622 
	C275.075378,94.819481 265.975952,94.091286 256.887085,94.114571 
	C245.659134,94.143341 234.454727,95.282082 223.630478,98.462997 
	C217.776474,100.183319 211.150162,100.380302 206.240128,105.837578 
	C205.864685,105.946945 205.489227,106.056313 204.455933,105.844955 
	C203.969727,105.865570 203.483505,105.886185 202.565536,105.430000 
	C201.371933,106.281448 200.178345,107.132904 198.425842,108.377037 
	C197.180954,109.462112 195.936050,110.547180 194.203384,111.881401 
	C193.881882,112.054497 193.560379,112.227592 192.536423,112.104881 
	C190.232040,113.552750 187.927643,115.000618 185.152481,116.764191 
	C184.884766,117.029999 184.617050,117.295799 183.635361,117.606972 
	C181.137299,119.441330 178.639252,121.275688 175.596832,123.499771 
	C173.105789,125.451363 170.614746,127.402954 167.984390,128.795929 
	C166.414856,130.324402 164.845306,131.852875 163.085297,133.772705 
	C162.912964,134.017899 162.687332,134.195251 161.779022,134.088715 
	C161.471756,134.714355 161.164505,135.340012 160.661392,136.508713 
	C160.214096,136.846985 159.766785,137.185272 158.856750,137.228592 
	C158.214172,138.103851 157.571594,138.979126 156.769028,140.174667 
	C156.769028,140.174667 156.453903,140.344589 155.707657,140.125153 
	C153.803589,142.747742 151.899506,145.370316 149.901917,148.584976 
	C149.725662,149.157379 149.549408,149.729797 148.887207,150.333542 
	C148.606430,150.505417 148.304520,150.623077 147.521210,150.279968 
	C144.353546,154.431549 140.905945,158.403946 138.100098,162.787140 
	C135.502823,166.844513 133.354523,171.240234 131.463516,175.680710 
	C130.216171,178.609726 129.774002,181.881622 128.878998,185.874405 
	C129.046890,186.988785 129.214783,188.103165 129.161057,189.883270 
	C128.968872,190.557999 128.776688,191.232712 128.101639,191.572372 
	C127.732986,191.700363 127.364334,191.828354 126.594688,191.451385 
	C125.861923,192.156723 124.693413,192.745758 124.468987,193.586746 
	C123.254311,198.138565 122.056328,202.717789 121.308716,207.361023 
	C120.966011,209.489441 121.666763,211.785843 121.935463,214.890350 
	C122.090942,216.631454 122.246414,218.372543 122.164818,220.994568 
	C122.356827,223.721481 122.548843,226.448395 122.429764,229.910660 
	C122.527710,231.219742 122.625656,232.528839 122.161385,234.596405 
	C122.239235,237.360550 122.317085,240.124695 121.952591,243.666077 
	C121.915642,245.440216 121.878700,247.214355 121.309998,249.582703 
	C122.666603,257.248077 123.905472,264.938263 125.509514,272.551514 
	C125.744240,273.665558 127.717796,274.413239 129.233353,275.242554 
	C129.233353,275.242554 129.590729,275.253052 129.215073,275.878906 
	C129.289963,276.600189 129.364853,277.321472 128.769455,278.097961 
	C127.995567,283.154449 131.301346,286.723053 133.415405,290.719116 
	C133.470947,290.824097 134.022537,290.666626 134.711700,290.779510 
	C135.024200,290.646637 135.336685,290.513733 135.804123,290.750610 
	C135.804123,290.750610 136.155411,290.943909 135.754044,291.563690 
	C135.909653,292.021912 136.065262,292.480164 135.917511,293.583252 
	C135.956253,294.054077 135.994995,294.524933 135.525864,295.288757 
	C136.030136,295.849487 136.534409,296.410217 137.612259,297.175049 
M405.973572,160.614578 
	C409.005493,163.020721 411.684570,166.521851 415.133698,167.633270 
	C426.747803,171.375717 438.666901,171.010193 450.401672,167.769547 
	C458.281494,165.593460 462.824341,156.791824 461.541809,146.913681 
	C460.628418,139.878708 453.368683,133.385345 446.020630,133.288132 
	C437.189850,133.171326 428.348083,133.494019 419.526672,133.183746 
	C412.280884,132.928879 407.842163,137.004837 404.886688,142.564102 
	C401.887054,148.206436 401.543243,154.369400 405.973572,160.614578 
z"/>
<path fill="#1B1B1B" opacity="1.000000" stroke="none" 
	d="
M513.046265,142.591522 
	C506.966644,141.355759 509.483398,136.170929 508.830383,132.199524 
	C510.178680,133.606522 511.233368,135.241013 512.628784,136.945938 
	C513.030762,138.735703 513.092041,140.455048 513.046265,142.591522 
z"/>
<path fill="#404040" opacity="1.000000" stroke="none" 
	d="
M9.100492,130.822205 
	C10.578559,134.754120 9.753209,138.283417 6.119300,141.160645 
	C5.669677,139.805923 5.547085,138.412567 5.504606,136.597885 
	C6.670359,134.447235 7.755999,132.717926 9.100492,130.822205 
z"/>
<path fill="#404040" opacity="1.000000" stroke="none" 
	d="
M5.601203,361.175110 
	C9.979039,361.987305 9.749113,365.272278 9.252933,368.776947 
	C8.026599,367.684998 7.076388,366.368622 5.846457,364.935364 
	C5.508912,363.722839 5.451086,362.627258 5.601203,361.175110 
z"/>
<path fill="#1B1B1B" opacity="1.000000" stroke="none" 
	d="
M508.029938,125.610199 
	C503.260437,125.092537 505.600372,121.287338 505.103119,118.230118 
	C506.119263,120.272499 507.071533,122.756569 508.029938,125.610199 
z"/>
<path fill="#9D9D9D" opacity="1.000000" stroke="none" 
	d="
M462.202789,84.242844 
	C462.680206,84.003746 463.360443,84.015564 464.153595,84.261520 
	C463.646210,84.495026 463.025909,84.494385 462.202789,84.242844 
z"/>
<path fill="#404040" opacity="1.000000" stroke="none" 
	d="
M10.014616,376.322815 
	C13.976422,376.738770 12.846266,380.081421 13.149672,382.786865 
	C11.930120,380.895569 10.956906,378.790283 10.014616,376.322815 
z"/>
<path fill="#404040" opacity="1.000000" stroke="none" 
	d="
M16.747929,389.645752 
	C17.756304,390.402100 18.779083,391.486877 19.660511,392.940796 
	C18.600216,392.197998 17.681276,391.086090 16.747929,389.645752 
z"/>
<path fill="#404040" opacity="1.000000" stroke="none" 
	d="
M24.775959,399.774200 
	C25.355600,399.888214 26.039000,400.249298 26.630013,400.958923 
	C25.984987,400.878754 25.432352,400.449982 24.775959,399.774200 
z"/>
<path fill="#F6F6F6" opacity="1.000000" stroke="none" 
	d="
M122.723595,233.837921 
	C122.625656,232.528839 122.527710,231.219742 122.947495,229.520767 
	C124.285530,223.092102 125.105843,217.053329 125.961716,210.637329 
	C125.808113,208.844650 125.618958,207.429230 125.459221,205.656067 
	C125.619255,204.353760 125.749870,203.409210 126.113335,202.394653 
	C126.609528,201.920532 126.872871,201.516434 127.480232,201.023254 
	C128.377350,199.196228 128.930466,197.458267 129.546295,195.351547 
	C129.267517,193.957672 128.926010,192.932556 128.584503,191.907440 
	C128.776688,191.232712 128.968872,190.557999 129.640289,189.532166 
	C130.638077,187.383499 131.156616,185.585922 131.807175,183.479065 
	C132.290466,182.113037 132.641739,181.056305 133.351471,179.945679 
	C134.338348,178.179474 134.966766,176.467163 135.716156,174.457214 
	C136.074722,173.564056 136.312302,172.968536 136.886230,172.298325 
	C140.022888,167.069824 142.823227,161.916031 145.736038,156.537201 
	C146.080399,156.075653 146.312271,155.839127 146.897644,155.680756 
	C147.909775,154.920883 148.568436,154.082870 149.441559,153.109222 
	C149.800690,152.677399 149.945358,152.381195 150.412506,151.977600 
	C151.528946,151.295975 152.432541,150.826828 153.099564,150.130951 
	C158.757202,144.228439 164.318817,138.233093 170.021530,132.374908 
	C172.881256,129.437225 175.974442,126.726761 179.307434,123.897591 
	C180.408524,122.884560 181.164246,121.887466 182.182800,120.745773 
	C183.169205,120.268661 183.892746,119.936150 184.977768,119.697678 
	C189.765259,117.690796 194.301910,115.790436 198.583679,113.428055 
	C202.272552,111.392807 205.670959,108.831093 209.490082,106.391701 
	C210.193634,106.221291 210.604889,106.161331 211.238159,106.362648 
	C213.684586,105.510307 215.908981,104.396690 218.437943,103.198044 
	C219.161499,103.073914 219.580490,103.034813 220.236572,103.271881 
	C223.815948,104.290024 226.649094,103.849014 228.478149,100.175812 
	C229.551193,100.033134 230.271194,99.969505 231.243881,100.193100 
	C231.970108,100.601936 232.445496,100.836525 232.916931,100.828804 
	C248.676849,100.570793 264.436371,100.289940 280.195953,100.011627 
	C282.536163,99.970299 284.876343,99.925110 287.480286,99.730270 
	C287.825470,99.393112 287.906830,99.207390 287.988190,99.021675 
	C288.715851,99.146294 289.443481,99.270905 290.488190,99.908875 
	C291.853546,101.403801 292.746399,102.917206 293.976501,103.276688 
	C299.935455,105.018066 305.984894,106.449638 312.175110,108.294914 
	C317.088989,111.052185 322.157867,113.035278 326.499786,116.061394 
	C334.400696,121.568001 342.298981,127.223557 349.396332,133.696350 
	C356.227417,139.926285 362.015564,147.294876 368.321930,154.107666 
	C370.498932,156.459488 372.856293,158.644318 375.263763,161.072662 
	C375.396240,161.239899 375.573822,161.627914 375.374207,161.975159 
	C378.947296,170.998825 383.211975,179.502335 386.341309,188.404922 
	C388.975281,195.898209 390.315277,203.849304 392.177673,211.609833 
	C393.418396,216.779846 394.570526,221.971130 395.789185,227.597260 
	C395.796234,231.308075 395.776428,234.574539 395.416687,237.962555 
	C394.515961,239.083908 393.582825,240.037796 393.453033,241.090729 
	C392.370636,249.869751 392.665527,258.806824 389.258179,267.287354 
	C387.254303,272.274841 386.931061,278.018433 384.524567,282.746338 
	C379.722809,292.180054 373.994843,301.141602 368.710297,310.333160 
	C368.495483,310.706757 368.900726,311.436798 368.903931,312.302582 
	C368.359222,313.339935 367.927734,314.075500 367.153992,314.621155 
	C366.527039,315.125641 366.242310,315.820007 365.744049,316.797791 
	C362.105499,320.815125 358.680450,324.549042 354.901855,328.211060 
	C353.773071,329.163635 352.997864,330.188080 352.036346,331.343811 
	C351.850006,331.475098 351.482147,331.744385 351.153931,331.557312 
	C348.458710,333.771912 346.091705,336.173615 343.464661,338.790100 
	C341.806061,340.058868 340.407440,341.112854 338.879333,341.878479 
	C337.917145,342.473053 337.084503,343.356049 335.980499,344.403320 
	C334.974304,344.981018 334.239471,345.394440 333.193451,345.599243 
	C332.202057,346.189301 331.521820,346.987915 330.552307,347.910065 
	C329.477600,348.323822 328.692200,348.614014 327.561829,348.841888 
	C325.846649,349.889404 324.476532,350.999237 322.903107,352.209137 
	C322.699829,352.309204 322.277374,352.473206 321.941223,352.328583 
	C320.051239,353.098114 318.497375,354.012268 316.580322,354.990143 
	C309.551788,357.538239 302.886505,360.022644 295.834839,362.363251 
	C292.311432,363.233917 289.174377,364.248322 285.736237,365.308350 
	C285.038330,365.436462 284.641571,365.518982 283.836487,365.416931 
	C280.283813,365.472992 277.139465,365.713654 273.706238,365.651489 
	C265.992981,365.228271 258.568481,365.023865 251.144348,365.036163 
	C248.764786,365.040131 246.386154,365.616974 243.612701,365.914856 
	C242.167175,365.845398 241.116028,365.792786 239.913239,365.570679 
	C239.521545,365.197357 239.244797,365.080261 238.504150,365.041473 
	C236.968277,365.227203 235.859619,365.421326 234.410004,365.533844 
	C233.376373,365.343231 232.683701,365.234192 231.907898,364.775482 
	C230.913086,364.249146 230.001389,364.072479 228.921539,363.642700 
	C228.167465,363.262207 227.581528,363.134796 226.869186,362.651001 
	C224.257385,361.725159 221.595734,361.546143 219.317459,360.517761 
	C210.100784,356.357422 200.885941,352.162231 191.890076,347.551422 
	C181.259903,342.102966 172.069427,334.677185 163.801407,326.032257 
	C160.745270,322.836792 157.067337,320.235962 153.653702,317.335754 
	C153.634430,317.307617 153.618378,317.241333 153.749054,316.877930 
	C151.466782,313.682495 149.053818,310.850494 146.532684,307.790955 
	C146.311539,307.247284 146.198563,306.931152 146.316727,306.334595 
	C145.647354,305.384430 144.746841,304.714691 143.686829,304.042725 
	C143.337250,303.874969 143.133865,303.857208 142.930481,303.611755 
	C142.737122,302.513092 142.530487,301.789795 142.662079,301.002777 
	C141.204651,297.634033 139.430710,294.316620 137.566925,291.050476 
	C137.436081,290.821136 136.641403,290.970581 136.155411,290.943909 
	C136.155411,290.943909 135.804123,290.750610 135.956207,290.211731 
	C136.092270,289.113037 136.076233,288.553192 136.294922,287.775757 
	C135.346130,286.041809 134.162628,284.525482 132.834671,282.708008 
	C132.618362,281.969269 132.546509,281.531677 132.817139,280.958130 
	C134.064575,277.623566 133.278687,275.508453 129.590729,275.253052 
	C129.590729,275.253052 129.233353,275.242554 129.261200,274.915649 
	C129.136902,273.764893 128.984726,272.941040 129.008667,271.756165 
	C129.176834,270.594818 129.168900,269.794495 129.398163,268.736633 
	C128.759766,266.316772 127.884163,264.154449 126.763214,261.917023 
	C126.354568,261.892914 126.191284,261.943909 125.986511,261.619812 
	C125.808105,260.249451 125.671188,259.254181 125.753006,257.863464 
	C125.964844,255.975128 125.957947,254.482239 126.227867,252.743286 
	C126.270363,248.758957 126.354492,244.963181 125.693436,241.301956 
	C125.227142,238.719406 123.749634,236.319412 122.723595,233.837921 
M268.376953,155.919250 
	C267.950989,155.876419 267.525055,155.833588 266.833344,155.039200 
	C262.856750,154.688965 258.883331,154.160492 254.901749,154.089294 
	C253.583603,154.065735 252.244400,155.219772 250.320160,155.970901 
	C249.880844,156.330154 249.441544,156.689423 248.202484,157.078629 
	C246.878387,157.198181 245.554276,157.317719 243.562439,157.028717 
	C243.045334,156.975006 242.528229,156.921295 241.563660,156.421753 
	C240.021545,157.233658 238.479446,158.045578 236.462601,159.153137 
	C236.238266,159.627670 236.013931,160.102203 235.233444,160.851303 
	C234.828201,160.924301 234.422958,160.997299 233.739532,160.415894 
	C229.507355,162.043625 225.002792,163.186508 221.090912,165.384323 
	C205.468704,174.161331 194.201080,187.069183 187.310806,203.530182 
	C185.296799,208.341644 184.920502,213.838608 183.704117,219.760849 
	C183.874130,220.198532 184.044144,220.636200 183.980103,221.805420 
	C183.901718,222.824707 183.823334,223.843979 182.905640,224.918579 
	C182.668839,230.035065 182.407562,235.150879 182.263855,240.269974 
	C182.256271,240.540390 183.244186,240.838776 183.888885,241.828262 
	C183.997513,242.528580 184.106155,243.228912 183.727264,244.488525 
	C183.720352,244.981995 183.713455,245.475449 183.190918,246.500168 
	C184.643082,251.641769 185.939636,256.835632 187.639420,261.894043 
	C188.169724,263.472137 189.789551,264.684143 191.161026,266.080597 
	C191.161026,266.080597 191.269363,265.854248 190.883850,266.524902 
	C192.232101,268.936646 193.472107,271.416870 194.947266,273.748322 
	C201.499069,284.103119 210.103958,292.285706 221.243530,298.671631 
	C226.828659,301.133453 232.413773,303.595276 238.378006,306.641876 
	C240.918823,307.113037 243.459656,307.584198 246.873764,308.062195 
	C247.998932,307.875549 249.124100,307.688873 250.836884,307.664337 
	C251.230301,307.763367 251.623734,307.862396 252.120270,308.763306 
	C256.841064,310.214600 261.556702,311.572144 266.678101,307.819824 
	C267.366272,307.702271 268.054443,307.584747 269.456970,307.937439 
	C270.304199,307.988617 271.151428,308.039764 272.495361,308.591095 
	C274.029083,308.101044 275.562836,307.610992 277.816345,306.967041 
	C279.887451,305.988525 281.958588,305.009979 284.808716,303.948090 
	C289.848114,301.606873 294.887512,299.265686 300.648163,296.973206 
	C304.070312,293.956329 307.492493,290.939423 310.995026,287.998138 
	C310.995026,287.998138 310.924042,287.914062 311.642273,288.014648 
	C313.708221,285.631287 315.774139,283.247955 318.193634,280.511383 
	C318.407867,280.254608 318.594788,279.979279 319.460724,279.815704 
	C319.918396,279.645111 320.539032,279.609924 320.809875,279.284027 
	C327.362213,271.399780 331.451294,262.186493 334.647919,252.593491 
	C335.525787,249.958984 335.071320,246.880508 335.242828,243.183350 
	C335.311615,241.544861 335.380402,239.906387 336.065308,237.848572 
	C335.862122,234.142090 335.658966,230.435608 335.406982,225.892044 
	C335.358429,223.923645 335.309845,221.955261 335.729645,219.399811 
	C335.538025,217.445251 335.619781,215.416153 335.110321,213.548279 
	C331.832642,201.530807 326.522705,190.383591 318.026794,181.304489 
	C312.105377,174.976593 306.421417,167.694916 296.876862,166.123627 
	C296.876862,166.123627 296.850281,166.127304 296.898346,165.365387 
	C295.863098,165.014740 294.827881,164.664108 293.231689,164.081253 
	C292.482361,163.792709 291.733002,163.504166 290.785278,162.478928 
	C289.464996,162.071762 288.144714,161.664597 286.221771,161.030792 
	C285.195312,160.771133 284.168823,160.511490 282.633820,159.825546 
	C281.755890,159.172165 280.877991,158.518784 279.881042,157.232025 
	C278.915619,157.204529 277.950195,157.177032 276.446594,157.002686 
	C275.967407,157.182800 275.488190,157.362900 274.327972,157.474640 
	C273.211975,157.252472 272.096008,157.030319 270.990356,156.253326 
	C270.333679,156.140945 269.676971,156.028549 268.376953,155.919250 
z"/>
<path fill="#E8E8E8" opacity="1.000000" stroke="none" 
	d="
M405.730988,160.344986 
	C401.543243,154.369400 401.887054,148.206436 404.886688,142.564102 
	C407.842163,137.004837 412.280884,132.928879 419.526672,133.183746 
	C428.348083,133.494019 437.189850,133.171326 446.020630,133.288132 
	C453.368683,133.385345 460.628418,139.878708 461.541809,146.913681 
	C462.824341,156.791824 458.281494,165.593460 450.401672,167.769547 
	C438.666901,171.010193 426.747803,171.375717 415.133698,167.633270 
	C411.684570,166.521851 409.005493,163.020721 405.730988,160.344986 
z"/>
<path fill="#4C4B4C" opacity="1.000000" stroke="none" 
	d="
M395.756622,237.840988 
	C395.776428,234.574539 395.796234,231.308075 395.962524,227.148132 
	C396.095551,209.032059 391.602631,192.772110 384.891998,177.133255 
	C382.536102,171.642929 378.722046,166.778259 375.573822,161.627914 
	C375.573822,161.627914 375.396240,161.239899 375.313110,160.710876 
	C367.843506,151.154434 360.848541,141.763962 352.933075,133.226974 
	C347.639587,127.517891 341.037689,123.022003 335.021301,117.983208 
	C342.470245,117.914604 346.317780,123.966682 350.713165,128.199081 
	C359.346832,136.512589 367.417603,145.511658 374.889526,154.889740 
	C378.864441,159.878647 381.242310,166.184128 384.083008,172.020935 
	C387.344055,178.721436 390.897064,185.367401 393.252014,192.395981 
	C395.482910,199.054260 397.380280,206.149170 397.564575,213.101349 
	C397.960724,228.045898 397.620422,243.053101 396.618286,257.969940 
	C396.229248,263.761078 393.295563,269.396423 391.412506,275.066681 
	C390.178833,278.781586 388.778290,282.442291 387.404175,286.109161 
	C382.365967,299.553772 374.801056,311.457214 365.172150,322.047272 
	C362.294800,325.211792 359.062469,328.053497 355.534058,331.052368 
	C355.075348,331.061646 354.765564,330.766388 354.853882,330.459106 
	C355.046570,329.528839 355.150970,328.905884 355.255402,328.282928 
	C358.680450,324.549042 362.105499,320.815125 365.980713,316.734619 
	C366.786041,315.862396 367.141144,315.336731 367.496216,314.811066 
	C367.927734,314.075500 368.359222,313.339935 369.236145,312.210510 
	C371.921661,308.960510 374.755310,306.390350 376.294220,303.196381 
	C381.611633,292.160248 387.491516,281.231873 391.209839,269.637909 
	C394.453125,259.525116 397.364960,248.874466 395.756622,237.840988 
z"/>
<path fill="#6A6A6A" opacity="1.000000" stroke="none" 
	d="
M288.000854,98.652359 
	C287.906830,99.207390 287.825470,99.393112 287.109680,99.467392 
	C277.776428,98.289925 269.062439,96.272430 260.382629,96.410049 
	C250.569489,96.565628 240.787018,98.656555 230.991211,99.905884 
	C230.271194,99.969505 229.551193,100.033134 228.106537,100.066231 
	C224.921112,101.022362 222.460297,102.009033 219.999496,102.995712 
	C219.580490,103.034813 219.161499,103.073914 218.073425,103.078041 
	C215.274948,104.062500 213.145554,105.081940 211.016144,106.101379 
	C210.604889,106.161331 210.193634,106.221291 209.096405,106.241272 
	C207.878387,106.039505 207.346329,105.877724 206.814270,105.715942 
	C211.150162,100.380302 217.776474,100.183319 223.630478,98.462997 
	C234.454727,95.282082 245.659134,94.143341 256.887085,94.114571 
	C265.975952,94.091286 275.075378,94.819481 284.147980,95.506622 
	C285.498840,95.608932 286.728027,97.317558 288.000854,98.652359 
z"/>
<path fill="#B9B9B9" opacity="1.000000" stroke="none" 
	d="
M153.672974,317.363922 
	C157.067337,320.235962 160.745270,322.836792 163.801407,326.032257 
	C172.069427,334.677185 181.259903,342.102966 191.890076,347.551422 
	C200.885941,352.162231 210.100784,356.357422 219.317459,360.517761 
	C221.595734,361.546143 224.257385,361.725159 226.444580,362.776306 
	C215.697525,363.024963 206.541183,358.457916 197.752594,353.704407 
	C187.926849,348.389923 178.811615,341.761810 169.387161,335.705414 
	C169.387161,335.705414 169.324936,335.676819 169.283051,335.312317 
	C167.490875,333.635529 165.740585,332.323273 163.990295,331.011047 
	C163.990295,331.011047 164.000000,331.000000 164.034668,330.675903 
	C163.449936,329.838715 162.830521,329.325684 162.211121,328.812622 
	C162.211121,328.812622 162.055466,328.961731 162.091888,328.539825 
	C160.153351,326.342285 158.178391,324.566650 156.203430,322.790985 
	C156.092346,322.483459 155.926285,322.209198 155.503174,321.468781 
	C154.758377,319.767548 154.215683,318.565735 153.672974,317.363922 
z"/>
<path fill="#B9B9B9" opacity="1.000000" stroke="none" 
	d="
M334.835938,117.764084 
	C341.037689,123.022003 347.639587,127.517891 352.933075,133.226974 
	C360.848541,141.763962 367.843506,151.154434 375.180664,160.543640 
	C372.856293,158.644318 370.498932,156.459488 368.321930,154.107666 
	C362.015564,147.294876 356.227417,139.926285 349.396332,133.696350 
	C342.298981,127.223557 334.400696,121.568001 326.499786,116.061394 
	C322.157867,113.035278 317.088989,111.052185 312.062744,108.035690 
	C311.521240,106.972054 311.264862,106.471558 311.008484,105.971062 
	C312.049896,106.068726 313.091309,106.166382 314.526489,106.723389 
	C318.294128,108.771538 321.667969,110.360336 325.041809,111.949142 
	C326.105408,112.401405 327.169006,112.853668 328.510925,113.782120 
	C330.163391,114.875694 331.537598,115.493073 332.911774,116.110458 
	C333.491364,116.588623 334.070953,117.066788 334.835938,117.764084 
z"/>
<path fill="#4C4B4C" opacity="1.000000" stroke="none" 
	d="
M333.504639,345.807831 
	C334.239471,345.394440 334.974304,344.981018 336.298615,344.432678 
	C337.595001,343.587433 338.301941,342.877136 339.008850,342.166840 
	C340.407440,341.112854 341.806061,340.058868 343.799805,338.902924 
	C346.067383,337.673279 347.739838,336.545593 349.578125,335.582153 
	C349.743988,335.746368 350.075623,336.074921 350.075623,336.074921 
	C346.636261,339.315247 343.587982,343.169220 339.673492,345.663971 
	C332.264221,350.386017 324.641235,354.998016 316.579437,358.408630 
	C308.223755,361.943481 299.242615,363.999847 290.453705,366.180908 
	C292.321991,364.608276 294.271576,363.557648 296.221191,362.507019 
	C302.886505,360.022644 309.551788,357.538239 316.944641,355.082825 
	C319.207275,354.232269 320.742340,353.352753 322.277374,352.473206 
	C322.277374,352.473206 322.699829,352.309204 323.277649,352.262024 
	C325.205933,351.111328 326.556396,350.007782 327.906830,348.904236 
	C328.692200,348.614014 329.477600,348.323822 330.872162,348.004944 
	C332.155762,347.253448 332.830200,346.530640 333.504639,345.807831 
z"/>
<path fill="#4C4B4C" opacity="1.000000" stroke="none" 
	d="
M169.283569,336.056183 
	C178.811615,341.761810 187.926849,348.389923 197.752594,353.704407 
	C206.541183,358.457916 215.697525,363.024963 226.570953,363.132690 
	C227.581528,363.134796 228.167465,363.262207 228.873291,364.031616 
	C228.998947,365.195953 229.004715,365.718231 229.010468,366.240540 
	C227.742325,366.439850 226.300827,367.133667 225.233734,366.759521 
	C217.375885,364.004669 209.490234,361.280243 201.821152,358.052490 
	C196.424820,355.781281 191.045074,353.191223 186.218231,349.917450 
	C180.236191,345.860138 174.833115,340.949158 169.283569,336.056183 
z"/>
<path fill="#B9B9B9" opacity="1.000000" stroke="none" 
	d="
M178.962036,123.913536 
	C175.974442,126.726761 172.881256,129.437225 170.021530,132.374908 
	C164.318817,138.233093 158.757202,144.228439 153.099564,150.130951 
	C152.432541,150.826828 151.528946,151.295975 150.256683,151.522324 
	C149.643280,150.883682 149.508209,150.592941 149.373138,150.302200 
	C149.549408,149.729797 149.725662,149.157379 150.302734,148.306427 
	C152.620346,145.466782 154.537125,142.905685 156.453903,140.344589 
	C156.453903,140.344589 156.769028,140.174667 157.193329,140.077805 
	C158.184921,139.161804 158.752197,138.342667 159.319489,137.523544 
	C159.766785,137.185272 160.214096,136.846985 161.099579,136.248596 
	C161.827972,135.427246 162.118179,134.866013 162.408386,134.304779 
	C162.687332,134.195251 162.912964,134.017899 163.548065,133.585083 
	C165.381790,132.049835 166.752747,130.702179 168.123703,129.354553 
	C170.614746,127.402954 173.105789,125.451363 176.210815,123.358673 
	C177.485474,123.014473 178.146149,122.811356 178.860016,122.932861 
	C178.929489,123.476158 178.945755,123.694847 178.962036,123.913536 
z"/>
<path fill="#373737" opacity="1.000000" stroke="none" 
	d="
M146.544144,155.602600 
	C146.312271,155.839127 146.080399,156.075653 145.396515,156.571075 
	C142.146317,162.010986 139.348114,167.192001 136.549896,172.373016 
	C136.312302,172.968536 136.074722,173.564056 135.392151,174.511124 
	C134.295792,176.574966 133.644409,178.287262 132.993027,179.999557 
	C132.641739,181.056305 132.290466,182.113037 131.503983,183.501663 
	C130.369629,184.222366 129.670471,184.611176 128.971313,184.999985 
	C129.774002,181.881622 130.216171,178.609726 131.463516,175.680710 
	C133.354523,171.240234 135.502823,166.844513 138.100098,162.787140 
	C140.905945,158.403946 144.353546,154.431549 147.776306,150.858215 
	C147.985138,151.931610 147.938873,152.426727 147.681686,153.150970 
	C147.161880,154.120926 146.853012,154.861771 146.544144,155.602600 
z"/>
<path fill="#373737" opacity="1.000000" stroke="none" 
	d="
M125.534271,258.258881 
	C125.671188,259.254181 125.808105,260.249451 125.708649,261.821808 
	C126.592377,265.638306 127.712471,268.877777 128.832565,272.117218 
	C128.984726,272.941040 129.136902,273.764893 129.087921,274.959595 
	C127.717796,274.413239 125.744240,273.665558 125.509514,272.551514 
	C123.905472,264.938263 122.666603,257.248077 121.876831,249.519028 
	C123.473869,252.389862 124.504074,255.324371 125.534271,258.258881 
z"/>
<path fill="#C2C2C2" opacity="1.000000" stroke="none" 
	d="
M206.527191,105.776764 
	C207.346329,105.877724 207.878387,106.039505 208.804108,106.351715 
	C205.670959,108.831093 202.272552,111.392807 198.583679,113.428055 
	C194.301910,115.790436 189.765259,117.690796 184.988617,119.347290 
	C184.541779,118.455780 184.445557,118.008682 184.349335,117.561600 
	C184.617050,117.295799 184.884766,117.029999 185.731049,116.768585 
	C188.619370,115.315552 190.929123,113.858124 193.238876,112.400696 
	C193.560379,112.227592 193.881882,112.054497 194.809967,111.875130 
	C198.648941,109.967789 201.881363,108.066727 205.113785,106.165665 
	C205.489227,106.056313 205.864685,105.946945 206.527191,105.776764 
z"/>
<path fill="#4C4B4C" opacity="1.000000" stroke="none" 
	d="
M153.653717,317.335754 
	C154.215683,318.565735 154.758377,319.767548 155.324036,321.306580 
	C155.025742,321.699127 154.503555,321.907745 154.412033,321.787781 
	C150.134964,316.182068 145.895325,310.547852 141.903625,304.472260 
	C142.409653,304.014130 142.663437,304.000641 142.917206,303.987122 
	C143.133865,303.857208 143.337250,303.874969 143.756668,304.411133 
	C144.685852,305.392853 145.385727,306.003937 146.085587,306.614990 
	C146.198563,306.931152 146.311539,307.247284 146.336304,308.018311 
	C148.704880,311.395874 151.161636,314.318604 153.618378,317.241333 
	C153.618378,317.241333 153.634430,317.307617 153.653717,317.335754 
z"/>
<path fill="#373737" opacity="1.000000" stroke="none" 
	d="
M125.880493,202.464645 
	C125.749870,203.409210 125.619255,204.353760 125.104721,205.803848 
	C123.778633,208.874939 122.836479,211.440506 121.894318,214.006073 
	C121.666763,211.785843 120.966011,209.489441 121.308716,207.361023 
	C122.056328,202.717789 123.254311,198.138565 124.468987,193.586746 
	C124.693413,192.745758 125.861923,192.156723 126.828506,192.108032 
	C126.668373,195.998001 126.274429,199.231323 125.880493,202.464645 
z"/>
<path fill="#C2C2C2" opacity="1.000000" stroke="none" 
	d="
M311.014954,105.771751 
	C311.264862,106.471558 311.521240,106.972054 311.889954,107.731781 
	C305.984894,106.449638 299.935455,105.018066 293.976501,103.276688 
	C292.746399,102.917206 291.853546,101.403801 290.813904,100.082428 
	C291.903564,99.619919 292.984558,99.497215 294.452515,99.640778 
	C295.001617,100.166428 295.234192,100.316956 295.709808,100.662041 
	C297.629730,101.441826 299.377014,101.918190 301.428833,102.526321 
	C302.170990,102.707153 302.608582,102.756226 303.214355,103.068771 
	C303.964355,103.367546 304.546204,103.402855 305.398285,103.612732 
	C307.384857,104.268089 309.101196,104.748871 310.817566,105.229652 
	C310.817566,105.229652 311.021423,105.572441 311.014954,105.771751 
z"/>
<path fill="#C2C2C2" opacity="1.000000" stroke="none" 
	d="
M122.442490,234.217163 
	C123.749634,236.319412 125.227142,238.719406 125.693436,241.301956 
	C126.354492,244.963181 126.270363,248.758957 125.956268,252.490005 
	C124.403542,249.284805 123.399231,246.086823 122.394928,242.888840 
	C122.317085,240.124695 122.239235,237.360550 122.442490,234.217163 
z"/>
<path fill="#C2C2C2" opacity="1.000000" stroke="none" 
	d="
M125.926147,211.014557 
	C125.105843,217.053329 124.285530,223.092102 123.103043,229.153091 
	C122.548843,226.448395 122.356827,223.721481 122.614822,220.429733 
	C124.018600,216.914780 124.972366,213.964661 125.926147,211.014557 
z"/>
<path fill="#4C4B4C" opacity="1.000000" stroke="none" 
	d="
M231.991013,365.125183 
	C232.683701,365.234192 233.376373,365.343231 234.570511,365.843109 
	C238.021225,366.635315 240.970474,367.036652 244.284134,367.438843 
	C245.378143,367.462006 246.107727,367.484222 246.843811,367.812683 
	C246.904800,368.522003 246.959290,368.925018 247.013794,369.328064 
	C241.474976,370.236572 235.917633,371.275848 231.190430,366.554260 
	C231.515259,365.732391 231.753143,365.428772 231.991013,365.125183 
z"/>
<path fill="#4C4B4C" opacity="1.000000" stroke="none" 
	d="
M284.244781,365.601562 
	C284.641571,365.518982 285.038330,365.436462 285.924438,365.559631 
	C287.007172,365.976501 287.600586,366.187653 288.194031,366.398804 
	C283.860596,371.404297 278.067993,369.759003 272.326843,369.262909 
	C272.057281,368.313965 272.108337,367.911774 272.483887,367.500549 
	C273.240021,367.494019 273.671722,367.496552 274.393799,367.706451 
	C277.871063,367.143066 281.057922,366.372314 284.244781,365.601562 
z"/>
<path fill="#4C4B4C" opacity="1.000000" stroke="none" 
	d="
M303.046204,102.805298 
	C302.608582,102.756226 302.170990,102.707153 301.277740,102.243301 
	C299.060455,101.338554 297.298828,100.848587 295.537170,100.358627 
	C295.234192,100.316956 295.001617,100.166428 294.878723,99.697449 
	C295.216156,99.130234 295.653870,98.413162 295.792358,98.466927 
	C300.848785,100.429695 305.877411,102.464088 310.863708,104.859146 
	C309.101196,104.748871 307.384857,104.268089 305.316589,103.390137 
	C304.325226,102.930412 303.685699,102.867851 303.046204,102.805298 
z"/>
<path fill="#373737" opacity="1.000000" stroke="none" 
	d="
M132.474655,281.094055 
	C132.546509,281.531677 132.618362,281.969269 132.657959,282.945129 
	C133.155609,284.956024 133.685501,286.428680 134.150238,288.241364 
	C134.171005,289.264771 134.256897,289.948181 134.342804,290.631561 
	C134.022537,290.666626 133.470947,290.824097 133.415405,290.719116 
	C131.301346,286.723053 127.995567,283.154449 129.280518,277.990906 
	C129.791565,277.883850 130.177536,277.893982 130.123810,278.212341 
	C130.583511,279.157501 131.096970,279.784302 131.685379,280.610321 
	C131.760345,280.809509 132.048981,281.123810 132.048981,281.123810 
	C132.048981,281.123810 132.474655,281.094055 132.474655,281.094055 
z"/>
<path fill="#8F8F8F" opacity="1.000000" stroke="none" 
	d="
M122.173759,243.277466 
	C123.399231,246.086823 124.403542,249.284805 125.679443,252.736069 
	C125.957947,254.482239 125.964844,255.975128 125.753006,257.863464 
	C124.504074,255.324371 123.473869,252.389862 122.142715,249.221924 
	C121.878700,247.214355 121.915642,245.440216 122.173759,243.277466 
z"/>
<path fill="#8F8F8F" opacity="1.000000" stroke="none" 
	d="
M125.961708,210.637329 
	C124.972366,213.964661 124.018600,216.914780 122.733353,219.989273 
	C122.246414,218.372543 122.090942,216.631454 121.914886,214.448212 
	C122.836479,211.440506 123.778633,208.874939 125.075302,206.161591 
	C125.618958,207.429230 125.808113,208.844650 125.961708,210.637329 
z"/>
<path fill="#4C4B4C" opacity="1.000000" stroke="none" 
	d="
M325.065338,111.584579 
	C321.667969,110.360336 318.294128,108.771538 314.909546,106.838303 
	C317.554260,105.315651 322.594177,107.653175 325.065338,111.584579 
z"/>
<path fill="#8F8F8F" opacity="1.000000" stroke="none" 
	d="
M126.113342,202.394653 
	C126.274429,199.231323 126.668373,195.998001 127.028992,192.360504 
	C127.364334,191.828354 127.732986,191.700363 128.343079,191.739899 
	C128.926010,192.932556 129.267517,193.957672 129.263031,195.505920 
	C128.323441,197.723480 127.729828,199.417908 127.136215,201.112320 
	C126.872871,201.516434 126.609528,201.920532 126.113342,202.394653 
z"/>
<path fill="#B9B9B9" opacity="1.000000" stroke="none" 
	d="
M135.954727,291.253784 
	C136.641403,290.970581 137.436081,290.821136 137.566925,291.050476 
	C139.430710,294.316620 141.204651,297.634033 142.372040,300.981750 
	C141.051224,300.831604 140.358673,300.638794 139.666122,300.445953 
	C139.427139,299.617737 139.188156,298.789551 138.958069,297.283234 
	C138.051590,295.382874 137.136230,294.160645 136.220856,292.938385 
	C136.065262,292.480164 135.909653,292.021912 135.954727,291.253784 
z"/>
<path fill="#6A6A6A" opacity="1.000000" stroke="none" 
	d="
M183.992340,117.584282 
	C184.445557,118.008682 184.541779,118.455780 184.627167,119.253258 
	C183.892746,119.936150 183.169205,120.268661 181.869476,120.729507 
	C180.464462,121.441315 179.635635,122.024780 178.806824,122.608246 
	C178.146149,122.811356 177.485474,123.014473 176.483002,123.163818 
	C178.639252,121.275688 181.137299,119.441330 183.992340,117.584282 
z"/>
<path fill="#8F8F8F" opacity="1.000000" stroke="none" 
	d="
M288.487122,366.355225 
	C287.600586,366.187653 287.007172,365.976501 286.225525,365.514038 
	C289.174377,364.248322 292.311432,363.233917 295.834839,362.363251 
	C294.271576,363.557648 292.321991,364.608276 290.167114,365.946838 
	C289.567963,366.260376 289.174103,366.286041 288.487122,366.355225 
z"/>
<path fill="#6A6A6A" opacity="1.000000" stroke="none" 
	d="
M204.784851,106.005310 
	C201.881363,108.066727 198.648941,109.967789 195.053848,111.750549 
	C195.936050,110.547180 197.180954,109.462112 199.047180,108.190659 
	C200.778122,107.305115 201.887711,106.605965 202.997299,105.906807 
	C203.483505,105.886185 203.969727,105.865570 204.784851,106.005310 
z"/>
<path fill="#373737" opacity="1.000000" stroke="none" 
	d="
M156.080780,140.234863 
	C154.537125,142.905685 152.620346,145.466782 150.349503,148.010406 
	C151.899506,145.370316 153.803589,142.747742 156.080780,140.234863 
z"/>
<path fill="#8F8F8F" opacity="1.000000" stroke="none" 
	d="
M247.390656,369.312042 
	C246.959290,368.925018 246.904800,368.522003 247.237885,367.665161 
	C249.759384,367.566803 251.893326,367.922241 253.965942,368.607910 
	C253.855743,369.156586 253.806839,369.375092 253.757919,369.593567 
	C251.761124,369.494385 249.764313,369.395203 247.390656,369.312042 
z"/>
<path fill="#8F8F8F" opacity="1.000000" stroke="none" 
	d="
M272.159424,367.509583 
	C272.108337,367.911774 272.057281,368.313965 271.995941,369.022675 
	C269.291138,369.381744 266.596588,369.434296 263.475830,369.224548 
	C263.063812,368.758606 263.078033,368.554932 263.350311,368.115570 
	C266.458710,367.756470 269.309052,367.633026 272.159424,367.509583 
z"/>
<path fill="#4C4B4C" opacity="1.000000" stroke="none" 
	d="
M156.106415,323.152466 
	C158.178391,324.566650 160.153351,326.342285 162.156586,328.453613 
	C160.126358,327.030884 158.067886,325.272400 156.106415,323.152466 
z"/>
<path fill="#6A6A6A" opacity="1.000000" stroke="none" 
	d="
M192.887650,112.252792 
	C190.929123,113.858124 188.619370,115.315552 185.966431,116.610733 
	C187.927643,115.000618 190.232040,113.552750 192.887650,112.252792 
z"/>
<path fill="#4C4B4C" opacity="1.000000" stroke="none" 
	d="
M254.129456,369.787598 
	C253.806839,369.375092 253.855743,369.156586 254.411987,368.681641 
	C257.643646,368.400543 260.367950,368.375885 263.092255,368.351257 
	C263.078033,368.554932 263.063812,368.758606 263.030273,369.268555 
	C260.174286,369.710449 257.337646,369.846039 254.129456,369.787598 
z"/>
<path fill="#373737" opacity="1.000000" stroke="none" 
	d="
M168.054047,129.075226 
	C166.752747,130.702179 165.381790,132.049835 163.643295,133.389404 
	C164.845306,131.852875 166.414856,130.324402 168.054047,129.075226 
z"/>
<path fill="#4C4B4C" opacity="1.000000" stroke="none" 
	d="
M351.482147,331.744385 
	C351.482147,331.744385 351.850006,331.475098 352.361633,331.387817 
	C353.504028,331.122498 354.134796,330.944427 354.765564,330.766357 
	C354.765564,330.766388 355.075348,331.061646 355.233215,331.209351 
	C353.835999,332.879822 352.280945,334.402527 350.400757,336.000092 
	C350.075623,336.074921 349.743988,335.746368 349.754761,335.328186 
	C350.337738,333.854797 350.909943,332.799591 351.482147,331.744385 
z"/>
<path fill="#B9B9B9" opacity="1.000000" stroke="none" 
	d="
M132.817139,280.958130 
	C132.474655,281.094055 132.048981,281.123810 132.048981,281.123810 
	C132.048981,281.123810 131.760345,280.809509 131.786285,280.272644 
	C131.267319,279.121826 130.722427,278.507904 130.177551,277.893982 
	C130.177536,277.893982 129.791565,277.883850 129.615662,277.963318 
	C129.364853,277.321472 129.289963,276.600189 129.402893,275.565979 
	C133.278687,275.508453 134.064575,277.623566 132.817139,280.958130 
z"/>
<path fill="#373737" opacity="1.000000" stroke="none" 
	d="
M139.489655,300.690430 
	C140.358673,300.638794 141.051224,300.831604 142.033813,301.045471 
	C142.530487,301.789795 142.737122,302.513092 142.930481,303.611755 
	C142.663437,304.000641 142.409653,304.014130 141.779388,304.107086 
	C140.706329,303.102661 140.009750,302.018799 139.489655,300.690430 
z"/>
<path fill="#4C4B4C" opacity="1.000000" stroke="none" 
	d="
M163.967163,331.362549 
	C165.740585,332.323273 167.490875,333.635529 169.268890,335.281128 
	C167.512421,334.314331 165.728226,333.014191 163.967163,331.362549 
z"/>
<path fill="#4C4B4C" opacity="1.000000" stroke="none" 
	d="
M332.932556,115.763626 
	C331.537598,115.493073 330.163391,114.875694 328.832764,113.920532 
	C331.667175,111.011177 331.817322,114.309708 332.932556,115.763626 
z"/>
<path fill="#8F8F8F" opacity="1.000000" stroke="none" 
	d="
M128.925156,185.437195 
	C129.670471,184.611176 130.369629,184.222366 131.371979,183.810944 
	C131.156616,185.585922 130.638077,187.383499 129.751099,189.199310 
	C129.214783,188.103165 129.046890,186.988785 128.925156,185.437195 
z"/>
<path fill="#373737" opacity="1.000000" stroke="none" 
	d="
M202.781418,105.668404 
	C201.887711,106.605965 200.778122,107.305115 199.326630,107.994316 
	C200.178345,107.132904 201.371933,106.281448 202.781418,105.668404 
z"/>
<path fill="#8F8F8F" opacity="1.000000" stroke="none" 
	d="
M136.069183,293.260803 
	C137.136230,294.160645 138.051590,295.382874 138.885406,296.963226 
	C138.406647,297.272583 138.009460,297.223816 137.337860,296.761627 
	C136.720215,295.897400 136.376968,295.446564 136.033722,294.995758 
	C135.994995,294.524933 135.956253,294.054077 136.069183,293.260803 
z"/>
<path fill="#373737" opacity="1.000000" stroke="none" 
	d="
M159.088120,137.376068 
	C158.752197,138.342667 158.184921,139.161804 157.273331,139.917664 
	C157.571594,138.979126 158.214172,138.103851 159.088120,137.376068 
z"/>
<path fill="#8F8F8F" opacity="1.000000" stroke="none" 
	d="
M231.907898,364.775513 
	C231.753143,365.428772 231.515259,365.732391 231.055115,366.239441 
	C230.428879,366.387085 230.024872,366.331329 229.315674,366.258057 
	C229.004715,365.718231 228.998947,365.195953 229.041443,364.284729 
	C230.001389,364.072479 230.913086,364.249146 231.907898,364.775513 
z"/>
<path fill="#8F8F8F" opacity="1.000000" stroke="none" 
	d="
M134.527252,290.705536 
	C134.256897,289.948181 134.171005,289.264771 134.457382,288.244537 
	C135.239838,287.936249 135.650024,287.964813 136.060211,287.993378 
	C136.076233,288.553192 136.092270,289.113037 135.878738,290.026855 
	C135.336685,290.513733 135.024200,290.646637 134.527252,290.705536 
z"/>
<path fill="#373737" opacity="1.000000" stroke="none" 
	d="
M135.779785,295.142273 
	C136.376968,295.446564 136.720215,295.897400 137.051056,296.659576 
	C136.534409,296.410217 136.030136,295.849487 135.779785,295.142273 
z"/>
<path fill="#373737" opacity="1.000000" stroke="none" 
	d="
M162.093704,134.196747 
	C162.118179,134.866013 161.827972,135.427246 161.197510,135.977051 
	C161.164505,135.340012 161.471756,134.714355 162.093704,134.196747 
z"/>
<path fill="#8F8F8F" opacity="1.000000" stroke="none" 
	d="
M147.892624,152.921860 
	C147.938873,152.426727 147.985138,151.931610 148.006439,151.061493 
	C148.304520,150.623077 148.606430,150.505417 149.130173,150.317871 
	C149.508209,150.592941 149.643280,150.883682 149.934174,151.629715 
	C149.945358,152.381195 149.800690,152.677399 149.107071,153.031006 
	C148.336288,153.032867 148.114456,152.977356 147.892624,152.921860 
z"/>
<path fill="#4C4B4C" opacity="1.000000" stroke="none" 
	d="
M162.162018,329.152557 
	C162.830521,329.325684 163.449936,329.838715 164.029083,330.680725 
	C163.363541,330.503937 162.738235,329.998230 162.162018,329.152557 
z"/>
<path fill="#000000" opacity="1.000000" stroke="none" 
	d="
M184.214783,243.929230 
	C184.106155,243.228912 183.997513,242.528580 184.090134,241.062683 
	C184.109238,235.152481 183.927094,230.007874 183.744949,224.863266 
	C183.823334,223.843979 183.901718,222.824707 184.446274,221.417725 
	C187.453522,218.698013 192.042618,205.794693 191.527573,202.387054 
	C191.507050,202.251266 191.316406,202.141190 191.220367,201.704681 
	C191.503143,200.603378 191.770569,199.816544 192.396851,199.036728 
	C196.063019,196.735367 199.349396,194.414658 198.426239,189.355408 
	C198.521790,189.148254 198.779938,188.772064 199.137665,188.818466 
	C200.280289,188.315338 201.124146,187.833176 201.840897,187.205765 
	C208.355820,181.502777 214.841782,175.766724 221.352402,170.058792 
	C223.079849,168.544342 224.863068,167.093475 226.933044,165.502365 
	C228.055069,165.065338 228.864716,164.739365 230.019623,164.588486 
	C231.636200,163.921783 232.907532,163.080002 234.274567,161.927475 
	C234.252762,161.434570 234.135239,161.252426 234.017715,161.070297 
	C234.422958,160.997299 234.828201,160.924301 235.914917,160.932404 
	C237.130722,160.768051 237.665039,160.522614 238.473419,160.343353 
	C239.081772,160.261871 239.416107,160.114197 240.000000,160.240051 
	C240.736862,160.515961 241.224182,160.518341 242.069321,160.696991 
	C242.955017,160.935562 243.482864,160.997864 244.281189,161.331314 
	C248.718353,160.769165 252.885056,159.935867 257.441376,159.066849 
	C258.874023,159.045380 259.917023,159.059647 261.061096,159.456024 
	C265.825958,160.513458 270.489777,161.188766 275.543030,161.901550 
	C277.623169,161.650269 279.313843,161.361496 281.340240,161.109741 
	C282.113098,161.253830 282.550232,161.360901 283.013092,161.802994 
	C287.746887,164.361542 292.454987,166.585037 297.463806,168.984070 
	C300.779449,171.218201 303.794373,173.276779 306.850952,175.663071 
	C312.003357,182.202255 317.073944,188.447540 322.251801,194.602570 
	C323.628174,196.238708 325.333771,197.597885 327.067810,199.332855 
	C327.404236,200.380615 327.561096,201.179749 327.481140,202.272369 
	C327.351562,204.200668 326.977722,206.072525 327.646881,207.430389 
	C331.057129,214.350510 333.438599,221.473633 333.178650,229.294220 
	C333.018707,234.104904 333.475769,239.051407 332.486298,243.687302 
	C331.461060,248.490799 328.391541,252.855255 327.345978,257.657715 
	C325.602509,265.665833 321.154663,272.113342 316.256927,278.130585 
	C309.770813,286.099335 301.857452,292.518951 292.222900,296.726105 
	C288.483643,298.358948 285.288422,301.237549 281.495880,303.606201 
	C280.440460,303.699219 279.734497,303.734680 278.695862,303.526825 
	C277.045166,303.232330 275.727173,303.136749 274.409149,303.137177 
	C265.851715,303.139801 257.293671,303.109772 248.737183,303.209503 
	C245.822754,303.243500 242.912338,303.621216 239.643585,303.833252 
	C238.579041,303.740936 237.871002,303.657257 237.056763,303.251648 
	C235.994965,302.044006 235.183289,300.689850 234.061432,300.345215 
	C223.121933,296.984253 214.153152,290.538391 206.269409,282.526215 
	C203.130920,279.336578 200.620438,275.529022 197.827850,271.674622 
	C196.915970,270.496185 196.000305,269.645874 194.956055,268.500793 
	C193.641418,267.422089 192.455399,266.638184 191.269363,265.854248 
	C191.269363,265.854248 191.161026,266.080597 191.247803,265.729919 
	C191.302979,264.576996 191.271393,263.774750 191.478516,262.693054 
	C190.148743,256.871521 188.667404,251.301697 186.918854,245.817047 
	C186.653580,244.984985 185.147125,244.548630 184.214783,243.929230 
z"/>
<path fill="#434343" opacity="1.000000" stroke="none" 
	d="
M281.845367,303.548645 
	C285.288422,301.237549 288.483643,298.358948 292.222900,296.726105 
	C301.857452,292.518951 309.770813,286.099335 316.256927,278.130585 
	C321.154663,272.113342 325.602509,265.665833 327.345978,257.657715 
	C328.391541,252.855255 331.461060,248.490799 332.486298,243.687302 
	C333.475769,239.051407 333.018707,234.104904 333.178650,229.294220 
	C333.438599,221.473633 331.057129,214.350510 327.646881,207.430389 
	C326.977722,206.072525 327.351562,204.200668 327.801392,202.456650 
	C330.659363,208.227234 332.960327,214.107056 335.261292,219.986862 
	C335.309845,221.955261 335.358429,223.923645 335.233551,226.759186 
	C335.189819,231.173523 335.319489,234.720703 335.449188,238.267899 
	C335.380402,239.906387 335.311615,241.544861 334.933258,243.798965 
	C330.836426,256.847534 326.080566,268.844696 318.754395,279.685394 
	C318.594788,279.979279 318.407867,280.254608 317.677582,280.710876 
	C315.082367,283.244934 313.003204,285.579498 310.924042,287.914062 
	C310.924042,287.914062 310.995026,287.998138 310.605042,287.955383 
	C306.785675,290.916565 303.356293,293.920532 299.926941,296.924500 
	C294.887512,299.265686 289.848114,301.606873 284.056274,303.896759 
	C282.817657,303.746490 282.331512,303.647583 281.845367,303.548645 
z"/>
<path fill="#A7A7A7" opacity="1.000000" stroke="none" 
	d="
M395.416687,237.962555 
	C397.364960,248.874466 394.453125,259.525116 391.209839,269.637909 
	C387.491516,281.231873 381.611633,292.160248 376.294220,303.196381 
	C374.755310,306.390350 371.921661,308.960510 369.349304,311.908722 
	C368.900726,311.436798 368.495483,310.706757 368.710297,310.333160 
	C373.994843,301.141602 379.722809,292.180054 384.524567,282.746338 
	C386.931061,278.018433 387.254303,272.274841 389.258179,267.287354 
	C392.665527,258.806824 392.370636,249.869751 393.453033,241.090729 
	C393.582825,240.037796 394.515961,239.083908 395.416687,237.962555 
z"/>
<path fill="#979797" opacity="1.000000" stroke="none" 
	d="
M198.779938,188.772064 
	C198.779938,188.772064 198.521790,189.148254 198.156006,189.518951 
	C195.872818,192.936340 193.955414,195.983017 192.038010,199.029694 
	C191.770569,199.816544 191.503143,200.603378 190.918167,201.899033 
	C190.391006,202.854340 190.160156,203.292236 189.974991,203.748657 
	C187.910431,208.837906 185.852951,213.930038 183.793549,219.021378 
	C184.920502,213.838608 185.296799,208.341644 187.310806,203.530182 
	C194.201080,187.069183 205.468704,174.161331 221.090912,165.384323 
	C225.002792,163.186508 229.507355,162.043625 233.878632,160.743103 
	C234.135239,161.252426 234.252762,161.434570 233.938522,161.834412 
	C232.229294,162.839203 230.951813,163.626297 229.674347,164.413391 
	C228.864716,164.739365 228.055069,165.065338 226.577316,165.500137 
	C214.501190,170.560120 205.430954,178.249359 198.779938,188.772064 
z"/>
<path fill="#9D9D9D" opacity="1.000000" stroke="none" 
	d="
M335.495483,219.693329 
	C332.960327,214.107056 330.659363,208.227234 328.038208,202.163147 
	C327.561096,201.179749 327.404236,200.380615 327.095947,198.975830 
	C323.757751,193.601456 320.954651,188.506195 317.261993,184.168091 
	C314.344910,180.741089 310.334290,178.244904 306.809296,175.335342 
	C303.794373,173.276779 300.779449,171.218201 297.466614,168.647919 
	C297.072754,167.474884 296.976776,166.813538 296.880829,166.152206 
	C306.421417,167.694916 312.105377,174.976593 318.026794,181.304489 
	C326.522705,190.383591 331.832642,201.530807 335.110321,213.548279 
	C335.619781,215.416153 335.538025,217.445251 335.495483,219.693329 
z"/>
<path fill="#434343" opacity="1.000000" stroke="none" 
	d="
M197.824066,272.002747 
	C200.620438,275.529022 203.130920,279.336578 206.269409,282.526215 
	C214.153152,290.538391 223.121933,296.984253 234.061432,300.345215 
	C235.183289,300.689850 235.994965,302.044006 236.697571,303.348938 
	C235.082901,303.200226 233.741196,302.577240 232.355728,302.074982 
	C228.568710,300.702118 224.763275,299.380035 220.965134,298.037842 
	C210.103958,292.285706 201.499069,284.103119 194.947266,273.748322 
	C193.472107,271.416870 192.232101,268.936646 191.076599,266.189575 
	C192.455399,266.638184 193.641418,267.422089 194.956635,268.852783 
	C195.998550,270.333954 196.911301,271.168365 197.824066,272.002747 
z"/>
<path fill="#A7A7A7" opacity="1.000000" stroke="none" 
	d="
M375.374207,161.975159 
	C378.722046,166.778259 382.536102,171.642929 384.891998,177.133255 
	C391.602631,192.772110 396.095551,209.032059 395.935699,226.703766 
	C394.570526,221.971130 393.418396,216.779846 392.177673,211.609833 
	C390.315277,203.849304 388.975281,195.898209 386.341309,188.404922 
	C383.211975,179.502335 378.947296,170.998825 375.374207,161.975159 
z"/>
<path fill="#C2C2C2" opacity="1.000000" stroke="none" 
	d="
M231.243881,100.193100 
	C240.787018,98.656555 250.569489,96.565628 260.382629,96.410049 
	C269.062439,96.272430 277.776428,98.289925 286.845917,99.618820 
	C284.876343,99.925110 282.536163,99.970299 280.195953,100.011627 
	C264.436371,100.289940 248.676849,100.570793 232.916931,100.828804 
	C232.445496,100.836525 231.970108,100.601936 231.243881,100.193100 
z"/>
<path fill="#434343" opacity="1.000000" stroke="none" 
	d="
M240.000092,303.841858 
	C242.912338,303.621216 245.822754,303.243500 248.737183,303.209503 
	C257.293671,303.109772 265.851715,303.139801 274.409149,303.137177 
	C275.727173,303.136749 277.045166,303.232330 278.491821,303.795349 
	C277.325836,305.047668 276.031219,305.788147 274.390167,306.550385 
	C273.348663,306.593231 272.653625,306.614258 271.753693,306.426819 
	C270.613403,306.634613 269.678009,307.050903 268.742615,307.467194 
	C268.054443,307.584747 267.366272,307.702271 266.123413,307.614319 
	C261.051514,307.593018 256.534332,307.777222 252.017151,307.961426 
	C251.623734,307.862396 251.230301,307.763367 250.452911,307.279694 
	C248.732986,306.783997 247.397034,306.672913 245.782272,306.557892 
	C245.132431,306.530701 244.761414,306.507416 244.242111,306.207489 
	C243.337006,305.742432 242.580170,305.554047 241.531677,305.270569 
	C240.837234,305.107452 240.434433,305.039459 240.017487,304.689240 
	C240.002243,304.218628 240.001175,304.030273 240.000092,303.841858 
z"/>
<path fill="#9D9D9D" opacity="1.000000" stroke="none" 
	d="
M319.107544,279.750549 
	C326.080566,268.844696 330.836426,256.847534 334.925964,244.210175 
	C335.071320,246.880508 335.525787,249.958984 334.647919,252.593491 
	C331.451294,262.186493 327.362213,271.399780 320.809875,279.284027 
	C320.539032,279.609924 319.918396,279.645111 319.107544,279.750549 
z"/>
<path fill="#D1D1D1" opacity="1.000000" stroke="none" 
	d="
M263.350311,368.115570 
	C260.367950,368.375885 257.643646,368.400543 254.473297,368.351440 
	C251.893326,367.922241 249.759384,367.566803 247.231384,367.358887 
	C246.107727,367.484222 245.378143,367.462006 244.300751,367.061584 
	C243.970978,366.432861 243.989029,366.182312 244.007095,365.931732 
	C246.386154,365.616974 248.764786,365.040131 251.144348,365.036163 
	C258.568481,365.023865 265.992981,365.228271 273.733093,366.037872 
	C274.067078,366.984406 274.085266,367.241730 274.103424,367.499054 
	C273.671722,367.496552 273.240021,367.494019 272.483856,367.500549 
	C269.309052,367.633026 266.458710,367.756470 263.350311,368.115570 
z"/>
<path fill="#979797" opacity="1.000000" stroke="none" 
	d="
M191.239807,262.972534 
	C191.271393,263.774750 191.302979,264.576996 191.122589,265.721497 
	C189.789551,264.684143 188.169724,263.472137 187.639420,261.894043 
	C185.939636,256.835632 184.643082,251.641769 183.794342,246.381577 
	C185.193649,247.889771 186.097977,249.473572 186.763626,251.151993 
	C188.316696,255.067978 189.755005,259.029480 191.239807,262.972534 
z"/>
<path fill="#404040" opacity="1.000000" stroke="none" 
	d="
M191.478516,262.693054 
	C189.755005,259.029480 188.316696,255.067978 186.763626,251.151993 
	C186.097977,249.473572 185.193649,247.889771 184.052155,246.115952 
	C183.713455,245.475449 183.720352,244.981995 183.971024,244.208878 
	C185.147125,244.548630 186.653580,244.984985 186.918854,245.817047 
	C188.667404,251.301697 190.148743,256.871521 191.478516,262.693054 
z"/>
<path fill="#404040" opacity="1.000000" stroke="none" 
	d="
M183.748840,219.391113 
	C185.852951,213.930038 187.910431,208.837906 189.974991,203.748657 
	C190.160156,203.292236 190.391006,202.854340 190.902832,202.213486 
	C191.316406,202.141190 191.507050,202.251266 191.527573,202.387054 
	C192.042618,205.794693 187.453522,218.698013 184.563309,221.051941 
	C184.044144,220.636200 183.874130,220.198532 183.748840,219.391113 
z"/>
<path fill="#4C4B4C" opacity="1.000000" stroke="none" 
	d="
M296.878845,166.137909 
	C296.976776,166.813538 297.072754,167.474884 297.165894,168.472382 
	C292.454987,166.585037 287.746887,164.361542 283.042480,161.497604 
	C283.078186,160.655396 283.110260,160.453613 283.142365,160.251831 
	C284.168823,160.511490 285.195312,160.771133 286.602417,161.441635 
	C288.316589,162.306854 289.650116,162.761246 290.983673,163.215607 
	C291.733002,163.504166 292.482361,163.792709 293.606384,164.509857 
	C294.937469,165.334732 295.893890,165.731018 296.850281,166.127304 
	C296.850281,166.127304 296.876862,166.123627 296.878845,166.137909 
z"/>
<path fill="#D1D1D1" opacity="1.000000" stroke="none" 
	d="
M250.914825,155.835403 
	C252.244400,155.219772 253.583603,154.065735 254.901749,154.089294 
	C258.883331,154.160492 262.856750,154.688965 266.637970,155.510986 
	C265.629883,156.264511 264.817200,156.546219 263.554199,156.839874 
	C260.401123,156.840607 257.698395,156.829376 254.736267,156.574585 
	C253.289536,156.165833 252.102173,156.000626 250.914825,155.835403 
z"/>
<path fill="#8F8F8F" opacity="1.000000" stroke="none" 
	d="
M239.643585,303.833252 
	C240.001175,304.030273 240.002243,304.218628 239.729279,304.773468 
	C238.969788,305.445648 238.484344,305.751404 237.998886,306.057129 
	C232.413773,303.595276 226.828659,301.133453 221.104340,298.354736 
	C224.763275,299.380035 228.568710,300.702118 232.355728,302.074982 
	C233.741196,302.577240 235.082901,303.200226 236.803757,303.670868 
	C237.871002,303.657257 238.579041,303.740936 239.643585,303.833252 
z"/>
<path fill="#8F8F8F" opacity="1.000000" stroke="none" 
	d="
M136.886230,172.298325 
	C139.348114,167.192001 142.146317,162.010986 145.284058,156.796097 
	C142.823227,161.916031 140.022888,167.069824 136.886230,172.298325 
z"/>
<path fill="#979797" opacity="1.000000" stroke="none" 
	d="
M183.325287,224.890930 
	C183.927094,230.007874 184.109238,235.152481 184.030014,240.710617 
	C183.244186,240.838776 182.256271,240.540390 182.263855,240.269974 
	C182.407562,235.150879 182.668839,230.035065 183.325287,224.890930 
z"/>
<path fill="#C2C2C2" opacity="1.000000" stroke="none" 
	d="
M252.068710,308.362366 
	C256.534332,307.777222 261.051514,307.593018 265.784393,307.703064 
	C261.556702,311.572144 256.841064,310.214600 252.068710,308.362366 
z"/>
<path fill="#A7A7A7" opacity="1.000000" stroke="none" 
	d="
M351.153931,331.557312 
	C350.909943,332.799591 350.337738,333.854797 349.588898,335.163940 
	C347.739838,336.545593 346.067383,337.673279 344.059814,338.688141 
	C346.091705,336.173615 348.458710,333.771912 351.153931,331.557312 
z"/>
<path fill="#B9B9B9" opacity="1.000000" stroke="none" 
	d="
M153.749054,316.877930 
	C151.161636,314.318604 148.704880,311.395874 146.444489,308.245819 
	C149.053818,310.850494 151.466782,313.682495 153.749054,316.877930 
z"/>
<path fill="#9D9D9D" opacity="1.000000" stroke="none" 
	d="
M300.287537,296.948853 
	C303.356293,293.920532 306.785675,290.916565 310.564819,287.917572 
	C307.492493,290.939423 304.070312,293.956329 300.287537,296.948853 
z"/>
<path fill="#4C4B4C" opacity="1.000000" stroke="none" 
	d="
M281.004547,161.072723 
	C279.313843,161.361496 277.623169,161.650269 275.429810,161.562134 
	C273.266846,160.171600 271.606537,159.157974 270.119934,157.912689 
	C270.522430,157.390060 270.751221,157.099121 270.980011,156.808167 
	C272.096008,157.030319 273.211975,157.252472 274.773682,157.856003 
	C275.876678,158.391449 276.533966,158.545532 277.396301,158.906601 
	C278.349091,159.287689 279.096863,159.461807 280.056915,159.865997 
	C280.514343,160.421646 280.759430,160.747192 281.004547,161.072723 
z"/>
<path fill="#9D9D9D" opacity="1.000000" stroke="none" 
	d="
M335.757263,238.058228 
	C335.319489,234.720703 335.189819,231.173523 335.257965,227.177734 
	C335.658966,230.435608 335.862122,234.142090 335.757263,238.058228 
z"/>
<path fill="#4C4B4C" opacity="1.000000" stroke="none" 
	d="
M244.010727,161.060165 
	C243.482864,160.997864 242.955017,160.935562 242.155396,160.417450 
	C242.665817,159.120163 243.447998,158.278717 244.230179,157.437271 
	C245.554276,157.317719 246.878387,157.198181 248.712387,157.337662 
	C249.529953,157.843262 249.837616,158.089828 250.017975,158.663910 
	C247.930695,159.681015 245.970703,160.370590 244.010727,161.060165 
z"/>
<path fill="#C2C2C2" opacity="1.000000" stroke="none" 
	d="
M220.236572,103.271881 
	C222.460297,102.009033 224.921112,101.022362 227.753510,100.145279 
	C226.649094,103.849014 223.815948,104.290024 220.236572,103.271881 
z"/>
<path fill="#C2C2C2" opacity="1.000000" stroke="none" 
	d="
M238.188446,306.349487 
	C238.484344,305.751404 238.969788,305.445648 239.743439,305.055695 
	C240.434433,305.039459 240.837234,305.107452 241.647827,305.578857 
	C242.833878,306.149597 243.612137,306.316864 244.390396,306.484131 
	C244.761414,306.507416 245.132431,306.530701 245.755539,306.931580 
	C246.005249,307.557922 246.002869,307.806641 246.000473,308.055359 
	C243.459656,307.584198 240.918823,307.113037 238.188446,306.349487 
z"/>
<path fill="#8F8F8F" opacity="1.000000" stroke="none" 
	d="
M274.393799,367.706451 
	C274.085266,367.241730 274.067078,366.984406 274.022003,366.340698 
	C277.139465,365.713654 280.283813,365.472992 283.836487,365.416931 
	C281.057922,366.372314 277.871063,367.143066 274.393799,367.706451 
z"/>
<path fill="#8F8F8F" opacity="1.000000" stroke="none" 
	d="
M129.008667,271.756165 
	C127.712471,268.877777 126.592377,265.638306 125.750137,262.196869 
	C126.191284,261.943909 126.354568,261.892914 126.733383,262.303101 
	C127.686256,264.840973 128.423615,266.917572 129.160965,268.994202 
	C129.168900,269.794495 129.176834,270.594818 129.008667,271.756165 
z"/>
<path fill="#9D9D9D" opacity="1.000000" stroke="none" 
	d="
M311.283142,287.964355 
	C313.003204,285.579498 315.082367,283.244934 317.500793,280.887512 
	C315.774139,283.247955 313.708221,285.631287 311.283142,287.964355 
z"/>
<path fill="#C2C2C2" opacity="1.000000" stroke="none" 
	d="
M211.238159,106.362656 
	C213.145554,105.081940 215.274948,104.062500 217.768875,103.163071 
	C215.908981,104.396690 213.684586,105.510307 211.238159,106.362656 
z"/>
<path fill="#8F8F8F" opacity="1.000000" stroke="none" 
	d="
M274.736633,306.528625 
	C276.031219,305.788147 277.325836,305.047668 278.824524,304.038666 
	C279.734497,303.734680 280.440460,303.699219 281.495880,303.606201 
	C282.331512,303.647583 282.817657,303.746490 283.666748,303.938446 
	C281.958588,305.009979 279.887451,305.988525 277.057556,306.962036 
	C275.778046,306.814240 275.257324,306.671448 274.736633,306.528625 
z"/>
<path fill="#B9B9B9" opacity="1.000000" stroke="none" 
	d="
M136.294922,287.775757 
	C135.650024,287.964813 135.239838,287.936249 134.522522,287.904510 
	C133.685501,286.428680 133.155609,284.956024 132.802429,283.246246 
	C134.162628,284.525482 135.346130,286.041809 136.294922,287.775757 
z"/>
<path fill="#8F8F8F" opacity="1.000000" stroke="none" 
	d="
M243.612701,365.914856 
	C243.989029,366.182312 243.970978,366.432861 243.936325,367.060669 
	C240.970474,367.036652 238.021225,366.635315 234.911469,365.924713 
	C235.859619,365.421326 236.968277,365.227203 238.607635,365.278076 
	C239.447174,365.595459 239.756042,365.667816 240.064896,365.740173 
	C241.116028,365.792786 242.167175,365.845398 243.612701,365.914856 
z"/>
<path fill="#C2C2C2" opacity="1.000000" stroke="none" 
	d="
M129.398163,268.736633 
	C128.423615,266.917572 127.686256,264.840973 126.978729,262.378235 
	C127.884163,264.154449 128.759766,266.316772 129.398163,268.736633 
z"/>
<path fill="#D1D1D1" opacity="1.000000" stroke="none" 
	d="
M239.750427,159.966522 
	C239.416107,160.114197 239.081772,160.261871 238.437973,160.094421 
	C237.731445,159.472015 237.334396,159.164749 236.937332,158.857483 
	C238.479446,158.045578 240.021545,157.233658 241.647415,156.903412 
	C241.070908,158.245544 240.410660,159.106033 239.750427,159.966522 
z"/>
<path fill="#8F8F8F" opacity="1.000000" stroke="none" 
	d="
M133.351471,179.945679 
	C133.644409,178.287262 134.295792,176.574966 135.271179,174.808746 
	C134.966766,176.467163 134.338348,178.179474 133.351471,179.945679 
z"/>
<path fill="#D1D1D1" opacity="1.000000" stroke="none" 
	d="
M279.844604,159.635910 
	C279.096863,159.461807 278.349091,159.287689 277.363647,158.647430 
	C277.078918,157.837387 277.031830,157.493454 276.984772,157.149536 
	C277.950195,157.177032 278.915619,157.204529 279.887390,157.842316 
	C279.877350,158.847046 279.860962,159.241470 279.844604,159.635910 
z"/>
<path fill="#979797" opacity="1.000000" stroke="none" 
	d="
M250.145264,158.336395 
	C249.837616,158.089828 249.529953,157.843262 249.112259,157.322693 
	C249.441544,156.689423 249.880844,156.330154 250.617493,155.903152 
	C252.102173,156.000626 253.289536,156.165833 254.740936,156.875336 
	C255.004929,157.619965 255.004868,157.820297 254.597504,158.018280 
	C252.841888,158.122772 251.493576,158.229584 250.145264,158.336395 
z"/>
<path fill="#979797" opacity="1.000000" stroke="none" 
	d="
M239.999985,160.240051 
	C240.410660,159.106033 241.070908,158.245544 241.871155,157.126312 
	C242.528229,156.921295 243.045334,156.975006 243.896301,157.233002 
	C243.447998,158.278717 242.665817,159.120163 241.797546,160.241165 
	C241.224182,160.518341 240.736862,160.515961 239.999985,160.240051 
z"/>
<path fill="#C2C2C2" opacity="1.000000" stroke="none" 
	d="
M274.390167,306.550415 
	C275.257324,306.671448 275.778046,306.814240 276.697632,307.039001 
	C275.562836,307.610992 274.029083,308.101044 272.247040,307.976654 
	C271.985321,307.119904 271.971954,306.877594 271.958588,306.635315 
	C272.653625,306.614258 273.348663,306.593231 274.390167,306.550415 
z"/>
<path fill="#979797" opacity="1.000000" stroke="none" 
	d="
M264.004486,156.827942 
	C264.817200,156.546219 265.629883,156.264511 266.770844,155.886765 
	C267.525055,155.833588 267.950989,155.876419 268.715393,156.194061 
	C269.063782,156.832687 269.073730,157.196503 268.701996,157.767914 
	C266.877106,157.996658 265.433899,158.017807 263.992188,157.736145 
	C263.997284,157.231522 264.000885,157.029724 264.004486,156.827942 
z"/>
<path fill="#9D9D9D" opacity="1.000000" stroke="none" 
	d="
M327.561829,348.841919 
	C326.556396,350.007782 325.205933,351.111328 323.480957,352.161987 
	C324.476532,350.999237 325.846649,349.889404 327.561829,348.841919 
z"/>
<path fill="#9D9D9D" opacity="1.000000" stroke="none" 
	d="
M321.941223,352.328583 
	C320.742340,353.352753 319.207275,354.232269 317.307861,355.019104 
	C318.497375,354.012268 320.051239,353.098114 321.941223,352.328583 
z"/>
<path fill="#C2C2C2" opacity="1.000000" stroke="none" 
	d="
M127.480232,201.023254 
	C127.729828,199.417908 128.323441,197.723480 129.200317,195.874695 
	C128.930466,197.458267 128.377350,199.196228 127.480232,201.023254 
z"/>
<path fill="#9D9D9D" opacity="1.000000" stroke="none" 
	d="
M290.884460,162.847275 
	C289.650116,162.761246 288.316589,162.306854 286.903748,161.554962 
	C288.144714,161.664597 289.464996,162.071762 290.884460,162.847275 
z"/>
<path fill="#A7A7A7" opacity="1.000000" stroke="none" 
	d="
M354.853882,330.459076 
	C354.134796,330.944427 353.504028,331.122498 352.547974,331.256561 
	C352.997864,330.188080 353.773071,329.163635 354.901855,328.211060 
	C355.150970,328.905884 355.046570,329.528839 354.853882,330.459076 
z"/>
<path fill="#8F8F8F" opacity="1.000000" stroke="none" 
	d="
M246.437119,308.058777 
	C246.002869,307.806641 246.005249,307.557922 246.034363,306.935547 
	C247.397034,306.672913 248.732986,306.783997 250.159088,307.198608 
	C249.124100,307.688873 247.998932,307.875549 246.437119,308.058777 
z"/>
<path fill="#C2C2C2" opacity="1.000000" stroke="none" 
	d="
M178.860016,122.932861 
	C179.635635,122.024780 180.464462,121.441315 181.606628,120.874115 
	C181.164246,121.887466 180.408524,122.884560 179.307434,123.897591 
	C178.945755,123.694847 178.929489,123.476158 178.860016,122.932861 
z"/>
<path fill="#B9B9B9" opacity="1.000000" stroke="none" 
	d="
M146.316727,306.334595 
	C145.385727,306.003937 144.685852,305.392853 143.916168,304.413391 
	C144.746841,304.714691 145.647354,305.384430 146.316727,306.334595 
z"/>
<path fill="#A7A7A7" opacity="1.000000" stroke="none" 
	d="
M338.879333,341.878479 
	C338.301941,342.877136 337.595001,343.587433 336.569977,344.268372 
	C337.084503,343.356049 337.917145,342.473053 338.879333,341.878479 
z"/>
<path fill="#9D9D9D" opacity="1.000000" stroke="none" 
	d="
M296.874329,165.746338 
	C295.893890,165.731018 294.937469,165.334732 293.886841,164.625961 
	C294.827881,164.664108 295.863098,165.014740 296.874329,165.746338 
z"/>
<path fill="#8F8F8F" opacity="1.000000" stroke="none" 
	d="
M271.753693,306.426819 
	C271.971954,306.877594 271.985321,307.119904 271.998688,307.726562 
	C271.151428,308.039764 270.304199,307.988617 269.099792,307.702332 
	C269.678009,307.050903 270.613403,306.634613 271.753693,306.426819 
z"/>
<path fill="#A7A7A7" opacity="1.000000" stroke="none" 
	d="
M333.193451,345.599243 
	C332.830200,346.530640 332.155762,347.253448 331.161469,347.881409 
	C331.521820,346.987915 332.202057,346.189301 333.193451,345.599243 
z"/>
<path fill="#D1D1D1" opacity="1.000000" stroke="none" 
	d="
M269.083679,157.560333 
	C269.073730,157.196503 269.063782,156.832687 269.037048,156.192505 
	C269.676971,156.028549 270.333679,156.140945 270.985168,156.530762 
	C270.751221,157.099121 270.522430,157.390060 269.905182,157.765289 
	C269.372375,157.753159 269.228027,157.656754 269.083679,157.560333 
z"/>
<path fill="#9D9D9D" opacity="1.000000" stroke="none" 
	d="
M280.056885,159.865997 
	C279.860962,159.241470 279.877350,158.847046 279.946899,158.158997 
	C280.877991,158.518784 281.755890,159.172165 282.888092,160.038696 
	C283.110260,160.453613 283.078186,160.655396 283.016785,161.162567 
	C282.550232,161.360901 282.113098,161.253830 281.340240,161.109741 
	C280.759430,160.747192 280.514343,160.421646 280.056885,159.865997 
z"/>
<path fill="#B9B9B9" opacity="1.000000" stroke="none" 
	d="
M147.681686,153.150970 
	C148.114456,152.977356 148.336288,153.032867 148.892609,153.166611 
	C148.568436,154.082870 147.909775,154.920883 146.897644,155.680756 
	C146.853012,154.861771 147.161880,154.120926 147.681686,153.150970 
z"/>
<path fill="#A7A7A7" opacity="1.000000" stroke="none" 
	d="
M367.153992,314.621155 
	C367.141144,315.336731 366.786041,315.862396 366.194275,316.451233 
	C366.242310,315.820007 366.527039,315.125641 367.153992,314.621155 
z"/>
<path fill="#979797" opacity="1.000000" stroke="none" 
	d="
M236.699966,159.005310 
	C237.334396,159.164749 237.731445,159.472015 238.163940,160.028229 
	C237.665039,160.522614 237.130722,160.768051 236.192993,160.795120 
	C236.013931,160.102203 236.238266,159.627670 236.699966,159.005310 
z"/>
<path fill="#979797" opacity="1.000000" stroke="none" 
	d="
M276.715698,157.076111 
	C277.031830,157.493454 277.078918,157.837387 277.158600,158.440460 
	C276.533966,158.545532 275.876678,158.391449 275.114197,157.890182 
	C275.488190,157.362900 275.967407,157.182800 276.715698,157.076111 
z"/>
<path fill="#D1D1D1" opacity="1.000000" stroke="none" 
	d="
M239.913239,365.570679 
	C239.756042,365.667816 239.447174,365.595459 239.034821,365.286469 
	C239.244797,365.080261 239.521545,365.197357 239.913239,365.570679 
z"/>
<path fill="#6A6A6A" opacity="1.000000" stroke="none" 
	d="
M295.709808,100.662033 
	C297.298828,100.848587 299.060455,101.338554 300.973206,102.111542 
	C299.377014,101.918190 297.629730,101.441826 295.709808,100.662033 
z"/>
<path fill="#6A6A6A" opacity="1.000000" stroke="none" 
	d="
M303.214355,103.068771 
	C303.685699,102.867851 304.325226,102.930412 305.046387,103.215569 
	C304.546204,103.402855 303.964355,103.367546 303.214355,103.068771 
z"/>
<path fill="#8F8F8F" opacity="1.000000" stroke="none" 
	d="
M130.123810,278.212341 
	C130.722427,278.507904 131.267319,279.121826 131.711304,280.073456 
	C131.096970,279.784302 130.583511,279.157501 130.123810,278.212341 
z"/>
<path fill="#404040" opacity="1.000000" stroke="none" 
	d="
M199.137665,188.818466 
	C205.430954,178.249359 214.501190,170.560120 226.264938,165.611191 
	C224.863068,167.093475 223.079849,168.544342 221.352402,170.058792 
	C214.841782,175.766724 208.355820,181.502777 201.840897,187.205765 
	C201.124146,187.833176 200.280289,188.315338 199.137665,188.818466 
z"/>
<path fill="#434343" opacity="1.000000" stroke="none" 
	d="
M306.850952,175.663055 
	C310.334290,178.244904 314.344910,180.741089 317.261993,184.168091 
	C320.954651,188.506195 323.757751,193.601456 326.916382,198.727203 
	C325.333771,197.597885 323.628174,196.238708 322.251801,194.602570 
	C317.073944,188.447540 312.003357,182.202255 306.850952,175.663055 
z"/>
<path fill="#1B1B1B" opacity="1.000000" stroke="none" 
	d="
M268.701996,157.767914 
	C269.228027,157.656754 269.372375,157.753159 269.731445,157.996964 
	C271.606537,159.157974 273.266846,160.171600 275.040405,161.524658 
	C270.489777,161.188766 265.825958,160.513458 261.395721,159.401627 
	C262.416443,158.656403 263.203583,158.347672 263.990692,158.038956 
	C265.433899,158.017807 266.877106,157.996658 268.701996,157.767914 
z"/>
<path fill="#1B1B1B" opacity="1.000000" stroke="none" 
	d="
M250.017975,158.663910 
	C251.493576,158.229584 252.841888,158.122772 254.769638,158.264923 
	C255.916641,158.710098 256.484192,158.906342 257.051758,159.102570 
	C252.885056,159.935867 248.718353,160.769165 244.281189,161.331314 
	C245.970703,160.370590 247.930695,159.681015 250.017975,158.663910 
z"/>
<path fill="#404040" opacity="1.000000" stroke="none" 
	d="
M192.396851,199.036713 
	C193.955414,195.983017 195.872818,192.936340 198.060455,189.726105 
	C199.349396,194.414658 196.063019,196.735367 192.396851,199.036713 
z"/>
<path fill="#4C4B4C" opacity="1.000000" stroke="none" 
	d="
M257.441376,159.066833 
	C256.484192,158.906342 255.916641,158.710098 255.176941,158.267242 
	C255.004868,157.820297 255.004929,157.619965 255.000305,157.118866 
	C257.698395,156.829376 260.401123,156.840607 263.554199,156.839890 
	C264.000885,157.029724 263.997284,157.231522 263.992188,157.736145 
	C263.203583,158.347672 262.416443,158.656403 261.294678,159.019531 
	C259.917023,159.059647 258.874023,159.045380 257.441376,159.066833 
z"/>
<path fill="#4C4B4C" opacity="1.000000" stroke="none" 
	d="
M230.019623,164.588470 
	C230.951813,163.626297 232.229294,162.839203 233.842804,162.145172 
	C232.907532,163.080002 231.636200,163.921783 230.019623,164.588470 
z"/>
<path fill="#404040" opacity="1.000000" stroke="none" 
	d="
M197.827850,271.674622 
	C196.911301,271.168365 195.998550,270.333954 195.085220,269.147552 
	C196.000305,269.645874 196.915970,270.496185 197.827850,271.674622 
z"/>
<path fill="#8F8F8F" opacity="1.000000" stroke="none" 
	d="
M244.242111,306.207489 
	C243.612137,306.316864 242.833878,306.149597 241.939484,305.673981 
	C242.580170,305.554047 243.337006,305.742432 244.242111,306.207489 
z"/>
</svg>